<?xml version="1.0" encoding="UTF-8" standalone="no"?>
<!DOCTYPE svg  PUBLIC '-//W3C//DTD SVG 1.1//EN'  'http://www.w3.org/Graphics/SVG/1.1/DTD/svg11.dtd'>
<svg xmlns="http://www.w3.org/2000/svg">
<defs>
<font id="PoloHint-Italic" horiz-adv-x="1077">
<font-face slope="-12" underline-position="-143" font-weight="400" descent="-410" panose-1="2 11 5 3 4 0 0 9 0 0" units-per-em="2048" unicode-range="U+0020-25CA" bbox="-498 -469 2222 1808" x-height="1016" underline-thickness="113" font-family="PoloHint" ascent="1638" font-style="italic" cap-height="1407"/>
<missing-glyph horiz-adv-x="2048"/>
<glyph glyph-name=".notdef" horiz-adv-x="2048"/>
<glyph glyph-name=".null" horiz-adv-x="0"/>
<glyph glyph-name="nonmarkingreturn" horiz-adv-x="2048"/>
<glyph glyph-name="space" horiz-adv-x="518" unicode=" "/>
<glyph glyph-name="exclam" horiz-adv-x="664" unicode="!" d="M465 1407h240l-265 -979h-133zM325 236q66 0 105 -37q31 -30 31 -80q0 -63 -51 -99q-44 -29 -100 -29q-54 0 -97 26q-47 28 -47 87q0 63 45 97q47 35 114 35z"/>
<glyph glyph-name="quotedbl" horiz-adv-x="690" unicode='&quot;' d="M205 891l-35 520h205l-35 -520h-135zM538 891l-35 520h205l-35 -520h-135z"/>
<glyph glyph-name="numbersign" horiz-adv-x="1079" unicode="#" d="M232 14l77 375h-188l29 141h190l55 265h-190l29 141h190l76 352h123l-74 -352h190l74 352h125l-74 -352h191l-31 -141h-190l-56 -265h191l-29 -141h-190l-80 -375h-123l78 375h-191l-80 -375h-122zM465 530h191l55 265h-191z"/>
<glyph glyph-name="dollar" horiz-adv-x="1051" unicode="$" d="M323 170l107 498q-103 35 -166 102q-93 97 -93 231q0 140 107 250q120 123 305 138l35 170h90l-34 -164h79l35 164h90l-35 -172q94 -24 152 -58q37 -21 102 -76l-77 -143q-130 96 -211 113l-97 -453q127 -56 174 -108q89 -97 89 -233q0 -254 -236 -375q-70 -37 -190 -50 l-41 -197h-90l40 197h-79l-43 -197h-91l43 199q-192 21 -319 152l90 139q147 -118 264 -127zM411 162h80l96 446l-75 23zM585 174h13q58 11 109 63q66 68 66 178q0 103 -91 154h-13zM721 1241h-80l-86 -412l73 -24zM547 1223h-13q-162 -59 -162 -215q0 -84 86 -140h15z"/>
<glyph glyph-name="percent" horiz-adv-x="1542" unicode="%" d="M284 0h-186l4 14h12l1164 1393h186l-4 -14h-12zM1223 770q131 0 198 -78q61 -71 61 -184q0 -127 -47 -250q-52 -136 -152 -208q-99 -70 -225 -70q-160 0 -229 102q-49 73 -49 176q0 109 46 227q110 285 397 285zM1192 639q-84 0 -147 -113q-75 -133 -75 -289 q0 -128 100 -128q92 0 150 118q70 143 70 291q0 121 -98 121zM528 1427q132 0 197 -76q59 -70 59 -179q0 -120 -46 -241q-50 -133 -148 -203q-97 -69 -220 -69q-148 0 -219 102q-47 68 -47 171q0 212 123 357q117 138 301 138zM502 1300q-81 0 -142 -110q-72 -131 -72 -281 q0 -123 95 -123q89 0 148 113q25 51 46 139t21 147q0 115 -96 115z"/>
<glyph glyph-name="ampersand" horiz-adv-x="1141" unicode="&amp;" d="M1061 117l-144 -137l-155 192q-20 -14 -35 -25q-139 -100 -198 -123q-101 -42 -198 -42q-155 0 -245 86q-84 81 -84 210q0 260 352 402q-99 158 -99 276q0 153 113 250q115 99 319 99q327 0 327 -247q0 -128 -129 -250q-93 -88 -250 -161l184 -235l203 184l108 -121 l-215 -182zM442 567q-243 -112 -243 -263q0 -48 26 -86q44 -64 136 -64q150 0 303 137zM828 1046q0 113 -151 113q-119 0 -182 -67q-41 -44 -41 -118q0 -53 22 -102q18 -41 46 -79q25 -35 27 -35q279 0 279 288z"/>
<glyph glyph-name="quotesingle" horiz-adv-x="352" unicode="&apos;" d="M213 891l-35 520h205l-35 -520h-135z"/>
<glyph glyph-name="parenleft" horiz-adv-x="664" unicode="(" d="M456 -207l-94 -88q-301 295 -301 714q0 385 250 699q225 283 397 377l92 -88q-202 -168 -341 -381q-205 -314 -205 -640q0 -217 72 -384q40 -95 130 -209z"/>
<glyph glyph-name="parenright" horiz-adv-x="664" unicode=")" d="M231 1407l94 88q301 -317 301 -716q0 -361 -252 -697q-186 -249 -395 -377l-92 88q196 162 342 381q205 308 205 640q0 217 -72 384q-41 95 -131 209z"/>
<glyph glyph-name="asterisk" horiz-adv-x="750" unicode="*" d="M651 969l-213 -62l51 252q23 -6 33 -6q19 0 55 16zM301 1020l-115 154l274 61q-1 -11 -1 -20q0 -17 20 -46zM252 1346l141 184l121 -227q-37 -16 -54 -54zM594 1536l204 -51l-190 -213q-28 33 -63 33h-15zM829 1296l-4 -209l-238 89q24 34 24 58q0 11 -1 26z"/>
<glyph glyph-name="plus" horiz-adv-x="1036" unicode="+" d="M547 223h-178l78 370h-334l33 150h332l73 344h180l-73 -344h334l-33 -150h-332z"/>
<glyph glyph-name="comma" horiz-adv-x="457" unicode="," d="M119 217h207v-76l-238 -469h-129z"/>
<glyph glyph-name="hyphen" horiz-adv-x="553" unicode="-" d="M86 524l35 160h414l-33 -160h-416z"/>
<glyph glyph-name="period" horiz-adv-x="455" unicode="." d="M206 236q69 0 107 -37q31 -30 31 -76q0 -56 -33 -91q-43 -45 -120 -45q-148 0 -148 119q0 57 45 95q42 35 118 35z"/>
<glyph glyph-name="slash" horiz-adv-x="829" unicode="/" d="M-102 -281l897 1751h168l-897 -1751h-168z"/>
<glyph glyph-name="zero" horiz-adv-x="1038" unicode="0" d="M709 1403q270 0 270 -409q0 -283 -104 -550q-104 -270 -264 -386q-95 -69 -213 -69q-133 0 -208 97q-84 109 -84 322t75 455q92 295 270 441q120 99 258 99zM674 1217q-152 0 -254 -262q-119 -306 -119 -577q0 -213 115 -213q144 0 243 256q123 317 123 563 q0 143 -31 196q-21 37 -77 37z"/>
<glyph glyph-name="one" horiz-adv-x="834" unicode="1" d="M125 846l-49 139l575 408h164q-23 -76 -84 -351l-221 -1042h-203l195 915q13 62 24 100q9 31 17 64l31 43l-17 11l-32 -41z"/>
<glyph glyph-name="two" horiz-adv-x="1038" unicode="2" d="M807 0h-799l2 127q36 22 82 57q91 70 219 189q288 270 378 435q71 131 71 244q0 163 -135 163q-176 0 -334 -250l-113 112q193 330 470 330q139 0 225 -74q98 -85 98 -255q0 -244 -244 -521q-212 -241 -377 -360l-59 -17l6 -20l49 14l303 -10q28 -1 57 -1q71 0 97 7 q6 2 36 14q11 5 33 13z"/>
<glyph glyph-name="three" horiz-adv-x="1038" unicode="3" d="M72 0l-45 170q80 -12 150 -12q167 0 289 55q191 87 191 254q0 102 -97 139q-70 27 -203 27q-32 0 -88 -2l34 164q23 -1 34 -1q146 0 249 39q104 39 149 138q28 61 28 122q0 132 -142 132q-193 0 -358 -168l-46 162q65 68 158 116q140 72 272 72q135 0 218 -68 q94 -77 94 -219q0 -150 -97 -264q-73 -86 -157 -117h-55l-5 -18h56q164 -59 164 -249q0 -229 -222 -373q-166 -107 -447 -107q-68 0 -124 8z"/>
<glyph glyph-name="four" horiz-adv-x="1036" unicode="4" d="M684 0h-193l64 301h-498v138l604 954h205l-567 -924l-41 -16l4 -14l37 16h288l160 589h160l-127 -589h158l-33 -154h-158z"/>
<glyph glyph-name="five" horiz-adv-x="1036" unicode="5" d="M125 2l-45 168q90 -8 139 -8q223 0 354 113q111 96 111 228q0 163 -201 163q-150 0 -282 -45l-12 -13l-13 10l10 13l144 586l43 176h639l-37 -170l-453 -9l-98 -395q77 17 153 17q143 0 218 -63q98 -84 98 -234q0 -125 -67 -244q-167 -299 -587 -299q-56 0 -114 6z"/>
<glyph glyph-name="six" horiz-adv-x="1038" unicode="6" d="M952 1411l74 -143q-214 -52 -385 -181q-176 -135 -250 -337l-26 -37l14 -13l31 41q112 74 228 74q152 0 230 -109q56 -78 56 -224q0 -210 -128 -348q-136 -148 -337 -148q-162 0 -242 94q-96 114 -96 299q0 233 97 452q121 272 387 442q138 88 347 138zM348 547 q-25 -93 -25 -175q0 -228 150 -228q108 0 182 111q66 100 66 219q0 167 -137 167q-72 0 -152 -33q-39 -16 -61 -37q-21 -19 -23 -24z"/>
<glyph glyph-name="seven" horiz-adv-x="928" unicode="7" d="M1040 1393v-138l-764 -1255h-233l733 1190l47 18l-6 17l-39 -13l-596 11l37 170h821z"/>
<glyph glyph-name="eight" horiz-adv-x="1038" unicode="8" d="M410 727h-35q-130 110 -130 261q0 169 117 291q121 126 320 126q146 0 223 -74q74 -71 74 -193q0 -259 -274 -411h-35l-2 -10h33q167 -110 167 -292q0 -175 -128 -305q-129 -132 -351 -132q-323 0 -323 297q0 160 115 290q78 88 192 142h35zM584 817q205 121 205 303 q0 132 -126 132q-110 0 -168 -87q-49 -73 -49 -149t50 -129q25 -27 57 -49q30 -21 31 -21zM258 301q0 -161 160 -161q103 0 168 72q75 81 75 196q0 81 -71 149q-29 28 -61 53q-37 29 -39 29q-232 0 -232 -338z"/>
<glyph glyph-name="nine" horiz-adv-x="1036" unicode="9" d="M148 -16l-66 153q217 37 385 180q164 141 225 314l39 47l-16 12l-33 -41q-100 -70 -223 -70q-163 0 -238 137q-49 90 -49 206q0 201 126 335q136 144 336 144q335 0 335 -395q0 -283 -141 -539q-152 -272 -427 -406q-132 -65 -253 -77zM752 854q22 68 22 145 q0 244 -154 244q-124 0 -192 -121q-53 -94 -53 -207q0 -168 142 -168q93 0 173 55q57 39 62 52z"/>
<glyph glyph-name="colon" horiz-adv-x="532" unicode=":" d="M371 960q70 0 107 -37q31 -31 31 -78q0 -65 -52 -100q-43 -29 -100 -29q-52 0 -97 26q-47 26 -47 91q0 56 45 92q44 35 113 35zM225 299q68 0 105 -37q31 -31 31 -78q0 -65 -51 -98q-49 -31 -106 -31q-64 0 -107 39q-31 28 -31 74q0 62 45 98q41 33 114 33z"/>
<glyph glyph-name="semicolon" horiz-adv-x="496" unicode=";" d="M164 217h207v-76l-238 -469h-129zM342 733q69 0 107 -37q31 -30 31 -76q0 -56 -33 -91q-43 -45 -120 -45q-148 0 -148 119q0 57 45 95q42 35 118 35z"/>
<glyph glyph-name="less" horiz-adv-x="1036" unicode="&lt;" d="M169 741l848 330v-158l-662 -237h-26l-4 -21h26l572 -217l-64 -149l-716 327z"/>
<glyph glyph-name="equal" horiz-adv-x="1036" unicode="=" d="M90 473l27 125h845l-28 -125h-844zM147 741l27 125h844l-27 -125h-844z"/>
<glyph glyph-name="greater" horiz-adv-x="1036" unicode="&gt;" d="M965 616l-848 -327v155l662 240h28l4 18h-28l-572 218l64 151l716 -330z"/>
<glyph glyph-name="question" horiz-adv-x="813" unicode="?" d="M334 1122l-39 156q155 143 341 143q111 0 188 -68q82 -72 82 -200q0 -110 -92 -227q-43 -55 -201 -206q-146 -145 -156 -276h-137q-10 26 -10 49q0 104 68 207q43 65 196 230q119 128 119 210q0 93 -112 93q-109 0 -247 -111zM327 236q66 0 105 -37q31 -30 31 -80 q0 -63 -51 -99q-44 -29 -100 -29q-54 0 -97 26q-47 28 -47 87q0 63 45 97q47 35 114 35z"/>
<glyph glyph-name="at" horiz-adv-x="1776" unicode="@" d="M1042 371l-4 2q-199 -299 -390 -299q-96 0 -145 84q-39 66 -39 180q0 333 200 513q154 138 361 138q181 0 275 -109l-137 -591q-16 -68 -16 -135q0 -65 68 -65q123 0 226 128t103 347q0 264 -159 422q-160 161 -434 161q-318 0 -505 -218q-164 -192 -164 -470 q0 -265 149 -450q184 -227 541 -227q319 0 555 251l74 -115q-251 -276 -675 -276q-275 0 -472 127q-149 96 -239 252q-109 188 -109 428q0 393 267 629q232 204 583 204q323 0 535 -178q221 -185 221 -522q0 -312 -226 -478q-160 -117 -338 -117q-151 0 -151 124 q0 48 45 260zM997 833q-207 0 -301 -188q-64 -128 -64 -300q0 -109 70 -109q108 0 258 194q86 110 127 235q29 85 29 120q0 24 -14 34q-22 14 -105 14z"/>
<glyph glyph-name="A" horiz-adv-x="1161" unicode="A" d="M139 0h-231l768 1407h223l162 -1407h-211l-39 403h-463zM432 567h361l30 -20l5 12l-29 20l-60 576l17 80h-19l-18 -80l-291 -576l-37 -18l6 -10z"/>
<glyph glyph-name="B" horiz-adv-x="1208" unicode="B" d="M66 0l35 166l232 1089l32 148q280 6 424 6q154 0 223 -26q170 -65 170 -275q0 -259 -264 -366h-51l-4 -19h51q76 -26 123 -74q78 -78 78 -189q0 -225 -176 -358q-96 -71 -227 -89q-92 -13 -214 -13h-432zM443 801h139q201 0 288 77q98 87 98 201q0 90 -53 128 q-48 35 -280 39q-14 1 -52 1q-14 0 -46 1zM306 160h17q280 0 386 33q129 39 174 154q18 46 18 93q0 106 -88 155q-72 40 -245 40h-162z"/>
<glyph glyph-name="C" d="M948 344l59 -145q-46 -64 -129 -119q-149 -98 -326 -98q-219 0 -337 129q-121 133 -121 378q0 216 82 420q100 252 295 396q163 120 354 120q260 0 385 -194l-98 -158q-37 65 -94 104q-91 62 -194 62q-211 0 -360 -229q-76 -118 -118 -277q-33 -127 -33 -240 q0 -141 55 -225q69 -104 215 -104q142 0 252 82q32 23 113 98z" unicode="C"/>
<glyph glyph-name="D" horiz-adv-x="1288" unicode="D" d="M74 0l34 161l233 1091l32 150q235 7 359 7q186 0 279 -37q139 -55 211 -205q54 -114 54 -267q0 -293 -145 -538q-148 -248 -383 -319q-143 -43 -381 -43h-293zM320 159h40q280 0 432 114q132 98 205 291q62 166 62 338q0 274 -222 326q-82 19 -247 19h-39z"/>
<glyph glyph-name="E" d="M72 0l39 183l221 1039l39 185h809l-37 -172l-604 -12l-88 -410h532l-39 -180h-530l-96 -449l428 -16q14 -1 30 -1q80 0 108.5 4.5t107.5 30.5l-76 -202h-844z" unicode="E"/>
<glyph glyph-name="F" horiz-adv-x="995" unicode="F" d="M274 0h-213l260 1222l39 185h782l-37 -176l-571 -12l-96 -455h567l-37 -180h-569z"/>
<glyph glyph-name="G" horiz-adv-x="1253" unicode="G" d="M655 762h541l-37 -177l-98 -460q-111 -67 -187 -94q-136 -49 -290 -49q-234 0 -367 146q-125 136 -125 364q0 216 83 429q99 253 314 395q165 110 367 110q273 0 405 -185l-94 -155q-119 154 -321 154q-231 0 -383 -222q-74 -110 -117 -273q-35 -130 -35 -249 q0 -158 78 -248q80 -92 238 -92q137 0 245 55l80 377h-334z"/>
<glyph glyph-name="H" horiz-adv-x="1327" unicode="H" d="M274 0h-211l299 1407h211l-123 -584h571l123 584h211l-299 -1407h-211l138 643h-572z"/>
<glyph glyph-name="I" horiz-adv-x="582" unicode="I" d="M295 0h-213l299 1407h213z"/>
<glyph glyph-name="J" horiz-adv-x="543" unicode="J" d="M387 1407h213l-279 -1311q-11 -50 -21 -92q-37 -154 -73 -219q-64 -116 -213 -164q-77 -25 -154 -25q-8 0 -26 1l-74 149h11q97 0 173 35q74 37 106 114q20 46 36 105q9 29 16 63z"/>
<glyph glyph-name="K" horiz-adv-x="1100" unicode="K" d="M262 0h-205l299 1407h205l-125 -586l-17 -33l17 -10l16 31l606 598h261l-5 -18h-12l-682 -654l223 -381q106 -197 213 -338h15l-4 -16h-224q-67 37 -133 160l-284 516l-2 43l-19 -4v-39z"/>
<glyph glyph-name="L" horiz-adv-x="952" unicode="L" d="M367 1407h209l-260 -1222l405 -17h13q79 0 170 31l-60 -199h-776l38 181z"/>
<glyph glyph-name="M" horiz-adv-x="1747" unicode="M" d="M215 0h-211l432 1407h238l153 -1092l-18 -82h20l19 82l604 1092h252l-166 -1407h-205l137 1069l25 76h-23l-22 -76l-592 -1069h-174l-145 1047v88h-19l-2 -88z"/>
<glyph glyph-name="N" horiz-adv-x="1327" unicode="N" d="M256 0h-205l299 1407h205l366 -1051l7 -94h18l-2 94l213 1051h203l-299 -1407h-211l-365 1051l-8 100h-18l6 -100z"/>
<glyph glyph-name="O" horiz-adv-x="1286" unicode="O" d="M869 1430q407 0 407 -481q0 -423 -236 -719q-204 -255 -505 -255q-218 0 -331 139q-106 132 -106 364q0 225 89 445q207 507 682 507zM826 1258q-121 0 -237 -93q-133 -108 -210 -338q-67 -199 -67 -384q0 -149 70 -230q54 -62 158 -62q160 0 290 133q136 141 195 390 q34 147 34 285q0 299 -233 299z"/>
<glyph glyph-name="P" horiz-adv-x="1120" unicode="P" d="M281 0h-213l265 1242l34 161q259 6 369 6q192 0 276 -30q102 -37 148 -136q34 -72 34 -161q0 -182 -92 -331q-88 -142 -262 -186q-114 -29 -301 -29h-143zM430 700h42q270 0 371 65q76 47 112 149q25 69 25 142q0 151 -160 175q-28 4 -96.5 6t-178.5 2z"/>
<glyph glyph-name="Q" horiz-adv-x="1286" unicode="Q" d="M925 -150l-16 -159q-43 -32 -121 -60q-103 -37 -192 -37q-117 0 -173 54q-54 53 -77 178q-9 49 -9 97q0 9 1 30l59 18h45l4 19h-39q-143 45 -208 134q-101 140 -101 343q0 222 81 429q117 301 325 433q161 101 357 101q413 0 413 -501q0 -318 -156 -589 q-213 -369 -586 -369h-28q20 -97 54 -151q32 -50 99 -50q125 0 268 80zM829 1256q-129 0 -250 -100q-161 -135 -233 -441q-32 -134 -32 -267q0 -144 56 -223q59 -82 170 -82q213 0 356 225q161 253 161 578q0 167 -55 240q-53 70 -173 70z"/>
<glyph glyph-name="R" horiz-adv-x="1141" unicode="R" d="M279 0h-205l267 1252l32 151q261 6 390 6q229 0 313 -66q90 -70 90 -222q0 -233 -158 -365q-93 -78 -218 -101q-33 -6 -91 -12l-37 14l-8 -18l34 -10l105 -207q192 -348 264 -408h16l-4 -14h-235q-81 63 -167 222q-82 157 -204 407h-49zM445 770q54 2 65 2q158 5 223 25 q131 41 188 151q33 66 33 138q0 123 -107 149q-59 14 -302 14z"/>
<glyph glyph-name="S" horiz-adv-x="1038" unicode="S" d="M27 160l78 168q129 -158 341 -158q151 0 230 91q61 70 61 168q0 75 -60 123q-28 24 -205 103q-139 62 -195 131q-70 86 -70 214q0 193 139 312q132 113 343 113q221 0 374 -151l-71 -178q-141 145 -317 145q-134 0 -204 -71q-58 -60 -58 -147q0 -68 58 -115 q40 -33 213 -103q145 -59 209 -142q62 -79 62 -199q0 -220 -158 -357q-145 -126 -358 -126q-252 0 -412 179z"/>
<glyph glyph-name="T" horiz-adv-x="954" unicode="T" d="M482 0h-213l262 1227l-375 12l35 168h969l-35 -168l-381 -12z"/>
<glyph glyph-name="U" horiz-adv-x="1286" unicode="U" d="M344 1407h213l-192 -903q-28 -130 -28 -195q0 -162 219 -162q174 0 267 89q62 60 99 233l198 938h209l-200 -940q-35 -161 -74 -235q-134 -255 -513 -255q-419 0 -419 318q0 74 20 170z"/>
<glyph glyph-name="V" d="M174 1407h209l102 -1104l-20 -98h20l21 98l565 1104h219l-756 -1407h-204z" unicode="V"/>
<glyph glyph-name="W" horiz-adv-x="1702" unicode="W" d="M193 1407h207l22 -1053l-20 -96h20l23 102l487 1047h215l60 -1053l-17 -86h19l18 86l443 1053h221l-633 -1407h-217l-62 1065l21 88h-21l-18 -88l-494 -1065h-227z"/>
<glyph glyph-name="X" horiz-adv-x="1069" unicode="X" d="M205 1407h227l176 -512l-12 -49h21l10 49l370 512h238l-539 -709l113 -282q108 -265 188 -400h15l-4 -16h-219q-63 66 -109 178l-137 361l10 55h-18l-13 -55l-411 -539h-244l588 733z"/>
<glyph glyph-name="Y" horiz-adv-x="987" unicode="Y" d="M489 0h-211l109 512l-250 895h219l172 -674l-14 -63h20l15 63l448 674h232l-633 -907z"/>
<glyph glyph-name="Z" horiz-adv-x="1036" unicode="Z" d="M-31 0v137l860 1065l53 21l-8 20l-51 -20l-576 12l35 172h856v-133l-860 -1070l-57 -20l6 -19l57 21l516 -16q17 -1 29 -1q53 0 135 37l-70 -206h-925z"/>
<glyph glyph-name="bracketleft" horiz-adv-x="623" unicode="[" d="M-41 -348l30 140l348 1636l30 141h440l-29 -135l-270 -8l-346 -1635l264 -8l-27 -131h-440z"/>
<glyph glyph-name="backslash" horiz-adv-x="942" unicode="\" d="M907 -281h-164l-512 1751h166z"/>
<glyph glyph-name="bracketright" horiz-adv-x="623" unicode="]" d="M702.985 1561.87l-29.9893 -139.949l-347.873 -1635.4l-29.9883 -140.949h-439.839l28.9893 134.951l269.9 7.99707l345.874 1634.4l-263.903 7.99707l26.9902 130.952h439.839z"/>
<glyph glyph-name="asciicircum" horiz-adv-x="764" unicode="^" d="M553 1407l231 -567h-188l-131 393v20h-19v-20l-139 -393h-180l246 567h180z"/>
<glyph glyph-name="underscore" horiz-adv-x="1237" unicode="_" d="M-32 -141h1243l-23 -113h-1245z"/>
<glyph glyph-name="grave" horiz-adv-x="520" unicode="`" d="M436 1147h-106l-228 276h-18l4 19h270z"/>
<glyph glyph-name="a" d="M668 0l6 113l10 30l-14 9l-12 -39q-58 -53 -88 -72q-98 -61 -226 -61q-134 0 -210 119q-64 99 -64 251q0 283 154 492q143 194 352 194q101 0 166 -47q42 -31 82 -102l4 -43l16 4l-4 39l27 129h186l-166 -723q-35 -153 -35 -245q0 -25 11 -48h-195zM779 676 q-42 184 -199 184q-132 0 -218 -150q-38 -66 -65 -175q-26 -103 -26 -181q0 -200 140 -200q111 0 204 80q7 6 90 88z" unicode="a"/>
<glyph glyph-name="b" horiz-adv-x="1079" unicode="b" d="M209 0h-193q41 71 94 299l236 1141l205 37l-7 -34l-114 -534l-15 -26l15 -9l18 35q147 132 316 132q137 0 203 -113q59 -102 59 -265q0 -254 -141 -464q-72 -107 -172 -164q-100 -58 -195 -58q-160 0 -250 136l2 30h-21l3 -30zM305 319q72 -170 208 -170q157 0 243 209 q65 159 65 324q0 185 -139 185q-106 0 -209 -86q-49 -41 -92 -109z"/>
<glyph glyph-name="c" horiz-adv-x="829" unicode="c" d="M709 254l8 -162q-146 -115 -316 -115q-166 0 -253 109q-78 97 -78 270q0 294 158 501q140 183 359 183q116 0 204 -57q55 -36 86 -90l-68 -166q-92 137 -224 137q-138 0 -228 -158q-35 -60 -59 -157q-25 -100 -25 -182q0 -212 185 -212q65 0 153 39q60 27 98 60z"/>
<glyph glyph-name="d" horiz-adv-x="1079" unicode="d" d="M665 0v111l12 32l-14 7l-16 -37q-142 -134 -303 -134q-132 0 -209 105q-72 98 -72 271q0 258 141 468q145 218 374 218q143 0 224 -134l6 -41l19 2l-4 39l112 533l209 37l-6 -28l-258 -1142q-38 -168 -38 -259q0 -23 9 -48h-186zM774 676q-18 72 -60 119q-58 66 -144 66 q-153 0 -238 -207q-67 -161 -67 -306q0 -195 136 -195q93 0 192 68q63 43 105 109z"/>
<glyph glyph-name="e" horiz-adv-x="956" unicode="e" d="M772 270l10 -158q-42 -48 -121 -84q-113 -51 -229 -51q-206 0 -303 141q-68 99 -68 255q0 141 53 286q76 210 236 310q114 71 262 71q166 0 247 -92q74 -84 74 -227q0 -142 -53 -257h-618q-8 -51 -8 -91q0 -83 34 -138q52 -84 173 -84q168 0 311 119zM735 618 q12 56 12 99q0 170 -167 170q-129 0 -215 -115q-46 -62 -71 -154h441z"/>
<glyph glyph-name="f" horiz-adv-x="662" unicode="f" d="M262 0h-186q49 54 94 305l103 547h-152l31 143h149l21 90q21 94 46 162q33 91 73 135q84 94 223 94q97 0 176 -45l-37 -143q-47 24 -115 24q-77 0 -118 -64q-36 -58 -58 -163l-18 -90h262l-31 -143h-260l-117 -629q-20 -128 -86 -223z"/>
<glyph glyph-name="g" d="M658 111q-138 -132 -295 -132q-291 0 -291 369q0 259 137 469q145 222 366 222q111 0 179 -57q35 -30 70 -95l2 -41l16 2l-2 39l27 129h192l-192 -905q-13 -60 -27 -111q-49 -184 -109 -257q-134 -163 -383 -163q-226 0 -358 137l57 164q130 -123 306 -123q168 0 240 111 q30 46 54 131q13 45 25 102l20 35l-14 8zM791 662q-59 199 -214 199q-132 0 -218 -166q-34 -66 -59 -170q-26 -108 -26 -187q0 -182 150 -182q107 0 207 76q58 44 88 94z" unicode="g"/>
<glyph glyph-name="h" d="M487 774q-63 -43 -100 -86l-145 -688h-197l305 1440l205 37l-8 -36l-115 -542l-18 -35l14 -8l20 37q175 145 355 145q213 0 213 -208q0 -56 -21 -142l-106 -438q-36 -147 -36 -206q0 -12 7 -44h-186q-5 51 -5 80q0 58 25 164l101 422q18 77 18 106q0 84 -100 84 q-105 0 -226 -82z" unicode="h"/>
<glyph glyph-name="i" horiz-adv-x="500" unicode="i" d="M463 1032l-6 -27l-213 -1005h-195l213 1001zM424 1409q59 0 96 -33q29 -27 29 -67q0 -47 -32 -81q-38 -41 -108 -41q-127 0 -127 104q0 118 142 118z"/>
<glyph glyph-name="j" horiz-adv-x="498" unicode="j" d="M-125 -420l-78 117q91 2 160 57q66 53 108 244l213 1003l201 31l-6 -27l-213 -1004l-6 -28q-48 -223 -166 -315q-101 -78 -197 -78h-16zM435 1409q122 0 122 -103q0 -60 -45 -92q-39 -27 -92 -27q-52 0 -86 24q-43 29 -43 76q0 58 41 91q37 31 103 31z"/>
<glyph glyph-name="k" horiz-adv-x="942" unicode="k" d="M240 0h-197l305 1440l205 37l-8 -38l-170 -804l-21 -43l19 -6l16 33l399 387l11 10h248l-3 -14h-12l-487 -455l172 -316l43 -69q70 -115 102 -146h12l-4 -16h-213q-13 5 -26 16q-40 32 -80 111l-191 361l-2 34l-18 -2v-39z"/>
<glyph glyph-name="l" horiz-adv-x="500" unicode="l" d="M246 0h-195l305 1440l205 37l-7 -34z"/>
<glyph glyph-name="m" horiz-adv-x="1616" unicode="m" d="M234 0h-193l211 993l195 33l-7 -31l-22 -104l-25 -37l17 -8l18 28q199 165 370 165q85 0 136 -56q37 -41 41 -92l-12 -37l16 -2l14 33q176 151 351 151q106 0 164 -61q50 -54 50 -138q0 -47 -16 -110l-123 -491q-37 -150 -37 -199q0 -19 11 -37h-191q-2 41 -2 61 q0 86 31 211l100 408q16 64 16 93q0 83 -90 83q-131 0 -290 -145l-117 -473q-35 -142 -35 -195q0 -21 10 -43h-194q0 91 2 117q1 35 29 149l102 414q4 18 7 32q11 46 11 64q0 83 -97 83q-78 0 -189 -76q-71 -48 -117 -103z"/>
<glyph glyph-name="n" horiz-adv-x="1079" unicode="n" d="M240 0h-195l211 993l199 33l-7 -34l-20 -91l-27 -43l17 -8l18 31q59 53 139 94q125 63 217 63q101 0 163 -59q61 -60 61 -162q0 -52 -27 -162l-100 -407q-38 -177 -38 -211q0 -18 13 -37h-196q-5 57 -5 74q0 70 31 196l103 414q16 66 16 91q0 81 -102 81 q-139 0 -324 -160z"/>
<glyph glyph-name="o" horiz-adv-x="995" unicode="o" d="M617 1042q325 0 325 -384q0 -305 -173 -503q-158 -180 -386 -180q-157 0 -244 107q-84 104 -84 281q0 295 177 499q156 180 385 180zM597 876q-173 0 -267 -211q-77 -170 -77 -337q0 -191 141 -191q191 0 286 238q64 161 64 306q0 195 -147 195z"/>
<glyph glyph-name="p" horiz-adv-x="1079" unicode="p" d="M156 -416h-195l299 1409l190 33l-6 -29l-20 -98l-19 -39l19 -8l16 37q152 149 314 149q145 0 215 -131q53 -100 53 -239q0 -144 -52 -296q-68 -195 -204 -300q-119 -92 -244 -92q-155 0 -239 116l-5 41l-18 -2l4 -39zM305 291q76 -139 204 -139q131 0 218 153 q88 156 88 353q0 204 -134 204q-150 0 -294 -180z"/>
<glyph glyph-name="q" d="M745 -416h-195l109 506l20 41l-16 8l-18 -33q-151 -131 -312 -131q-125 0 -198 94q-72 93 -72 274q0 289 160 505q141 191 340 191q161 0 248 -152l6 -39h14l-2 45l27 123h192zM780 664q-13 69 -55 121q-66 80 -159 80q-158 0 -240 -228q-62 -170 -62 -304 q0 -180 133 -180q109 0 201 68q39 29 110 101z" unicode="q"/>
<glyph glyph-name="r" horiz-adv-x="684" unicode="r" d="M244 0h-197l213 1001l193 31l-7 -30l-24 -109l-23 -39l15 -8l20 37q132 146 283 146q20 0 53 -3l-37 -215h-16l2 14q-34 8 -62 8q-109 0 -194 -76q-51 -45 -80 -106z"/>
<glyph glyph-name="s" horiz-adv-x="829" unicode="s" d="M18 127l39 180q38 -62 92 -98q98 -66 200 -66q104 0 159 59q36 40 36 101q0 59 -40 90q-34 26 -140 65q-104 40 -138 66q-92 72 -92 200q0 132 92 218q104 98 293 98q103 0 197 -45q66 -31 97 -75l-37 -183q-88 139 -265 139q-186 0 -186 -136q0 -54 41 -81 q23 -15 158 -68q124 -48 168 -104q49 -62 49 -149q0 -147 -93 -246q-107 -115 -292 -115q-122 0 -234 62q-69 38 -104 88z"/>
<glyph glyph-name="t" horiz-adv-x="690" unicode="t" d="M586 188l-31 -149q-93 -57 -204 -57q-112 0 -171 61q-44 47 -44 134q0 54 20 149l110 526h-147l31 143h147l58 244l200 35l-8 -37l-55 -242h250l-31 -143h-250l-102 -481q-24 -111 -24 -141q0 -78 89 -78q73 0 162 36z"/>
<glyph glyph-name="u" horiz-adv-x="1036" unicode="u" d="M631 0v117l14 33l-16 8l-16 -41q-155 -137 -311 -137q-103 0 -162 65q-58 64 -58 178q0 59 27 185l127 593l200 31l-6 -29l-125 -583q-24 -114 -24 -162q0 -100 95 -100q92 0 198 78q57 42 92 100l141 665l203 31l-7 -31l-155 -704q-35 -159 -35 -256q0 -26 10 -41h-192z "/>
<glyph glyph-name="v" horiz-adv-x="872" unicode="v" d="M121 1016h197l73 -719l-16 -80h20l17 80l352 719h211l-537 -1016h-188z"/>
<glyph glyph-name="w" horiz-adv-x="1411" unicode="w" d="M141 1016h193l26 -705l-18 -86h20l19 86l342 705h184l63 -705l-20 -94h20l21 94l305 705h201l-473 -1016h-191l-69 713l16 86h-18l-19 -86l-348 -713h-197z"/>
<glyph glyph-name="x" horiz-adv-x="870" unicode="x" d="M143 0h-221l406 537l-173 479h205l111 -317l-8 -35h18l8 35l224 317h223l-377 -504q14 -37 68 -186q107 -260 141 -310h14l-2 -16h-211q-60 71 -86 156l-65 207l6 32h-19l-6 -32z"/>
<glyph glyph-name="y" horiz-adv-x="911" unicode="y" d="M136 1016h200l96 -807l-16 -72h19l16 72l342 807h209l-426 -938q-19 -41 -36 -78q-104 -221 -165 -297q-99 -123 -252 -123q-100 0 -180 54l37 131q47 -29 125 -29q49 0 80 20q62 41 162 244q9 18 18 37h-100z"/>
<glyph glyph-name="z" horiz-adv-x="831" unicode="z" d="M-23 -2v119l40 48l550 667l39 18l-8 12l-35 -12l-402 12l33 154h660v-119l-38 -46l-560 -679l-35 -14l8 -15l35 15l324 -15h11q76 0 140 37l-59 -182h-703z"/>
<glyph glyph-name="braceleft" horiz-adv-x="678" unicode="{" d="M551 -352h-205q-223 0 -223 144q0 31 8 67l129 543q7 27 7 54q0 65 -39 103q-31 30 -115 43l4 21q117 17 164 65q54 53 70 135l79 426l21 115q21 110 101 164q67 47 204 47h205l-6 -33l-78 -2q-131 -4 -196 -109q-35 -51 -64 -188l-96 -448q-20 -88 -69 -133 q-33 -30 -110 -43l-2 -15q109 -17 109 -120q0 -26 -6 -56l-94 -448q-19 -89 -19 -156q0 -131 152 -139l75 -4z"/>
<glyph glyph-name="bar" horiz-adv-x="608" unicode="|" d="M445 1511h178l-373 -1751h-178z"/>
<glyph glyph-name="braceright" horiz-adv-x="637" unicode="}" d="M205 1575h204q224 0 224 -144q0 -31 -9 -67l-129 -541q-5 -22 -5 -49q0 -73 38 -110q31 -30 115 -43l-4 -19q-118 -20 -164 -65q-54 -52 -70 -135l-77 -417l-23 -126q-21 -110 -101 -164q-67 -47 -204 -47h-205l6 33l78 4q137 9 196 107q35 52 64 188l96 448 q21 93 69 134q33 28 109 42l3 15q-111 17 -111 117q0 20 8 59l94 448q19 89 19 152q0 141 -152 145l-76 2z"/>
<glyph glyph-name="asciitilde" horiz-adv-x="1038" unicode="~" d="M231 518l-125 39q101 291 304 291q87 0 226 -115q70 -57 123 -57q48 0 78 33q33 35 74 127l119 -50q-118 -288 -298 -288q-98 0 -216 104q-80 70 -133 70q-82 0 -152 -154z"/>
<glyph glyph-name="nonbreakingspace" horiz-adv-x="518" unicode=" "/>
<glyph glyph-name="exclamdown" horiz-adv-x="623" unicode="¡" d="M280.17 -2.48438h-239.912l264.903 978.641h132.951zM420.119 1168.09q-65.9756 0 -104.962 36.9873q-30.9883 29.9883 -30.9883 79.9707q0 62.9766 50.9814 98.9639q43.9834 28.9893 99.9629 28.9893q53.9805 0 96.9648 -25.9912q46.9824 -27.9893 46.9824 -86.9678 q0 -62.9766 -44.9834 -96.9648q-46.9824 -34.9873 -113.958 -34.9873z"/>
<glyph glyph-name="cent" horiz-adv-x="995" unicode="¢" d="M512 -41h-119l59 281q-112 6 -190 73q-125 106 -125 323q0 184 82 349q106 215 285 287q67 27 174 35l30 137h119l-31 -145q77 -20 128 -55q71 -53 85 -83l-79 -133q-88 79 -172 90l-148 -692q103 17 229 115l27 -154q-44 -49 -152 -103q-34 -15 -143 -44zM639 1120 q-96 -4 -178 -106q-117 -145 -117 -373q0 -111 55 -172q35 -38 92 -43z"/>
<glyph glyph-name="sterling" d="M-51 47l33 156h6q91 0 151 31q80 43 127 149q11 30 41 164l11 41h-242l18 90h242l21 98h-240l18 88h240l10 47q38 173 62.5 242.5t66.5 121.5q122 150 342 150q196 0 312 -110l-76 -144q-96 78 -220 78q-128 0 -197 -97q-43 -59 -83 -249l-8 -39h428l-19 -88h-428 l-22 -98h428l-18 -90h-429l-10 -47q-29 -136 -57 -197q-32 -65 -100 -119l-66 -12l4 -18l62 10q95 -15 155 -29q134 -31 207 -31q182 0 295 95l-41 -193q-45 -35 -131 -57q-87 -23 -173 -23q-93 0 -235 39q-177 50 -334 50q-65 0 -151 -9z" unicode="£"/>
<glyph glyph-name="currency" horiz-adv-x="1528" unicode="¤" d="M1395 367l-53 -232q-233 -164 -515 -164q-209 0 -360 102q-101 69 -157 173q-58 106 -58 222q0 27 4 77h-217l61 94h160q9 62 25 121h-201l64 96h172q50 144 122 233q155 190 369 278q166 69 328 69q221 0 390 -116q53 -36 101 -103l-98 -146q-158 197 -420 197 q-241 0 -430 -178q-97 -92 -162 -234h885l-61 -96h-865q-15 -60 -26 -121h815l-62 -94h-764v-41q0 -135 78 -232q108 -133 330 -133q215 0 390 107q67 41 155 121z"/>
<glyph glyph-name="yen" horiz-adv-x="1120" unicode="¥" d="M350 0l78 371h-281l27 127h278l-24 98h-234l25 113h178l-195 702h224l167 -679l-8 -52h19l8 52l453 679h225l-488 -702h183l-25 -113h-238l-61 -98h279l-27 -127h-283l-77 -371h-203z"/>
<glyph glyph-name="brokenbar" horiz-adv-x="608" unicode="¦" d="M72 -240l164 772h180l-166 -772h-178zM445 1511h178l-164 -774h-180z"/>
<glyph glyph-name="section" horiz-adv-x="1036" unicode="§" d="M-131 -170l82 150q171 -199 400 -199q171 0 260 108q52 62 52 136q0 81 -75 124q-53 31 -244 89q-167 50 -232 131q-49 61 -49 152q0 196 189 308q-86 74 -86 202q0 158 131 274q136 120 372 120q277 0 417 -168l-84 -151q-51 61 -119 96q-108 55 -221 55 q-139 0 -221 -75q-62 -57 -62 -132q0 -79 83 -116q20 -9 226 -74q133 -42 177 -73q115 -82 115 -223q0 -202 -179 -333q76 -78 76 -194q0 -177 -150 -305q-147 -125 -377 -125q-317 0 -481 223zM666 328q114 91 114 193q0 76 -55 116q-26 19 -201 76q-97 27 -125 39 q-50 -29 -88 -78q-47 -61 -47 -131q0 -66 95 -109q43 -19 172 -59q62 -20 135 -47z"/>
<glyph glyph-name="dieresis" horiz-adv-x="776" unicode="¨" d="M218 1389q53 0 83 -31q25 -26 25 -64q0 -54 -41 -82q-37 -25 -85 -25q-57 0 -89 31q-27 26 -27 65q0 48 37 77q36 29 97 29zM584 1389q54 0 84 -31q25 -25 25 -62q0 -55 -41 -84q-36 -25 -86 -25q-43 0 -77 22q-40 24 -40 74q0 49 37 77q37 29 98 29z"/>
<glyph glyph-name="copyright" horiz-adv-x="1794" unicode="©" d="M945 1507q218 0 411 -119q169 -104 270 -268q119 -193 119 -424q0 -363 -266 -604q-232 -211 -547 -211q-227 0 -424 119q-172 103 -272 270q-117 194 -117 432q0 355 265 595q234 210 561 210zM921 1353q-273 0 -464 -215q-166 -188 -166 -442q0 -293 209 -488 q182 -171 430 -171q285 0 476 214q167 187 167 449q0 285 -210 482q-182 171 -442 171zM1215 428l63 -117q-136 -151 -337 -151q-171 0 -283 104q-160 149 -160 423q0 293 176 448q119 104 286 104q188 0 312 -149l-66 -129q-69 73 -117 97q-59 28 -119 28q-113 0 -181 -84 q-82 -101 -82 -299q0 -216 92 -319q62 -70 172 -70q71 0 135 32q40 21 109 82z"/>
<glyph glyph-name="ordfeminine" horiz-adv-x="612" unicode="ª" d="M239 718v91h423v-91h-423zM662 890h-108l-14 63h-6q-62 -70 -150 -70q-149 0 -149 158q0 172 205 172q39 0 98 -7v13q0 56 -24 74q-20 15 -64 15q-86 0 -158 -36l-27 88q106 52 212 52q144 0 172 -99q9 -33 9 -93v-266q0 -38 4 -64zM538 1121q-35 5 -75 5 q-106 0 -106 -75q0 -69 67 -69q65 0 114 54v85z"/>
<glyph glyph-name="guillemotleft" horiz-adv-x="856" unicode="«" d="M457 981l119 -39l-279 -355l123 -370l-106 -31l-222 393h-14l4 19h14zM811 981l119 -39l-279 -355l123 -370l-106 -31l-222 393h-14l4 19h14z"/>
<glyph glyph-name="logicalnot" horiz-adv-x="1038" unicode="¬" d="M115 600l31 150h860l-129 -437h-133l123 287h-752z"/>
<glyph glyph-name="sfthyphen" horiz-adv-x="553" unicode="­" d="M86 524l35 160h414l-33 -160h-416z"/>
<glyph glyph-name="registered" horiz-adv-x="838" unicode="®" d="M602 1652q143 0 241 -107q87 -96 87 -223q0 -147 -109 -246q-94 -85 -224 -85q-149 0 -246 107q-85 93 -85 226q0 146 107 243q93 85 229 85zM594 1586q-110 0 -188 -87q-66 -74 -66 -177q0 -119 83 -196q75 -69 175 -69q115 0 192 87q66 74 66 180q0 116 -84 193 q-74 69 -178 69zM479 1126v401h59h68q79 0 108 -24q35 -30 35 -89q0 -79 -77 -104l-9 4l-2 -4l8 -4l95 -176h4v-4h-105l-84 170h-12v-170h-88zM567 1355q90 0 90 55q0 33 -33 42q-14 4 -57 4v-101z"/>
<glyph glyph-name="macron" horiz-adv-x="770" unicode="¯" d="M655 1207h-571l31 147h571z"/>
<glyph glyph-name="degree" horiz-adv-x="688" unicode="°" d="M464 1450q131 0 222 -97q80 -86 80 -203q0 -134 -101 -223q-86 -77 -207 -77q-137 0 -225 97q-79 88 -79 205q0 128 100 221q83 77 210 77zM458 1309q-64 0 -112 -53q-40 -43 -40 -106q0 -71 50 -117q44 -40 104 -40q69 0 114 50q40 44 40 108q0 69 -50 116 q-46 42 -106 42z"/>
<glyph glyph-name="plusminus" horiz-adv-x="1036" unicode="±" d="M434 401l69 328h-319l29 135h319l68 320h157l-67 -320h309l-29 -135h-309l-70 -328h-157zM59 141l27 127h788l-29 -127h-786z"/>
<glyph glyph-name="twosuperior" horiz-adv-x="629" unicode="²" d="M-4 584v90q18 9 96 68q98 75 222 213q147 163 147 255q0 75 -72 75q-105 0 -205 -148l-75 102q10 16 20 31q44 66 132 114q65 36 143 36q210 0 210 -191q0 -141 -151 -311q-145 -163 -236 -207v-6l181 -4q88 3 110 12q5 2 21 8l20 8l-49 -145h-514z"/>
<glyph glyph-name="threesuperior" horiz-adv-x="614" unicode="³" d="M58 548l-33 127l16 -4q34 -9 68 -9q166 0 251 66q56 43 56 110q0 96 -140 96l-52 -1h-35h-14l24 119h10h29q122 0 184 52q60 50 60 117t-67 67q-86 0 -177 -65q-14 -10 -36 -34q-6 -7 -15 -16l-35 121l4 4q119 119 272 119q86 0 140 -45q57 -48 57 -137q0 -83 -62 -162 q-47 -60 -102 -68v-6q45 -4 74 -47q34 -49 34 -108q0 -119 -104 -206q-116 -98 -309 -98q-34 0 -57 4q-25 5 -35 5q-1 0 -6 -1z"/>
<glyph glyph-name="acute" horiz-adv-x="655" unicode="´" d="M217 1147h-133l195 295h292l-4 -19h-14z"/>
<glyph glyph-name="mu1" horiz-adv-x="1159" unicode="µ" d="M772 0l3 143l16 37h-10l-13 -28q-153 -158 -324 -158q-94 0 -149 65h-14l-66 -270l-43 -174l-231 -35q55 101 88 211q94 315 133 518l141 686l201 37l-8 -36l-133 -625q-15 -70 -15 -117q0 -105 124 -105q119 0 210 58q54 34 123 125l142 663l198 37l-8 -36l-172 -816 q-8 -40 -20 -180h-173z"/>
<glyph glyph-name="paragraph" horiz-adv-x="995" unicode="¶" d="M649 -29v355q-186 2 -299 69q-215 129 -215 422q0 291 209 431q115 76 305 86v143h123v-143q88 -11 170 -43l-22 -123q-76 19 -148 26v-733q70 10 145 31l25 -123q-86 -33 -170 -43v-355h-123zM649 1196q-68 -3 -133 -26v-684q64 -22 133 -23v733z"/>
<glyph glyph-name="periodcentered" horiz-adv-x="1038" unicode="·" d="M562 815q82 0 127 -43q37 -36 37 -90q0 -79 -60 -119q-54 -35 -124 -35q-79 0 -128 46q-37 34 -37 89q0 70 53 113q49 39 132 39z"/>
<glyph glyph-name="cedilla" horiz-adv-x="618" unicode="¸" d="M84 -397l63 92q74 -47 136 -47q109 0 109 97q0 60 -66 60q-79 0 -166 -49l-27 107q110 67 214 67q89 0 141 -51q47 -47 47 -122q0 -113 -86 -177q-66 -49 -158 -49q-120 0 -207 72z"/>
<glyph glyph-name="onesuperior" horiz-adv-x="516" unicode="¹" d="M381 584h-147l135 616l-252 -153l-37 102l365 258h118q-36 -140 -55 -227z"/>
<glyph glyph-name="ordmasculine" horiz-adv-x="611" unicode="º" d="M231 718v91h423v-91h-423zM446 1412q155 0 211 -138q23 -59 23 -129q0 -148 -93 -222q-58 -46 -148 -46q-154 0 -210 139q-24 58 -24 129q0 147 95 221q59 46 146 46zM440 1317q-107 0 -107 -173q0 -172 111 -172q107 0 107 172q0 130 -64 164q-19 9 -47 9z"/>
<glyph glyph-name="guillemotright" horiz-adv-x="856" unicode="»" d="M460 186l-117 41l279 352l-125 371l108 31l221 -394h15l-4 -16h-15zM109 186l-117 41l279 352l-125 371l108 31l221 -394h15l-4 -16h-15z"/>
<glyph glyph-name="onequarter" horiz-adv-x="1419" unicode="¼" d="M200 0h-170l4 14h12l1166 1393h166l-2 -14h-13zM381 584h-147l135 616l-252 -153l-37 102l365 258h118q-36 -140 -55 -227zM1151 0h-141l33 156h-305l-2 97l362 570h152l-355 -554h172l113 364h106l-77 -364h96l-23 -113h-98z"/>
<glyph glyph-name="onehalf" horiz-adv-x="1421" unicode="½" d="M381 584h-147l135 616l-252 -153l-37 102l365 258h118q-36 -140 -55 -227zM187 0h-170l4 14h12l1166 1393h166l-2 -14h-13zM760 5v90q18 9 96 68q98 75 222 213q147 163 147 255q0 75 -72 75q-105 0 -205 -148l-75 102q10 16 20 31q44 66 132 114q65 36 143 36 q210 0 210 -191q0 -141 -151 -311q-145 -163 -236 -207v-6l181 -4q88 3 110 12q5 2 21 8l20 8l-49 -145h-514z"/>
<glyph glyph-name="threequarters" horiz-adv-x="1522" unicode="¾" d="M294 0h-170l4 14h12l1166 1393h166l-2 -14h-13zM64 548l-33 127l16 -4q34 -9 68 -9q166 0 251 66q56 43 56 110q0 96 -140 96l-52 -1h-35h-14l24 119h10h29q122 0 184 52q60 50 60 117t-67 67q-86 0 -177 -65q-14 -10 -36 -34q-6 -7 -15 -16l-35 121l4 4q119 119 272 119 q86 0 140 -45q57 -48 57 -137q0 -83 -62 -162q-47 -60 -102 -68v-6q45 -4 74 -47q34 -49 34 -108q0 -119 -104 -206q-116 -98 -309 -98q-34 0 -57 4q-25 5 -35 5q-1 0 -6 -1zM1238 0h-141l33 156h-305l-2 97l362 570h152l-355 -554h172l113 364h106l-77 -364h96l-23 -113 h-98z"/>
<glyph glyph-name="questiondown" horiz-adv-x="797" unicode="¿" d="M587.122 284.411l38.9863 -155.943q-154.943 -142.947 -340.876 -142.947q-110.959 0 -187.931 67.9746q-81.9697 71.9736 -81.9697 199.927q0 109.96 91.9658 226.917q42.9844 54.9805 200.927 205.925q145.946 144.947 155.942 275.898h136.95 q9.99609 -25.9902 9.99609 -48.9814q0 -103.962 -67.9746 -206.925q-42.9844 -64.9756 -195.929 -229.915q-118.956 -127.953 -118.956 -209.923q0 -92.9668 111.959 -92.9668q108.96 0 246.909 110.96zM594.12 1170.09q-65.9766 0 -104.962 36.9873 q-30.9883 29.9883 -30.9883 79.9707q0 62.9766 50.9805 98.9639q43.9844 28.9893 99.9639 28.9893q53.9805 0 96.9648 -25.9912q46.9824 -27.9893 46.9824 -86.9678q0 -62.9766 -44.9834 -96.9648q-46.9824 -34.9873 -113.958 -34.9873z"/>
<glyph glyph-name="Agrave" horiz-adv-x="1161" unicode="À" d="M139 0h-231l768 1407h223l162 -1407h-211l-39 403h-463zM432 567h361l30 -20l5 12l-29 20l-60 576l17 80h-19l-18 -80l-291 -576l-37 -18l6 -10zM877 1491h-158l-178 189h-27v16h289z"/>
<glyph glyph-name="Aacute" horiz-adv-x="1161" unicode="Á" d="M139 0h-231l768 1407h223l162 -1407h-211l-39 403h-463zM432 567h361l30 -20l5 12l-29 20l-60 576l17 80h-19l-18 -80l-291 -576l-37 -18l6 -10zM852 1491h-170l174 205h303l-4 -18h-16z"/>
<glyph glyph-name="Acircumflex" horiz-adv-x="1161" unicode="Â" d="M139 0h-231l768 1407h223l162 -1407h-211l-39 403h-463zM432 567h361l30 -20l5 12l-29 20l-60 576l17 80h-19l-18 -80l-291 -576l-37 -18l6 -10zM674 1491h-158l4 14h15l295 256l196 -256h17l-2 -14h-162l-78 86z"/>
<glyph glyph-name="Atilde" horiz-adv-x="1161" unicode="Ã" d="M139 0h-231l768 1407h223l162 -1407h-211l-39 403h-463zM432 567h361l30 -20l5 12l-29 20l-60 576l17 80h-19l-18 -80l-291 -576l-37 -18l6 -10zM526 1495l-81 88q113 168 231 168q64 0 160 -74q50 -39 81 -39q71 0 144 117l82 -82q-36 -76 -108 -131q-66 -51 -120 -51 q-42 0 -83 22q-12 6 -78 58q-48 37 -87 37q-82 0 -141 -113z"/>
<glyph glyph-name="Adieresis" horiz-adv-x="1161" unicode="Ä" d="M139 0h-231l768 1407h223l162 -1407h-211l-39 403h-463zM432 567h361l30 -20l5 12l-29 20l-60 576l17 80h-19l-18 -80l-291 -576l-37 -18l6 -10zM596 1686q117 0 117 -95q0 -55 -43 -84q-38 -25 -86 -25q-57 0 -90 33q-27 27 -27 62q0 51 37 82q31 27 92 27zM1018 1686 q117 0 117 -95q0 -55 -43 -84q-38 -25 -86 -25q-57 0 -90 33q-27 27 -27 62q0 51 37 82q31 27 92 27z"/>
<glyph glyph-name="Aring" horiz-adv-x="1161" unicode="Å" d="M139 0h-231l768 1407h223l162 -1407h-211l-39 403h-463zM432 567h361l30 -20l5 12l-29 20l-60 576l17 80h-19l-18 -80l-291 -576l-37 -18l6 -10zM814 1808q222 0 222 -157q0 -93 -79 -142q-66 -41 -165 -41q-88 0 -150 33q-77 42 -77 123q0 94 81 143q67 41 168 41z M811 1706q-109 0 -109 -77q0 -61 90 -61q108 0 108 77q0 61 -89 61z"/>
<glyph glyph-name="AE" horiz-adv-x="1741" unicode="Æ" d="M110 0h-233l987 1407h989l-37 -170l-565 -10l-88 -418h512l-37 -176h-512l-96 -455l444 -14q107 5 127 8q27 5 76 29l-69 -201h-816l38 180l51 242h-478zM1063 1239h-103l-434 -637l-45 -16l4 -14l37 14h393z"/>
<glyph glyph-name="Ccedilla" d="M948 344l59 -145q-46 -64 -129 -119q-149 -98 -326 -98q-219 0 -337 129q-121 133 -121 378q0 216 82 420q100 252 295 396q163 120 354 120q260 0 385 -194l-98 -158q-37 65 -94 104q-91 62 -194 62q-211 0 -360 -229q-76 -118 -118 -277q-33 -127 -33 -240 q0 -141 55 -225q69 -104 215 -104q142 0 252 82q32 23 113 98zM231 -397l63 92q74 -47 136 -47q109 0 109 97q0 60 -66 60q-79 0 -166 -49l-27 107q110 67 214 67q89 0 141 -51q47 -47 47 -122q0 -113 -86 -177q-66 -49 -158 -49q-120 0 -207 72z" unicode="Ç"/>
<glyph glyph-name="Egrave" d="M72 0l39 183l221 1039l39 185h809l-37 -172l-604 -12l-88 -410h532l-39 -180h-530l-96 -449l428 -16q14 -1 30 -1q80 0 108.5 4.5t107.5 30.5l-76 -202h-844zM926 1491h-158l-178 189h-27v16h289z" unicode="È"/>
<glyph glyph-name="Eacute" d="M72 0l39 183l221 1039l39 185h809l-37 -172l-604 -12l-88 -410h532l-39 -180h-530l-96 -449l428 -16q14 -1 30 -1q80 0 108.5 4.5t107.5 30.5l-76 -202h-844zM811 1491h-170l174 205h303l-4 -18h-16z" unicode="É"/>
<glyph glyph-name="Ecircumflex" d="M72 0l39 183l221 1039l39 185h809l-37 -172l-604 -12l-88 -410h532l-39 -180h-530l-96 -449l428 -16q14 -1 30 -1q80 0 108.5 4.5t107.5 30.5l-76 -202h-844zM698 1491h-158l4 14h15l295 256l196 -256h17l-2 -14h-162l-78 86z" unicode="Ê"/>
<glyph glyph-name="Edieresis" d="M72 0l39 183l221 1039l39 185h809l-37 -172l-604 -12l-88 -410h532l-39 -180h-530l-96 -449l428 -16q14 -1 30 -1q80 0 108.5 4.5t107.5 30.5l-76 -202h-844zM623 1686q117 0 117 -95q0 -55 -43 -84q-38 -25 -86 -25q-57 0 -90 33q-27 27 -27 62q0 51 37 82q31 27 92 27z M1045 1686q117 0 117 -95q0 -55 -43 -84q-38 -25 -86 -25q-57 0 -90 33q-27 27 -27 62q0 51 37 82q31 27 92 27z" unicode="Ë"/>
<glyph glyph-name="Igrave" horiz-adv-x="582" unicode="Ì" d="M295 0h-213l299 1407h213zM612 1491h-158l-178 189h-27v16h289z"/>
<glyph glyph-name="Iacute" horiz-adv-x="580" unicode="Í" d="M295 0h-213l299 1407h213zM544 1491h-170l174 205h303l-4 -18h-16z"/>
<glyph glyph-name="Icircumflex" horiz-adv-x="582" unicode="Î" d="M295 0h-213l299 1407h213zM404 1491h-158l4 14h15l295 256l196 -256h17l-2 -14h-162l-78 86z"/>
<glyph glyph-name="Idieresis" horiz-adv-x="582" unicode="Ï" d="M295 0h-213l299 1407h213zM307 1686q117 0 117 -95q0 -55 -43 -84q-38 -25 -86 -25q-57 0 -90 33q-27 27 -27 62q0 51 37 82q31 27 92 27zM729 1686q117 0 117 -95q0 -55 -43 -84q-38 -25 -86 -25q-57 0 -90 33q-27 27 -27 62q0 51 37 82q31 27 92 27z"/>
<glyph glyph-name="Eth" horiz-adv-x="1329" unicode="Ð" d="M712 706h-571l31 147h571zM114 0l34 161l233 1091l32 150q235 7 359 7q186 0 279 -37q139 -55 211 -205q54 -114 54 -267q0 -293 -145 -538q-148 -248 -383 -319q-143 -43 -381 -43h-293zM360 159h40q280 0 432 114q132 98 205 291q62 166 62 338q0 274 -222 326 q-82 19 -247 19h-39z"/>
<glyph glyph-name="Ntilde" horiz-adv-x="1327" unicode="Ñ" d="M256 0h-205l299 1407h205l366 -1051l7 -94h18l-2 94l213 1051h203l-299 -1407h-211l-365 1051l-8 100h-18l6 -100zM620 1495l-81 88q113 168 231 168q64 0 160 -74q50 -39 81 -39q71 0 144 117l82 -82q-36 -76 -108 -131q-66 -51 -120 -51q-42 0 -83 22q-12 6 -78 58 q-48 37 -87 37q-82 0 -141 -113z"/>
<glyph glyph-name="Ograve" horiz-adv-x="1286" unicode="Ò" d="M869 1430q407 0 407 -481q0 -423 -236 -719q-204 -255 -505 -255q-218 0 -331 139q-106 132 -106 364q0 225 89 445q207 507 682 507zM826 1258q-121 0 -237 -93q-133 -108 -210 -338q-67 -199 -67 -384q0 -149 70 -230q54 -62 158 -62q160 0 290 133q136 141 195 390 q34 147 34 285q0 299 -233 299zM961 1491h-158l-178 189h-27v16h289z"/>
<glyph glyph-name="Oacute" horiz-adv-x="1286" unicode="Ó" d="M869 1430q407 0 407 -481q0 -423 -236 -719q-204 -255 -505 -255q-218 0 -331 139q-106 132 -106 364q0 225 89 445q207 507 682 507zM826 1258q-121 0 -237 -93q-133 -108 -210 -338q-67 -199 -67 -384q0 -149 70 -230q54 -62 158 -62q160 0 290 133q136 141 195 390 q34 147 34 285q0 299 -233 299zM906 1491h-170l174 205h303l-4 -18h-16z"/>
<glyph glyph-name="Ocircumflex" horiz-adv-x="1286" unicode="Ô" d="M869 1430q407 0 407 -481q0 -423 -236 -719q-204 -255 -505 -255q-218 0 -331 139q-106 132 -106 364q0 225 89 445q207 507 682 507zM826 1258q-121 0 -237 -93q-133 -108 -210 -338q-67 -199 -67 -384q0 -149 70 -230q54 -62 158 -62q160 0 290 133q136 141 195 390 q34 147 34 285q0 299 -233 299zM794 1491h-158l4 14h15l295 256l196 -256h17l-2 -14h-162l-78 86z"/>
<glyph glyph-name="Otilde" horiz-adv-x="1286" unicode="Õ" d="M869 1430q407 0 407 -481q0 -423 -236 -719q-204 -255 -505 -255q-218 0 -331 139q-106 132 -106 364q0 225 89 445q207 507 682 507zM826 1258q-121 0 -237 -93q-133 -108 -210 -338q-67 -199 -67 -384q0 -149 70 -230q54 -62 158 -62q160 0 290 133q136 141 195 390 q34 147 34 285q0 299 -233 299zM616 1495l-81 88q113 168 231 168q64 0 160 -74q50 -39 81 -39q71 0 144 117l82 -82q-36 -76 -108 -131q-66 -51 -120 -51q-42 0 -83 22q-12 6 -78 58q-48 37 -87 37q-82 0 -141 -113z"/>
<glyph glyph-name="Odieresis" horiz-adv-x="1286" unicode="Ö" d="M869 1430q407 0 407 -481q0 -423 -236 -719q-204 -255 -505 -255q-218 0 -331 139q-106 132 -106 364q0 225 89 445q207 507 682 507zM826 1258q-121 0 -237 -93q-133 -108 -210 -338q-67 -199 -67 -384q0 -149 70 -230q54 -62 158 -62q160 0 290 133q136 141 195 390 q34 147 34 285q0 299 -233 299zM695 1686q117 0 117 -95q0 -55 -43 -84q-38 -25 -86 -25q-57 0 -90 33q-27 27 -27 62q0 51 37 82q31 27 92 27zM1117 1686q117 0 117 -95q0 -55 -43 -84q-38 -25 -86 -25q-57 0 -90 33q-27 27 -27 62q0 51 37 82q31 27 92 27z"/>
<glyph glyph-name="multiply" horiz-adv-x="1038" unicode="×" d="M239 248l-147 71l369 349l-211 317l153 76l178 -291l283 291l150 -74l-349 -328l228 -333l-150 -76l-198 309z"/>
<glyph glyph-name="Oslash" horiz-adv-x="1286" unicode="Ø" d="M58 -37l-97 76l183 189q-44 126 -44 256q0 178 59 361q62 193 169 324q210 258 530 258q191 0 298 -123l124 128l98 -71l-158 -162q52 -135 52 -281q0 -366 -211 -655q-207 -284 -531 -284q-206 0 -321 143zM1015 1153q-21 45 -65 74q-49 33 -116 33q-259 0 -416 -325 q-71 -146 -97 -313q-17 -108 -17 -176v-44l-14 -44l19 -5l15 49zM346 267q30 -60 72 -87q56 -36 135 -36q225 0 379 288q80 150 111 317q21 114 21 194q0 22 -4 74l13 43l-19 6l-15 -49z"/>
<glyph glyph-name="Ugrave" horiz-adv-x="1286" unicode="Ù" d="M344 1407h213l-192 -903q-28 -130 -28 -195q0 -162 219 -162q174 0 267 89q62 60 99 233l198 938h209l-200 -940q-35 -161 -74 -235q-134 -255 -513 -255q-419 0 -419 318q0 74 20 170zM965 1491h-158l-178 189h-27v16h289z"/>
<glyph glyph-name="Uacute" horiz-adv-x="1286" unicode="Ú" d="M344 1407h213l-192 -903q-28 -130 -28 -195q0 -162 219 -162q174 0 267 89q62 60 99 233l198 938h209l-200 -940q-35 -161 -74 -235q-134 -255 -513 -255q-419 0 -419 318q0 74 20 170zM898 1491h-170l174 205h303l-4 -18h-16z"/>
<glyph glyph-name="Ucircumflex" horiz-adv-x="1286" unicode="Û" d="M344 1407h213l-192 -903q-28 -130 -28 -195q0 -162 219 -162q174 0 267 89q62 60 99 233l198 938h209l-200 -940q-35 -161 -74 -235q-134 -255 -513 -255q-419 0 -419 318q0 74 20 170zM746 1491h-158l4 14h15l295 256l196 -256h17l-2 -14h-162l-78 86z"/>
<glyph glyph-name="Udieresis" horiz-adv-x="1286" unicode="Ü" d="M344 1407h213l-192 -903q-28 -130 -28 -195q0 -162 219 -162q174 0 267 89q62 60 99 233l198 938h209l-200 -940q-35 -161 -74 -235q-134 -255 -513 -255q-419 0 -419 318q0 74 20 170zM676 1686q117 0 117 -95q0 -55 -43 -84q-38 -25 -86 -25q-57 0 -90 33 q-27 27 -27 62q0 51 37 82q31 27 92 27zM1098 1686q117 0 117 -95q0 -55 -43 -84q-38 -25 -86 -25q-57 0 -90 33q-27 27 -27 62q0 51 37 82q31 27 92 27z"/>
<glyph glyph-name="Yacute" horiz-adv-x="991" unicode="Ý" d="M489 0h-211l109 512l-250 895h219l172 -674l-14 -63h20l15 63l448 674h232l-633 -907zM727 1491h-170l174 205h303l-4 -18h-16z"/>
<glyph glyph-name="Thorn" horiz-adv-x="1163" unicode="Þ" d="M281 0h-213l299 1407h213l-41 -199q69 4 145 4q203 0 287 -30q182 -65 182 -301q0 -183 -92 -326t-262 -186q-114 -29 -301 -29h-143zM390 504h43q276 0 368 64q137 95 137 303q0 135 -160 163q-51 9 -274 9z"/>
<glyph glyph-name="germandbls" horiz-adv-x="1112" unicode="ß" d="M258 0h-188q40 50 76 233l117 619h-127l30 143h121l19 88q15 73 39 130q31 73 76 118q118 117 368 117q301 0 301 -240q0 -136 -91 -214q-55 -49 -185 -107q-44 -20 -44 -48t101 -144q138 -159 138 -324q0 -148 -96 -258q-104 -119 -271 -119q-139 0 -220 84l54 135 q71 -51 147 -51q92 0 144 71q41 56 41 128q0 74 -46 151q-24 40 -106 146q-78 99 -78 158q0 54 25 87q23 29 106 70q114 56 145 90q46 52 46 119q0 114 -139 114q-136 0 -200 -86q-50 -68 -83 -250l-132 -704q-21 -130 -88 -256z"/>
<glyph glyph-name="agrave" d="M668 0l6 113l10 30l-14 9l-12 -39q-58 -53 -88 -72q-98 -61 -226 -61q-134 0 -210 119q-64 99 -64 251q0 283 154 492q143 194 352 194q101 0 166 -47q42 -31 82 -102l4 -43l16 4l-4 39l27 129h186l-166 -723q-35 -153 -35 -245q0 -25 11 -48h-195zM779 676 q-42 184 -199 184q-132 0 -218 -150q-38 -66 -65 -175q-26 -103 -26 -181q0 -200 140 -200q111 0 204 80q7 6 90 88zM738 1147h-106l-228 276h-18l4 19h270z" unicode="à"/>
<glyph glyph-name="aacute" d="M668 0l6 113l10 30l-14 9l-12 -39q-58 -53 -88 -72q-98 -61 -226 -61q-134 0 -210 119q-64 99 -64 251q0 283 154 492q143 194 352 194q101 0 166 -47q42 -31 82 -102l4 -43l16 4l-4 39l27 129h186l-166 -723q-35 -153 -35 -245q0 -25 11 -48h-195zM779 676 q-42 184 -199 184q-132 0 -218 -150q-38 -66 -65 -175q-26 -103 -26 -181q0 -200 140 -200q111 0 204 80q7 6 90 88zM663 1147h-133l195 295h292l-4 -19h-14z" unicode="á"/>
<glyph glyph-name="acircumflex" d="M668 0l6 113l10 30l-14 9l-12 -39q-58 -53 -88 -72q-98 -61 -226 -61q-134 0 -210 119q-64 99 -64 251q0 283 154 492q143 194 352 194q101 0 166 -47q42 -31 82 -102l4 -43l16 4l-4 39l27 129h186l-166 -723q-35 -153 -35 -245q0 -25 11 -48h-195zM779 676 q-42 184 -199 184q-132 0 -218 -150q-38 -66 -65 -175q-26 -103 -26 -181q0 -200 140 -200q111 0 204 80q7 6 90 88zM658 1270l-156 -123h-143l4 14h10l322 332l194 -332h15l-4 -14h-140z" unicode="â"/>
<glyph glyph-name="atilde" d="M668 0l6 113l10 30l-14 9l-12 -39q-58 -53 -88 -72q-98 -61 -226 -61q-134 0 -210 119q-64 99 -64 251q0 283 154 492q143 194 352 194q101 0 166 -47q42 -31 82 -102l4 -43l16 4l-4 39l27 129h186l-166 -723q-35 -153 -35 -245q0 -25 11 -48h-195zM779 676 q-42 184 -199 184q-132 0 -218 -150q-38 -66 -65 -175q-26 -103 -26 -181q0 -200 140 -200q111 0 204 80q7 6 90 88zM391 1180l-84 92q129 184 243 184q66 0 169 -84q50 -41 90 -41q67 0 147 123l86 -88q-41 -86 -112 -144q-68 -55 -124 -55q-65 0 -173 89q-51 41 -92 41 q-86 0 -150 -117z" unicode="ã"/>
<glyph glyph-name="adieresis" d="M668 0l6 113l10 30l-14 9l-12 -39q-58 -53 -88 -72q-98 -61 -226 -61q-134 0 -210 119q-64 99 -64 251q0 283 154 492q143 194 352 194q101 0 166 -47q42 -31 82 -102l4 -43l16 4l-4 39l27 129h186l-166 -723q-35 -153 -35 -245q0 -25 11 -48h-195zM779 676 q-42 184 -199 184q-132 0 -218 -150q-38 -66 -65 -175q-26 -103 -26 -181q0 -200 140 -200q111 0 204 80q7 6 90 88zM515 1389q53 0 83 -31q25 -26 25 -64q0 -54 -41 -82q-37 -25 -85 -25q-57 0 -89 31q-27 26 -27 65q0 48 37 77q36 29 97 29zM881 1389q54 0 84 -31 q25 -25 25 -62q0 -55 -41 -84q-36 -25 -86 -25q-43 0 -77 22q-40 24 -40 74q0 49 37 77q37 29 98 29z" unicode="ä"/>
<glyph glyph-name="aring" d="M668 0l6 113l10 30l-14 9l-12 -39q-58 -53 -88 -72q-98 -61 -226 -61q-134 0 -210 119q-64 99 -64 251q0 283 154 492q143 194 352 194q101 0 166 -47q42 -31 82 -102l4 -43l16 4l-4 39l27 129h186l-166 -723q-35 -153 -35 -245q0 -25 11 -48h-195zM779 676 q-42 184 -199 184q-132 0 -218 -150q-38 -66 -65 -175q-26 -103 -26 -181q0 -200 140 -200q111 0 204 80q7 6 90 88zM672 1502q133 0 190 -80q29 -42 29 -98q0 -73 -42 -127q-64 -82 -202 -82q-133 0 -193 75q-35 43 -35 101q0 105 76 161q67 50 177 50zM662 1387 q-106 0 -106 -88q0 -70 90 -70q107 0 107 86q0 72 -91 72z" unicode="å"/>
<glyph glyph-name="ae" horiz-adv-x="1493" unicode="æ" d="M1317 266l10 -152q-52 -53 -116 -83q-111 -51 -218 -51q-200 0 -294 149l6 28h-19l-6 -28q-205 -149 -406 -149q-241 0 -241 238q0 119 53 222q65 125 219 157q88 19 201 19h174q22 91 22 131q0 115 -118 115q-165 0 -332 -109l-12 158q196 127 385 127q182 0 227 -115 l-8 -28h18l7 28q109 115 293 115q150 0 237 -84q78 -76 78 -223q0 -166 -53 -269h-590q-9 -51 -9 -90q0 -218 200 -218q144 0 292 112zM649 462h-131q-159 0 -219 -47q-72 -56 -72 -175q0 -97 107 -97q74 0 197 57q68 32 112 74q-4 39 -4 91q0 33 10 97zM1280 616 q13 39 13 87q0 177 -146 177q-133 0 -212 -105q-55 -71 -66 -159h411z"/>
<glyph glyph-name="ccedilla" horiz-adv-x="829" unicode="ç" d="M709 254l8 -162q-146 -115 -316 -115q-166 0 -253 109q-78 97 -78 270q0 294 158 501q140 183 359 183q116 0 204 -57q55 -36 86 -90l-68 -166q-92 137 -224 137q-138 0 -228 -158q-35 -60 -59 -157q-25 -100 -25 -182q0 -212 185 -212q65 0 153 39q60 27 98 60z M106 -397l63 92q74 -47 136 -47q109 0 109 97q0 60 -66 60q-79 0 -166 -49l-27 107q110 67 214 67q89 0 141 -51q47 -47 47 -122q0 -113 -86 -177q-66 -49 -158 -49q-120 0 -207 72z"/>
<glyph glyph-name="egrave" horiz-adv-x="956" unicode="è" d="M772 270l10 -158q-42 -48 -121 -84q-113 -51 -229 -51q-206 0 -303 141q-68 99 -68 255q0 141 53 286q76 210 236 310q114 71 262 71q166 0 247 -92q74 -84 74 -227q0 -142 -53 -257h-618q-8 -51 -8 -91q0 -83 34 -138q52 -84 173 -84q168 0 311 119zM735 618 q12 56 12 99q0 170 -167 170q-129 0 -215 -115q-46 -62 -71 -154h441zM687 1147h-106l-228 276h-18l4 19h270z"/>
<glyph glyph-name="eacute" horiz-adv-x="956" unicode="é" d="M772 270l10 -158q-42 -48 -121 -84q-113 -51 -229 -51q-206 0 -303 141q-68 99 -68 255q0 141 53 286q76 210 236 310q114 71 262 71q166 0 247 -92q74 -84 74 -227q0 -142 -53 -257h-618q-8 -51 -8 -91q0 -83 34 -138q52 -84 173 -84q168 0 311 119zM735 618 q12 56 12 99q0 170 -167 170q-129 0 -215 -115q-46 -62 -71 -154h441zM611 1147h-133l195 295h292l-4 -19h-14z"/>
<glyph glyph-name="ecircumflex" horiz-adv-x="956" unicode="ê" d="M772 270l10 -158q-42 -48 -121 -84q-113 -51 -229 -51q-206 0 -303 141q-68 99 -68 255q0 141 53 286q76 210 236 310q114 71 262 71q166 0 247 -92q74 -84 74 -227q0 -142 -53 -257h-618q-8 -51 -8 -91q0 -83 34 -138q52 -84 173 -84q168 0 311 119zM735 618 q12 56 12 99q0 170 -167 170q-129 0 -215 -115q-46 -62 -71 -154h441zM650 1270l-156 -123h-143l4 14h10l322 332l194 -332h15l-4 -14h-140z"/>
<glyph glyph-name="edieresis" horiz-adv-x="956" unicode="ë" d="M772 270l10 -158q-42 -48 -121 -84q-113 -51 -229 -51q-206 0 -303 141q-68 99 -68 255q0 141 53 286q76 210 236 310q114 71 262 71q166 0 247 -92q74 -84 74 -227q0 -142 -53 -257h-618q-8 -51 -8 -91q0 -83 34 -138q52 -84 173 -84q168 0 311 119zM735 618 q12 56 12 99q0 170 -167 170q-129 0 -215 -115q-46 -62 -71 -154h441zM502 1389q53 0 83 -31q25 -26 25 -64q0 -54 -41 -82q-37 -25 -85 -25q-57 0 -89 31q-27 26 -27 65q0 48 37 77q36 29 97 29zM868 1389q54 0 84 -31q25 -25 25 -62q0 -55 -41 -84q-36 -25 -86 -25 q-43 0 -77 22q-40 24 -40 74q0 49 37 77q37 29 98 29z"/>
<glyph glyph-name="igrave" horiz-adv-x="498" unicode="ì" d="M463 1032l-6 -27l-213 -1005h-195l213 1001zM487 1147h-106l-228 276h-18l4 19h270z"/>
<glyph glyph-name="iacute" horiz-adv-x="498" unicode="í" d="M463 1032l-6 -27l-213 -1005h-195l213 1001zM363 1147h-133l195 295h292l-4 -19h-14z"/>
<glyph glyph-name="icircumflex" horiz-adv-x="498" unicode="î" d="M463 1032l-6 -27l-213 -1005h-195l213 1001zM398 1270l-156 -123h-143l4 14h10l322 332l194 -332h15l-4 -14h-140z"/>
<glyph glyph-name="idieresis" horiz-adv-x="498" unicode="ï" d="M463 1032l-6 -27l-213 -1005h-195l213 1001zM248 1389q53 0 83 -31q25 -26 25 -64q0 -54 -41 -82q-37 -25 -85 -25q-57 0 -89 31q-27 26 -27 65q0 48 37 77q36 29 97 29zM614 1389q54 0 84 -31q25 -25 25 -62q0 -55 -41 -84q-36 -25 -86 -25q-43 0 -77 22q-40 24 -40 74 q0 49 37 77q37 29 98 29z"/>
<glyph glyph-name="eth" horiz-adv-x="995" unicode="ð" d="M565 1039l2 6l-113 133h-245l20 98h170l-117 151l213 43l127 -184h258l-22 -102h-174l131 -166q127 -161 127 -357q0 -308 -173 -506q-158 -180 -386 -180q-157 0 -244 107q-84 104 -84 280q0 219 107 402q146 250 403 275zM600 877q-176 0 -270 -211q-77 -171 -77 -338 q0 -191 141 -191q167 0 263 186q33 66 58 163q28 104 28 171q0 220 -143 220z"/>
<glyph glyph-name="ntilde" horiz-adv-x="1079" unicode="ñ" d="M240 0h-195l211 993l199 33l-7 -34l-20 -91l-27 -43l17 -8l18 31q59 53 139 94q125 63 217 63q101 0 163 -59q61 -60 61 -162q0 -52 -27 -162l-100 -407q-38 -177 -38 -211q0 -18 13 -37h-196q-5 57 -5 74q0 70 31 196l103 414q16 66 16 91q0 81 -102 81 q-139 0 -324 -160zM416 1180l-84 92q129 184 243 184q66 0 169 -84q50 -41 90 -41q67 0 147 123l86 -88q-41 -86 -112 -144q-68 -55 -124 -55q-65 0 -173 89q-51 41 -92 41q-86 0 -150 -117z"/>
<glyph glyph-name="ograve" horiz-adv-x="995" unicode="ò" d="M617 1042q325 0 325 -384q0 -305 -173 -503q-158 -180 -386 -180q-157 0 -244 107q-84 104 -84 281q0 295 177 499q156 180 385 180zM597 876q-173 0 -267 -211q-77 -170 -77 -337q0 -191 141 -191q191 0 286 238q64 161 64 306q0 195 -147 195zM674 1147h-106l-228 276 h-18l4 19h270z"/>
<glyph glyph-name="oacute" horiz-adv-x="997" unicode="ó" d="M617 1042q325 0 325 -384q0 -305 -173 -503q-158 -180 -386 -180q-157 0 -244 107q-84 104 -84 281q0 295 177 499q156 180 385 180zM597 876q-173 0 -267 -211q-77 -170 -77 -337q0 -191 141 -191q191 0 286 238q64 161 64 306q0 195 -147 195zM615 1147h-133l195 295 h292l-4 -19h-14z"/>
<glyph glyph-name="ocircumflex" horiz-adv-x="995" unicode="ô" d="M617 1042q325 0 325 -384q0 -305 -173 -503q-158 -180 -386 -180q-157 0 -244 107q-84 104 -84 281q0 295 177 499q156 180 385 180zM597 876q-173 0 -267 -211q-77 -170 -77 -337q0 -191 141 -191q191 0 286 238q64 161 64 306q0 195 -147 195zM653 1270l-156 -123h-143 l4 14h10l322 332l194 -332h15l-4 -14h-140z"/>
<glyph glyph-name="otilde" horiz-adv-x="997" unicode="õ" d="M617 1042q325 0 325 -384q0 -305 -173 -503q-158 -180 -386 -180q-157 0 -244 107q-84 104 -84 281q0 295 177 499q156 180 385 180zM597 876q-173 0 -267 -211q-77 -170 -77 -337q0 -191 141 -191q191 0 286 238q64 161 64 306q0 195 -147 195zM342 1180l-84 92 q129 184 243 184q66 0 169 -84q50 -41 90 -41q67 0 147 123l86 -88q-41 -86 -112 -144q-68 -55 -124 -55q-65 0 -173 89q-51 41 -92 41q-86 0 -150 -117z"/>
<glyph glyph-name="odieresis" horiz-adv-x="995" unicode="ö" d="M617 1042q325 0 325 -384q0 -305 -173 -503q-158 -180 -386 -180q-157 0 -244 107q-84 104 -84 281q0 295 177 499q156 180 385 180zM597 876q-173 0 -267 -211q-77 -170 -77 -337q0 -191 141 -191q191 0 286 238q64 161 64 306q0 195 -147 195zM495 1389q53 0 83 -31 q25 -26 25 -64q0 -54 -41 -82q-37 -25 -85 -25q-57 0 -89 31q-27 26 -27 65q0 48 37 77q36 29 97 29zM861 1389q54 0 84 -31q25 -25 25 -62q0 -55 -41 -84q-36 -25 -86 -25q-43 0 -77 22q-40 24 -40 74q0 49 37 77q37 29 98 29z"/>
<glyph glyph-name="divide" horiz-adv-x="1036" unicode="÷" d="M498 397q59 0 88 -31q25 -25 25 -58q0 -63 -38 -99q-44 -41 -119 -41q-115 0 -115 92q0 60 38 95q45 42 121 42zM659 1157q55 0 87 -31q26 -26 26 -60q0 -62 -40 -97q-46 -42 -123 -42q-109 0 -109 92q0 61 38 97q44 41 121 41zM115 596l31 145h850l-31 -145h-850z"/>
<glyph glyph-name="oslash" horiz-adv-x="1037" unicode="ø" d="M66 -37l-93 69l139 135q-36 81 -36 205q0 220 113 404q162 264 443 264q77 0 137 -23q38 -15 87 -54l93 101l102 -64l-132 -131q43 -119 43 -223q0 -217 -112 -403q-161 -266 -438 -266q-151 0 -242 97zM730 831q-29 54 -126 54q-159 0 -258 -202q-84 -171 -84 -333 l-17 -38l17 -6l14 34zM291 201q37 -70 138 -70q75 0 144 48q109 75 169 285q31 108 31 192q0 12 -2 37l16 40l-18 3l-13 -33z"/>
<glyph glyph-name="ugrave" horiz-adv-x="1036" unicode="ù" d="M631 0v117l14 33l-16 8l-16 -41q-155 -137 -311 -137q-103 0 -162 65q-58 64 -58 178q0 59 27 185l127 593l200 31l-6 -29l-125 -583q-24 -114 -24 -162q0 -100 95 -100q92 0 198 78q57 42 92 100l141 665l203 31l-7 -31l-155 -704q-35 -159 -35 -256q0 -26 10 -41h-192z M749 1147h-106l-228 276h-18l4 19h270z"/>
<glyph glyph-name="uacute" horiz-adv-x="1036" unicode="ú" d="M631 0v117l14 33l-16 8l-16 -41q-155 -137 -311 -137q-103 0 -162 65q-58 64 -58 178q0 59 27 185l127 593l200 31l-6 -29l-125 -583q-24 -114 -24 -162q0 -100 95 -100q92 0 198 78q57 42 92 100l141 665l203 31l-7 -31l-155 -704q-35 -159 -35 -256q0 -26 10 -41h-192z M676 1147h-133l195 295h292l-4 -19h-14z"/>
<glyph glyph-name="ucircumflex" horiz-adv-x="1036" unicode="û" d="M631 0v117l14 33l-16 8l-16 -41q-155 -137 -311 -137q-103 0 -162 65q-58 64 -58 178q0 59 27 185l127 593l200 31l-6 -29l-125 -583q-24 -114 -24 -162q0 -100 95 -100q92 0 198 78q57 42 92 100l141 665l203 31l-7 -31l-155 -704q-35 -159 -35 -256q0 -26 10 -41h-192z M672 1270l-156 -123h-143l4 14h10l322 332l194 -332h15l-4 -14h-140z"/>
<glyph glyph-name="udieresis" horiz-adv-x="1036" unicode="ü" d="M631 0v117l14 33l-16 8l-16 -41q-155 -137 -311 -137q-103 0 -162 65q-58 64 -58 178q0 59 27 185l127 593l200 31l-6 -29l-125 -583q-24 -114 -24 -162q0 -100 95 -100q92 0 198 78q57 42 92 100l141 665l203 31l-7 -31l-155 -704q-35 -159 -35 -256q0 -26 10 -41h-192z M496 1389q53 0 83 -31q25 -26 25 -64q0 -54 -41 -82q-37 -25 -85 -25q-57 0 -89 31q-27 26 -27 65q0 48 37 77q36 29 97 29zM862 1389q54 0 84 -31q25 -25 25 -62q0 -55 -41 -84q-36 -25 -86 -25q-43 0 -77 22q-40 24 -40 74q0 49 37 77q37 29 98 29z"/>
<glyph glyph-name="yacute" horiz-adv-x="911" unicode="ý" d="M136 1016h200l96 -807l-16 -72h19l16 72l342 807h209l-426 -938q-19 -41 -36 -78q-104 -221 -165 -297q-99 -123 -252 -123q-100 0 -180 54l37 131q47 -29 125 -29q49 0 80 20q62 41 162 244q9 18 18 37h-100zM602 1147h-133l195 295h292l-4 -19h-14z"/>
<glyph glyph-name="thorn" d="M152 -416h-193l397 1856l195 37l-7 -31l-120 -547l-14 -39l10 -6l18 35q151 149 315 149q144 0 214 -131q53 -100 53 -239q0 -144 -52 -296q-67 -194 -203 -300q-117 -92 -245 -92q-145 0 -239 116l-5 41l-16 -2l2 -39zM305 291q76 -139 202 -139q134 0 218 153 q38 69 64 171q26 104 26 184q0 93 -25 143q-30 59 -112 59q-147 0 -291 -180z" unicode="þ"/>
<glyph glyph-name="Amacron" horiz-adv-x="1161" unicode="Ā" d="M1095 1505h-571l31 147h571zM139 0h-231l768 1407h223l162 -1407h-211l-39 403h-463zM432 567h361l30 -20l5 12l-29 20l-60 576l17 80h-19l-18 -80l-291 -576l-37 -18l6 -10z"/>
<glyph glyph-name="amacron" d="M1025 1204h-571l31 147h571zM668 0l6 113l10 30l-14 9l-12 -39q-58 -53 -88 -72q-98 -61 -226 -61q-134 0 -210 119q-64 99 -64 251q0 283 154 492q143 194 352 194q101 0 166 -47q42 -31 82 -102l4 -43l16 4l-4 39l27 129h186l-166 -723q-35 -153 -35 -245q0 -25 11 -48 h-195zM779 676q-42 184 -199 184q-132 0 -218 -150q-38 -66 -65 -175q-26 -103 -26 -181q0 -200 140 -200q111 0 204 80q7 6 90 88z" unicode="ā"/>
<glyph glyph-name="Emacron" d="M1095 1505h-571l31 147h571zM72 0l39 183l221 1039l39 185h809l-37 -172l-604 -12l-88 -410h532l-39 -180h-530l-96 -449l428 -16q14 -1 30 -1q80 0 108.5 4.5t107.5 30.5l-76 -202h-844z" unicode="Ē"/>
<glyph glyph-name="emacron" horiz-adv-x="956" unicode="ē" d="M935 1204h-571l31 147h571zM772 270l10 -158q-42 -48 -121 -84q-113 -51 -229 -51q-206 0 -303 141q-68 99 -68 255q0 141 53 286q76 210 236 310q114 71 262 71q166 0 247 -92q74 -84 74 -227q0 -142 -53 -257h-618q-8 -51 -8 -91q0 -83 34 -138q52 -84 173 -84 q168 0 311 119zM735 618q12 56 12 99q0 170 -167 170q-129 0 -215 -115q-46 -62 -71 -154h441z"/>
<glyph glyph-name="Imacron" horiz-adv-x="582" unicode="Ī" d="M795 1505h-571l31 147h571zM295 0h-213l299 1407h213z"/>
<glyph glyph-name="imacron" horiz-adv-x="500" unicode="ī" d="M678 1204h-571l31 147h571zM463 1032l-6 -27l-213 -1005h-195l213 1001z"/>
<glyph glyph-name="dotlessi" horiz-adv-x="500" unicode="ı" d="M463 1032l-6 -27l-213 -1005h-195l213 1001z"/>
<glyph glyph-name="Omacron" horiz-adv-x="1286" unicode="Ō" d="M1195 1505h-571l31 147h571zM869 1430q407 0 407 -481q0 -423 -236 -719q-204 -255 -505 -255q-218 0 -331 139q-106 132 -106 364q0 225 89 445q207 507 682 507zM826 1258q-121 0 -237 -93q-133 -108 -210 -338q-67 -199 -67 -384q0 -149 70 -230q54 -62 158 -62 q160 0 290 133q136 141 195 390q34 147 34 285q0 299 -233 299z"/>
<glyph glyph-name="omacron" horiz-adv-x="995" unicode="ō" d="M937 1204h-571l31 147h571zM617 1042q325 0 325 -384q0 -305 -173 -503q-158 -180 -386 -180q-157 0 -244 107q-84 104 -84 281q0 295 177 499q156 180 385 180zM597 876q-173 0 -267 -211q-77 -170 -77 -337q0 -191 141 -191q191 0 286 238q64 161 64 306 q0 195 -147 195z"/>
<glyph glyph-name="OE" horiz-adv-x="1743" unicode="Œ" d="M1642 637h-506l-81 -387l-13 -60l432 -16q26 -1 47 -1q80 0 142 30l-60 -193h-628q-147 -2 -252 -14q-79 -9 -144 -9q-236 0 -358 135q-129 144 -129 393q0 193 83 402q199 503 706 503q70 0 137 -9q91 -12 264 -12h573l-37 -172l-559 -10l-13 -61l-73 -345h506zM850 250 l194 913q4 18 4 30q0 67 -142 67q-227 0 -370 -146q-123 -127 -185 -333q-44 -149 -44 -285q0 -166 82 -259q85 -96 250 -96q113 0 164 27q33 17 47 82z"/>
<glyph glyph-name="oe" horiz-adv-x="1536" unicode="œ" d="M1366 270l4 -164q-50 -46 -123 -79q-105 -47 -207 -47q-130 0 -223 69q-48 36 -76 96l6 33h-16l-8 -33q-149 -165 -340 -165q-170 0 -254 121q-76 108 -76 268q0 134 57 290q68 189 210 290q126 89 287 89q190 0 257 -145l-6 -29h18l6 29q44 55 127 96q101 49 205 49 q162 0 244 -96q68 -81 68 -204q0 -164 -56 -280h-590q-12 -45 -12 -80q0 -87 37 -146q49 -78 162 -78q156 0 299 116zM580 876q-99 0 -175 -80q-94 -98 -135 -295q-18 -82 -18 -154q0 -207 146 -207q172 0 263 235q65 168 65 308q0 103 -36 150q-34 43 -110 43zM1329 614 q10 52 10 93q0 171 -152 171q-116 0 -199 -103q-55 -67 -75 -161h416z"/>
<glyph glyph-name="Scaron" horiz-adv-x="1038" unicode="Š" d="M27 160l78 168q129 -158 341 -158q151 0 230 91q61 70 61 168q0 75 -60 123q-28 24 -205 103q-139 62 -195 131q-70 86 -70 214q0 193 139 312q132 113 343 113q221 0 374 -151l-71 -178q-141 145 -317 145q-134 0 -204 -71q-58 -60 -58 -147q0 -68 58 -115 q40 -33 213 -103q145 -59 209 -142q62 -79 62 -199q0 -220 -158 -357q-145 -126 -358 -126q-252 0 -412 179zM848 1741h157l-2 -16h-16l-293 -254l-198 254h-17l4 16h162l76 -94z"/>
<glyph glyph-name="scaron" horiz-adv-x="831" unicode="š" d="M18 127l39 180q38 -62 92 -98q98 -66 200 -66q104 0 159 59q36 40 36 101q0 59 -40 90q-34 26 -140 65q-104 40 -138 66q-92 72 -92 200q0 132 92 218q104 98 293 98q103 0 197 -45q66 -31 97 -75l-37 -183q-88 139 -265 139q-186 0 -186 -136q0 -54 41 -81 q23 -15 158 -68q124 -48 168 -104q49 -62 49 -149q0 -147 -93 -246q-107 -115 -292 -115q-122 0 -234 62q-69 38 -104 88zM700 1450h144l-4 -14h-11l-321 -332l-195 332h-14l4 14h139l101 -129z"/>
<glyph glyph-name="Umacron" horiz-adv-x="1286" unicode="Ū" d="M1149 1505h-571l31 147h571zM344 1407h213l-192 -903q-28 -130 -28 -195q0 -162 219 -162q174 0 267 89q62 60 99 233l198 938h209l-200 -940q-35 -161 -74 -235q-134 -255 -513 -255q-419 0 -419 318q0 74 20 170z"/>
<glyph glyph-name="umacron" horiz-adv-x="1036" unicode="ū" d="M946 1204h-571l31 147h571zM631 0v117l14 33l-16 8l-16 -41q-155 -137 -311 -137q-103 0 -162 65q-58 64 -58 178q0 59 27 185l127 593l200 31l-6 -29l-125 -583q-24 -114 -24 -162q0 -100 95 -100q92 0 198 78q57 42 92 100l141 665l203 31l-7 -31l-155 -704 q-35 -159 -35 -256q0 -26 10 -41h-192z"/>
<glyph glyph-name="Ydieresis" horiz-adv-x="987" unicode="Ÿ" d="M489 0h-211l109 512l-250 895h219l172 -674l-14 -63h20l15 63l448 674h232l-633 -907zM506 1686q117 0 117 -95q0 -55 -43 -84q-38 -25 -86 -25q-57 0 -90 33q-27 27 -27 62q0 51 37 82q31 27 92 27zM928 1686q117 0 117 -95q0 -55 -43 -84q-38 -25 -86 -25q-57 0 -90 33 q-27 27 -27 62q0 51 37 82q31 27 92 27z"/>
<glyph glyph-name="Ymacron" horiz-adv-x="987" unicode="Ȳ" d="M964 1505h-571l31 147h571zM489 0h-211l109 512l-250 895h219l172 -674l-14 -63h20l15 63l448 674h232l-633 -907z"/>
<glyph glyph-name="ymacron" horiz-adv-x="911" unicode="ȳ" d="M916 1204h-571l31 147h571zM136 1016h200l96 -807l-16 -72h19l16 72l342 807h209l-426 -938q-19 -41 -36 -78q-104 -221 -165 -297q-99 -123 -252 -123q-100 0 -180 54l37 131q47 -29 125 -29q49 0 80 20q62 41 162 244q9 18 18 37h-100z"/>
<glyph glyph-name="circumflex" horiz-adv-x="713" unicode="ˆ" d="M383 1270l-156 -123h-143l4 14h10l322 332l194 -332h15l-4 -14h-140z"/>
<glyph glyph-name="caron" horiz-adv-x="713" unicode="ˇ" d="M485 1450h144l-4 -14h-11l-321 -332l-195 332h-14l4 14h139l101 -129z"/>
<glyph glyph-name="ring" horiz-adv-x="639" unicode="˚" d="M337 1502q133 0 190 -80q29 -42 29 -98q0 -73 -42 -127q-64 -82 -202 -82q-133 0 -193 75q-35 43 -35 101q0 105 76 161q67 50 177 50zM327 1387q-106 0 -106 -88q0 -70 90 -70q107 0 107 86q0 72 -91 72z"/>
<glyph glyph-name="tilde" horiz-adv-x="903" unicode="˜" d="M168 1180l-84 92q129 184 243 184q66 0 169 -84q50 -41 90 -41q67 0 147 123l86 -88q-41 -86 -112 -144q-68 -55 -124 -55q-65 0 -173 89q-51 41 -92 41q-86 0 -150 -117z"/>
<glyph glyph-name="Upsilon" horiz-adv-x="1059" unicode="Υ" d="M530 0h-207l111 522l-252 885h219l172 -688h12l459 688h217l-620 -885z"/>
<glyph glyph-name="alpha" horiz-adv-x="1266" unicode="α" d="M756 776q-38 128 -151 128q-155 0 -247 -192q-83 -173 -83 -362q0 -250 159 -250q95 0 189 103q60 66 108 143q78 124 78 134q0 116 -53 296zM1192 1006h175l-427 -568l43 -151q27 -79 46 -103q27 -21 55 -21q8 0 17 2q182 80 235 110l-53 -177q-121 -98 -214 -98 q-59 0 -82 17q-51 25 -88 114l-54 133l-10 25q-117 -159 -179 -216q-111 -100 -268 -100q-178 0 -255 137q-59 107 -59 267q0 282 182 488q149 168 376 168q149 0 210 -97q49 -78 66 -304l29 44z"/>
<glyph glyph-name="beta" horiz-adv-x="1141" unicode="β" d="M278 135l90 86q38 -46 69 -66q56 -38 148 -38q119 0 183 70q86 94 86 234q0 228 -334 304l31 139q366 35 366 298q0 143 -148 143q-144 0 -220 -107q-41 -58 -68 -142q-15 -48 -47 -196zM162 -420h-193l287 1352q58 273 209 391q133 105 323 105q132 0 217 -56 q103 -66 103 -194q0 -162 -134 -263q-106 -79 -266 -106l-4 -18q167 -49 252 -141q93 -101 93 -226q0 -136 -79 -254q-124 -184 -388 -184q-197 0 -308 127z"/>
<glyph glyph-name="pi" horiz-adv-x="1237" unicode="π" d="M191 0l192 905q-136 -20 -254 -168l-8 174q134 161 406 161q21 0 43 -3l425 -59q20 -3 39 -3q174 0 277 146l49 -147q-104 -112 -229 -140l-185 -866h-194l182 858l-358 35l-191 -893h-194z"/>
<glyph glyph-name="endash" horiz-adv-x="1038" unicode="–" d="M104 590l35 160h850l-35 -160h-850z"/>
<glyph glyph-name="emdash" horiz-adv-x="1618" unicode="—" d="M61 586l35 168h1505l-35 -168h-1505z"/>
<glyph glyph-name="quoteleft" horiz-adv-x="365" unicode="‘" d="M352 948h-188v69l225 453h117z"/>
<glyph glyph-name="quoteright" horiz-adv-x="350" unicode="’" d="M318 1456h188v-72l-225 -450h-117z"/>
<glyph glyph-name="quotesinglbase" horiz-adv-x="401" unicode="‚" d="M87 217h195v-70l-238 -475h-118z"/>
<glyph glyph-name="quotedblleft" horiz-adv-x="678" unicode="“" d="M349 948h-188v69l225 453h117zM671 948h-188v69l225 453h117z"/>
<glyph glyph-name="quotedblright" horiz-adv-x="672" unicode="”" d="M317 1456h188v-72l-225 -450h-117zM636 1456h188v-72l-225 -450h-117z"/>
<glyph glyph-name="quotedblbase" horiz-adv-x="665" unicode="„" d="M87 222h188v-72l-225 -450h-117zM406 222h188v-72l-225 -450h-117z"/>
<glyph glyph-name="dagger" horiz-adv-x="870" unicode="†" d="M430 0h-188l184 866h-315l35 160h315l80 381h188l-81 -381h317l-35 -160h-315z"/>
<glyph glyph-name="daggerdbl" horiz-adv-x="952" unicode="‡" d="M487 899h-322l35 160h322l76 352h180l-76 -352h322l-33 -160h-324l-69 -331h321l-33 -158h-323l-86 -410h-180l86 410h-322l35 158h321z"/>
<glyph glyph-name="ellipsis" horiz-adv-x="2277" unicode="…" d="M392 236q69 0 107 -37q31 -30 31 -76q0 -56 -33 -91q-43 -45 -120 -45q-148 0 -148 119q0 57 45 95q42 35 118 35zM1150 236q69 0 109 -37q31 -30 31 -75q0 -58 -33 -92q-43 -45 -122 -45q-58 0 -98 26q-48 31 -48 88q0 63 45 100q43 35 116 35zM1910 236q140 0 140 -118 q0 -67 -51 -102q-44 -29 -104 -29q-56 0 -99 26q-47 28 -47 89q0 62 45 99q43 35 116 35z"/>
<glyph glyph-name="perthousand" horiz-adv-x="2281" unicode="‰" d="M284 0h-186l4 14h12l1164 1393h186l-4 -14h-12zM1223 770q131 0 198 -78q61 -71 61 -184q0 -127 -47 -250q-52 -136 -152 -208q-99 -70 -225 -70q-160 0 -229 102q-49 73 -49 176q0 109 46 227q110 285 397 285zM1192 639q-84 0 -147 -113q-75 -133 -75 -289 q0 -128 100 -128q92 0 150 118q70 143 70 291q0 121 -98 121zM528 1427q132 0 197 -76q59 -70 59 -179q0 -120 -46 -241q-50 -133 -148 -203q-97 -69 -220 -69q-148 0 -219 102q-47 68 -47 171q0 212 123 357q117 138 301 138zM502 1300q-81 0 -142 -110q-72 -131 -72 -281 q0 -123 95 -123q89 0 148 113q25 51 46 139t21 147q0 115 -96 115zM2160 692q62 -71 62 -184q0 -127 -47 -250q-52 -137 -153 -208q-99 -70 -225 -70q-160 0 -229 102q-49 73 -49 174q0 110 45 229q54 146 174 224q95 61 225 61t197 -78zM1932 639q-101 0 -167 -152 q-56 -130 -56 -254t100 -124q93 0 151 118q70 143 70 291q0 121 -98 121z"/>
<glyph glyph-name="guilsinglleft" horiz-adv-x="555" unicode="‹" d="M461 981l119 -39l-279 -355l123 -370l-106 -31l-222 393h-14l4 19h14z"/>
<glyph glyph-name="guilsinglright" horiz-adv-x="553" unicode="›" d="M146 186l-117 41l279 352l-125 371l108 31l221 -394h15l-4 -16h-15z"/>
<glyph glyph-name="fraction" horiz-adv-x="291" unicode="⁄" d="M-328 0h-170l4 14h12l1166 1393h166l-2 -14h-13z"/>
<glyph glyph-name="Euro" horiz-adv-x="1528" unicode="€" d="M1395 367l-53 -232q-233 -164 -515 -164q-209 0 -360 102q-101 69 -157 173q-58 106 -58 222q0 27 4 77h-217l61 94h160q9 62 25 121h-201l64 96h172q50 144 122 233q155 190 369 278q166 69 328 69q221 0 390 -116q53 -36 101 -103l-98 -146q-158 197 -420 197 q-241 0 -430 -178q-97 -92 -162 -234h885l-61 -96h-865q-15 -60 -26 -121h815l-62 -94h-764v-41q0 -135 78 -232q108 -133 330 -133q215 0 390 107q67 41 155 121z"/>
<glyph glyph-name="trademark" horiz-adv-x="924" unicode="™" d="M320 1092v356l-109 2v76h315v-76l-104 -2v-356h-102zM547 1092l43 434h119l69 -256l6 -24l2 -33h11l2 33l6 24l70 256h120l35 -434h-98l-14 260v22l2 29h-13l-4 -29l-6 -22l-72 -260h-79l-68 262l-6 20l-4 29h-13l2 -29v-20l-18 -262h-92z"/>
<glyph glyph-name="arrowdblright" horiz-adv-x="1036" unicode="⇒" d="M565 293l356 383l-198 354l90 49l299 -409h8l-2 -11h-8l-459 -411zM18 475l27 123h649l-25 -123h-651zM73 735l27 123h649l-24 -123h-652z"/>
<glyph glyph-name="partialdiff" horiz-adv-x="1032" unicode="∂" d="M586 1476l-17 -69q-3 -14 -3 -29q0 -61 46 -100l203 -172q62 -53 110 -160q46 -103 46 -229q0 -182 -62 -354q-137 -386 -489 -386q-137 0 -196 41q-141 98 -141 310q0 174 72 335q134 299 455 301l-30 -147q-129 -5 -197 -129q-58 -103 -84 -263q-11 -71 -11 -135 q0 -167 151 -167q150 0 232 171q89 189 89 404q0 197 -111 295l-225 199q-42 36 -68 96q-10 21 -10 40q0 34 23 105z"/>
<glyph glyph-name="product" horiz-adv-x="1350" unicode="∏" d="M381 0h-219l266 1249l-186 14l31 148h1202l-31 -148l-192 -14l-267 -1249h-219l268 1259h-385z"/>
<glyph glyph-name="summation" horiz-adv-x="1147" unicode="∑" d="M25 0l39 183l563 521h21v15h-21l-338 491l41 197h934l-72 -342h-123l23 190l-565 2l-33 7l-8 -15l31 -14l335 -496h21v-12h-21l-579 -559l-31 -10l4 -14l35 6h578l67 204h123l-76 -354h-948z"/>
<glyph glyph-name="radical" horiz-adv-x="981" unicode="√" d="M1020 1651h1042l-25 -121h-907l-668 -1890h-215l5 960h-193l23 102l364 58l-5 -160l-17 -620l-15 -68h19l14 68z"/>
<glyph glyph-name="infinity" horiz-adv-x="1038" unicode="∞" d="M590 815q108 175 257 175q91 0 146 -64q49 -58 49 -151q0 -143 -60 -273q-80 -177 -260 -177q-122 0 -173 86q-21 35 -39 119q-45 -73 -84 -117q-80 -90 -187 -90q-91 0 -141 68q-47 65 -47 161q0 187 99 320q86 117 228 117q158 0 212 -174zM477 614q2 11 2 14 q0 29 -26 103q-27 72 -114 72q-89 0 -134 -69q-37 -57 -37 -131q0 -116 112 -116q61 0 125 51q68 54 72 76zM616 698q-1 -9 -1 -12q0 -21 17 -76q24 -78 72 -92q28 -8 58 -8q71 0 112 48q51 61 51 154q0 113 -109 113q-69 0 -130 -49q-18 -15 -43.5 -43t-26.5 -35z"/>
<glyph glyph-name="approxequal" horiz-adv-x="1036" unicode="≈" d="M149 369l-45 118q109 148 262 148q60 0 121 -23q28 -11 117 -59q68 -37 116 -37q54 0 99 23q41 20 94 90l29 -127q-115 -134 -234 -134q-48 0 -119 20q-33 9 -133 63q-72 39 -125 39q-87 0 -182 -121zM223 706l-43 119q114 147 260 147q86 0 239 -81q73 -39 120 -39 q96 0 190 114l28 -127q-106 -133 -249 -133q-55 0 -113 21q-14 5 -135 67q-65 33 -113 33q-55 0 -108 -43q-26 -21 -76 -78z"/>
<glyph glyph-name="uni224C" horiz-adv-x="1036" unicode="≌" d="M45 291l27 123h841l-26 -123h-842zM100 551l27 129l842 -6l-27 -123h-842zM264 790l-117 37q61 150 133 209q68 56 174 56q55 0 102 -23q37 -19 128 -83q77 -53 122 -53q91 0 169 177l110 -45q-39 -113 -98 -177q-82 -88 -183 -88q-117 0 -239 97q-81 64 -132 64 q-90 0 -169 -171z"/>
<glyph glyph-name="notequal" horiz-adv-x="1038" unicode="≠" d="M483 592l33 155h-355l29 127h352l68 318h137l-67 -318h354l-27 -127h-354l-33 -155h354l-28 -127h-352l-72 -332h-135l69 332h-354l27 127h354z"/>
<glyph glyph-name="lessequal" horiz-adv-x="1038" unicode="≤" d="M890 422h-782l29 131h782zM841 190h-782l27 129h784zM233 1012l819 286l-6 -149l-627 -203h-26l-4 -18h26l543 -185l-53 -145l-699 289z"/>
<glyph glyph-name="greaterequal" horiz-adv-x="1036" unicode="≥" d="M894 422h-782l29 131h782zM845 190h-782l27 129h784zM993 887l-819 -289l6 150l626 202h29l4 21h-28l-543 182l55 145l696 -286z"/>
<glyph glyph-name="lozenge" horiz-adv-x="885" unicode="◊" d="M905 715l-561 -785h-27l-233 768l561 779h27zM397 272l303 443l-112 407l-303 -432z"/>
<glyph glyph-name="NULL" horiz-adv-x="0"/>
<glyph glyph-name="ymacron.001" horiz-adv-x="518"/>
<glyph glyph-name="space.001" horiz-adv-x="0"/>
<glyph glyph-name="arrowdblright.001" horiz-adv-x="0"/>
</font>
</defs>
</svg>
