<?xml version="1.0" encoding="UTF-8" standalone="no"?>
<!DOCTYPE svg  PUBLIC '-//W3C//DTD SVG 1.1//EN'  'http://www.w3.org/Graphics/SVG/1.1/DTD/svg11.dtd'>
<svg xmlns="http://www.w3.org/2000/svg">
<defs>
<font id="PoloHintKrftg-Regular" horiz-adv-x="1038">
<font-face underline-position="-143" font-weight="400" descent="-410" panose-1="2 0 0 0 0 0 0 0 0 0" units-per-em="2048" unicode-range="U+0020-25CA" bbox="-307 -457 2511 1809" x-height="1022" underline-thickness="125" font-family="PoloHintKrftg" ascent="1638" cap-height="1411"/>
<missing-glyph horiz-adv-x="2048"/>
<glyph glyph-name=".notdef" horiz-adv-x="2048"/>
<glyph glyph-name=".null" horiz-adv-x="0"/>
<glyph glyph-name="nonmarkingreturn" horiz-adv-x="2048"/>
<glyph glyph-name="space" horiz-adv-x="518" unicode=" "/>
<glyph glyph-name="exclam" horiz-adv-x="635" unicode="!" d="M387 266q81 0 124 -46q33 -36 33 -90q0 -62 -42 -99q-44 -39 -117 -39q-85 0 -126 49q-34 41 -34 93q0 58 44 96q42 36 118 36zM301 457l-66 954h299l-69 -954h-164z"/>
<glyph glyph-name="quotedbl" horiz-adv-x="684" unicode='&quot;' d="M651 1411l-51 -518h-135l-47 518h233zM327 1411l-51 -518h-135l-47 518h233z"/>
<glyph glyph-name="numbersign" horiz-adv-x="1104" unicode="#" d="M457 560h176l23 222h-174zM263 0l39 367h-193l20 201h193l23 208h-193l20 201h193l37 344h143l-37 -344h164l35 344h143l-34 -344h190l-20 -201h-193l-22 -208h192l-20 -201h-193l-39 -367h-143l39 367h-162l-39 -367h-143z"/>
<glyph glyph-name="dollar" horiz-adv-x="1122" unicode="$" d="M457 1203h-14q-117 -37 -117 -158q0 -105 117 -156h14v314zM627 1207q-32 9 -50 9q-13 0 -30 -1v-363l18 -6l43 -14l19 -6v381zM717 207h14q30 8 56 31q70 60 70 142q0 120 -126 169h-14v-342zM547 193h14h41h25v399q-54 14 -80 18v-417zM457 211v436q-356 110 -356 376 q0 206 188 311q88 49 168 55v170h90v-158h21h22h37v158h90v-170q76 -16 131 -32q75 -23 197 -93l-92 -201q-153 107 -236 115v-387q147 -44 224 -101q143 -106 143 -285q0 -153 -99 -265q-91 -102 -268 -132v-201h-90v197q-35 -4 -80 -4v-193h-90v197q-210 22 -387 143 l104 197q149 -127 283 -133z"/>
<glyph glyph-name="percent" horiz-adv-x="1577" unicode="%" d="M264 0l899 1411h168l-899 -1411h-168zM386 1287q-45 0 -75 -51q-39 -66 -39 -187t39 -187q31 -53 76 -53q49 0 77 53q39 74 39 185q0 116 -39 189q-27 51 -78 51zM406 1434q136 0 219 -96q91 -106 91 -285q0 -207 -120 -312q-87 -75 -212 -75q-143 0 -232 95 q-93 100 -93 285q0 208 123 311q92 77 224 77zM1205 618q-48 0 -77 -53q-41 -75 -41 -193q0 -117 41 -192q29 -53 79 -53q49 0 79 53q39 70 39 191q0 127 -39 194q-31 53 -81 53zM1221 770q142 0 230 -99q93 -104 93 -290q0 -219 -122 -325q-88 -76 -218 -76q-149 0 -240 97 q-96 104 -96 293q0 213 126 322q91 78 227 78z"/>
<glyph glyph-name="ampersand" horiz-adv-x="1159" unicode="&amp;" d="M526 784q170 103 170 221q0 54 -43 89q-38 31 -106 31q-61 0 -101 -27q-55 -37 -55 -98q0 -59 57 -130q16 -20 51 -57zM420 543q-135 -76 -135 -194q0 -166 180 -166q99 0 215 108q-130 123 -260 252zM1165 164l-149 -187l-195 183q-97 -85 -163 -120q-109 -58 -249 -58 q-143 0 -231 63q-135 98 -135 277q0 130 92 225q55 56 166 119q-75 79 -106 131q-50 83 -50 178q0 171 141 262q114 74 274 74q150 0 244 -66q107 -74 107 -216q0 -220 -268 -361q104 -105 215 -211q78 87 162 176l143 -125q-80 -95 -166 -182z"/>
<glyph glyph-name="quotesingle" horiz-adv-x="360" unicode="&apos;" d="M327 1411l-47 -518h-139l-47 518h233z"/>
<glyph glyph-name="parenleft" horiz-adv-x="657" unicode="(" d="M645 -219l-104 -78q-461 367 -461 890q0 522 461 890l104 -80q-101 -122 -149 -201q-170 -274 -170 -609q0 -339 170 -609q37 -60 149 -203z"/>
<glyph glyph-name="parenright" horiz-adv-x="659" unicode=")" d="M37 1403l104 80q461 -367 461 -890t-461 -890l-104 78q113 144 149 203q170 273 170 609q0 333 -170 609q-47 77 -149 201z"/>
<glyph glyph-name="asterisk" horiz-adv-x="694" unicode="*" d="M641 1206l-105 -198l-141 198q34 23 47 62zM518 1520l157 -160l-233 -72q-11 39 -49 60zM378 1352q-16 2 -28 2q-19 0 -45 -25l-123 168l200 105zM294 1237l-194 -63l-37 219l231 -76q-10 -27 -10 -40t10 -40zM378 995l-217 35l143 196q28 -25 54 -25q7 0 20 1v-207z"/>
<glyph glyph-name="plus" horiz-adv-x="1036" unicode="+" d="M434 213v373h-328v178h328v354h209v-354h321v-178h-321v-373h-209z"/>
<glyph glyph-name="comma" horiz-adv-x="481" unicode="," d="M174 256h244v-94l-246 -459h-137z"/>
<glyph glyph-name="hyphen" horiz-adv-x="588" unicode="-" d="M63 536v207h489v-207h-489z"/>
<glyph glyph-name="period" horiz-adv-x="481" unicode="." d="M261 281q87 0 131 -52q36 -43 36 -97q0 -63 -46 -104q-46 -42 -126 -42q-86 0 -133 52q-35 40 -35 95q0 62 47 107q42 41 126 41z"/>
<glyph glyph-name="slash" horiz-adv-x="793" unicode="/" d="M43 -281l522 1751h193l-525 -1751h-190z"/>
<glyph glyph-name="zero" d="M536 1202q-74 0 -108 -63q-74 -137 -74 -442q0 -283 67 -426q35 -74 115 -74q81 0 115 76q65 147 65 419q0 317 -76 451q-33 59 -104 59zM552 1407q177 0 273 -129q147 -199 147 -589q0 -378 -158 -576q-94 -119 -270 -119q-187 0 -286 125q-160 201 -160 572 q0 382 153 576q111 140 301 140z" unicode="0"/>
<glyph glyph-name="one" horiz-adv-x="872" unicode="1" d="M715 0h-252v831q0 147 4 201l4 29l14 31l-14 4l-16 -23l-33 -26l-322 -185l-67 156l510 381h180l-4 -125q-4 -109 -4 -273v-1001z"/>
<glyph glyph-name="two" horiz-adv-x="1036" unicode="2" d="M975 0h-891v166q584 491 584 813q0 191 -162 191q-173 0 -277 -185l-143 135q172 287 469 287q166 0 262 -92q113 -109 113 -309q0 -244 -179 -479q-30 -40 -150 -165q-72 -74 -93 -90l-51 -36l-33 -17l6 -12l35 6h41l469 -8v-205z"/>
<glyph glyph-name="three" d="M170 8l-50 199q111 -14 191 -14q381 0 381 229q0 201 -292 201q-65 0 -171 -9v213q54 -2 82 -2q354 0 354 213q0 146 -164 146q-157 0 -338 -111l-67 184q233 150 470 150q141 0 224 -57q127 -88 127 -266q0 -212 -217 -308l-37 -16l-35 -4v-15h41l39 -10q81 -26 119 -51 q127 -85 127 -257q0 -201 -170 -323q-150 -106 -438 -106q-105 0 -176 14z" unicode="3"/>
<glyph glyph-name="four" horiz-adv-x="1036" unicode="4" d="M854 0h-250v313h-530v157l391 929h266l-379 -857l-18 -25l-27 -16l13 -10l30 10l27 2h233l80 572h164v-572h144v-190h-144v-313z"/>
<glyph glyph-name="five" d="M190 8l-51 205q101 -17 166 -17q165 0 275 54q120 58 120 215q0 181 -209 181q-173 0 -344 -62l59 815h707v-211l-481 -12l-27 -340q115 16 186 16q157 0 246 -66q127 -93 127 -307q0 -277 -223 -403q-146 -83 -378 -83q-84 0 -173 15z" unicode="5"/>
<glyph glyph-name="six" d="M373 561q-7 -13 -7 -27q0 -38 20 -140q41 -205 192 -205q77 0 121 59q45 61 45 162q0 225 -178 225q-76 0 -138 -35q-49 -28 -55 -39zM873 1413l47 -182q-233 -61 -367 -169q-74 -63 -113 -140q-19 -36 -46 -113l-17 -45l-20 -35l12 -4l23 25l36 26q97 70 226 70 q135 0 221 -80q117 -108 117 -315q0 -215 -119 -344q-103 -113 -301 -113q-145 0 -234 60q-112 75 -171 219q-54 133 -54 303q0 382 252 610q137 124 316 183q69 23 192 44z" unicode="6"/>
<glyph glyph-name="seven" horiz-adv-x="963" unicode="7" d="M433 0h-283l496 1124l20 29l21 23l-7 12l-28 -10l-35 -4l-547 12v213h889v-166z"/>
<glyph glyph-name="eight" horiz-adv-x="1036" unicode="8" d="M563 829q80 56 107 97q34 51 34 121q0 176 -160 176q-69 0 -110 -35q-55 -47 -55 -134q0 -82 67 -145q31 -28 68 -51q48 -29 49 -29zM354 504q-31 -57 -31 -124q0 -98 66 -153q53 -45 140 -45q64 0 109 31q78 53 78 161q0 66 -39 109q-45 50 -110 90q-87 54 -90 54 q-56 0 -123 -123zM368 715l-24 2l-25 8q-38 13 -100 84q-88 101 -88 234q0 185 141 284q113 80 277 80q154 0 251 -72q127 -93 127 -262q0 -135 -92 -231q-60 -62 -94 -76l-31 -12l-30 -2v-15l30 -2l29 -12q51 -22 129 -92q102 -92 102 -248q0 -183 -133 -293 q-117 -96 -312 -96q-164 0 -267 68q-160 103 -160 298q0 142 84 232q66 70 125 94l31 12l30 4v13z"/>
<glyph glyph-name="nine" d="M717 887q5 26 5 34q0 82 -56 199q-40 84 -144 84q-62 0 -106 -31q-80 -56 -80 -188q0 -105 61 -159q40 -35 110 -35q85 0 138 32q17 10 43.5 34t28.5 30zM233 -14l-51 188q220 55 363 191q130 130 157 292l9 29l12 37l-15 4l-14 -31l-22 -28q-99 -80 -238 -80 q-130 0 -213 70q-131 110 -131 310q0 192 127 318q122 121 317 121q175 0 281 -102q158 -153 158 -467q0 -336 -184 -562q-189 -230 -556 -290z" unicode="9"/>
<glyph glyph-name="colon" horiz-adv-x="553" unicode=":" d="M321 1010q84 0 126 -48q33 -37 33 -93q0 -64 -43 -101q-43 -39 -118 -39q-88 0 -129 49q-34 41 -34 95q0 60 43 100q41 37 122 37zM321 281q80 0 126 -49q33 -35 33 -92q0 -63 -42 -101q-44 -39 -119 -39q-88 0 -129 49q-34 41 -34 95q0 61 44 98q45 39 121 39z"/>
<glyph glyph-name="semicolon" horiz-adv-x="518" unicode=";" d="M329 817q76 0 116 -45q30 -34 30 -84q0 -58 -39 -93q-41 -36 -109 -36q-78 0 -118 45q-31 35 -31 86q0 56 39 91q40 36 112 36zM207 258h225v-82l-244 -469h-135z"/>
<glyph glyph-name="less" horiz-adv-x="1036" unicode="&lt;" d="M948 279l-844 325v139l844 326l12 -180l-606 -203h-57v-24h57l606 -203z"/>
<glyph glyph-name="equal" d="M106 743v154h860v-154h-860zM106 452v154h860v-154h-860z" unicode="="/>
<glyph glyph-name="greater" horiz-adv-x="1036" unicode="&gt;" d="M131 1069l844 -326v-139l-844 -325l-12 180l608 203h56v24h-56l-608 203z"/>
<glyph glyph-name="question" horiz-adv-x="831" unicode="?" d="M411 266q80 0 124 -46q33 -36 33 -90q0 -61 -43 -99q-43 -39 -116 -39q-85 0 -127 49q-34 41 -34 93q0 58 44 96q42 36 119 36zM334 457q-16 67 -16 111q0 116 88 242q104 147 125 187.5t21 92.5q0 107 -119 107q-96 0 -218 -101l-61 192q181 140 369 140q117 0 199 -66 q94 -75 94 -224q0 -116 -61 -221q-31 -53 -115 -149q-90 -102 -111 -155q-31 -70 -31 -133v-7v-16h-164z"/>
<glyph glyph-name="at" horiz-adv-x="1837" unicode="@" d="M1006 828q-163 0 -246 -126q-32 -49 -57 -143q-23 -85 -23 -138q0 -116 62 -116q111 0 260 211q106 150 106 269q0 43 -102 43zM1337 889l-100 -486q-25 -120 -25 -167q0 -72 56 -72q95 0 182 102q107 125 107 323q0 251 -158 407q-161 159 -429 159q-309 0 -495 -210 q-162 -183 -162 -464q0 -305 189 -485q169 -162 449 -162q187 0 351 74q123 55 242 178l90 -145q-80 -94 -145 -135q-252 -156 -545 -156q-426 0 -646 255q-206 240 -206 576q0 402 277 646q242 215 610 215q347 0 568 -194q229 -200 229 -530q0 -322 -265 -502 q-154 -104 -330 -104q-97 0 -139 53q-34 43 -34 102q0 21 18 111q14 72 27 97l-21 8q-168 -272 -351 -272q-103 0 -157 78q-51 73 -51 193q0 279 173 455q163 167 397 167q120 0 206 -51q32 -19 88 -64z"/>
<glyph glyph-name="A" horiz-adv-x="1231" unicode="A" d="M471 594l-31 -28l15 -13l30 27h273l35 -27l14 13l-33 30l-129 457l-10 69v62h-25v-62l-12 -69zM43 0l438 1411h307l431 -1411h-279l-109 375h-413l-103 -375h-272z"/>
<glyph glyph-name="B" horiz-adv-x="1243" unicode="B" d="M438 817h94q149 0 226 39q88 44 88 168q0 135 -135 171q-52 13 -273 13v-391zM438 201h80q207 0 295 47q84 45 84 161q0 125 -88 172q-72 39 -269 39h-102v-419zM180 0v1409q279 4 421 4q262 0 364 -59q60 -36 98 -101q49 -85 49 -186q0 -157 -98 -246q-43 -39 -101 -64 q-33 -14 -49 -14h-27v-18h27q85 0 180 -64q123 -82 123 -269q0 -273 -248 -355q-110 -37 -465 -37h-274z"/>
<glyph glyph-name="C" horiz-adv-x="1073" unicode="C" d="M987 346l92 -176q-169 -188 -419 -188q-245 0 -394 155q-184 193 -184 546q0 378 205 584q158 160 398 160t396 -184l-94 -192q-78 81 -131 107q-71 36 -157 36q-159 0 -243 -121q-94 -137 -94 -384q0 -474 331 -474q105 0 180 43q42 24 114 88z"/>
<glyph glyph-name="D" horiz-adv-x="1296" unicode="D" d="M448 207q216 4 310 50q207 99 207 446q0 435 -281 485q-68 12 -236 12v-993zM184 0v1409q310 4 354 4q208 0 313 -30q184 -52 296 -256q92 -168 92 -411q0 -429 -283 -616q-107 -71 -244 -89q-78 -11 -276 -11h-252z"/>
<glyph glyph-name="E" horiz-adv-x="1079" unicode="E" d="M172 0v1411h846v-207l-584 -12v-361h508v-213h-508v-397l584 -14v-207h-846z"/>
<glyph glyph-name="F" horiz-adv-x="997" unicode="F" d="M170 0v1411h817v-209l-553 -14v-404h531v-215h-531v-569h-264z"/>
<glyph glyph-name="G" horiz-adv-x="1292" unicode="G" d="M675 764h508v-668q-125 -62 -211 -83q-119 -29 -249 -29q-264 0 -415 137q-209 190 -209 554q0 342 187 550q181 203 473 203q183 0 317 -93q46 -32 109 -98l-104 -184q-75 72 -127 101q-81 45 -188 45q-162 0 -260 -104q-131 -142 -131 -415q0 -489 383 -489 q85 0 179 22v352h-262v199z"/>
<glyph glyph-name="H" horiz-adv-x="1313" unicode="H" d="M168 0v1411h262v-567h486v567h262v-1411h-262v629h-486v-629h-262z"/>
<glyph glyph-name="I" horiz-adv-x="604" unicode="I" d="M182 0v1411h268v-1411h-268z"/>
<glyph glyph-name="J" horiz-adv-x="600" unicode="J" d="M147 -424l-133 135q103 55 143 123q29 52 33 106q4 30 4 173v1298h262v-1288q0 -198 -12 -253q-44 -205 -297 -294z"/>
<glyph glyph-name="K" horiz-adv-x="1176" unicode="K" d="M168 0v1411h260v-608h33l420 608h309l-484 -653l504 -758h-321l-426 662h-35v-662h-260z"/>
<glyph glyph-name="L" horiz-adv-x="958" unicode="L" d="M174 0v1411h264v-1190l512 -14v-207h-776z"/>
<glyph glyph-name="M" horiz-adv-x="1757" unicode="M" d="M129 0l119 1411h321l310 -995l14 -82v-55h20v55l13 82l313 995h313l109 -1411h-260l-62 958l4 84l7 48l-23 4l-6 -50l-18 -81l-308 -963h-215l-309 963l-20 81l-7 50l-20 -4l6 -48l2 -84l-55 -958h-248z"/>
<glyph glyph-name="N" horiz-adv-x="1335" unicode="N" d="M172 0v1411h297l444 -913l25 -66l16 -61l23 4l-12 61l-11 84l-4 891h248v-1411h-274l-469 948l-23 66l-14 63l-23 -6l15 -59l8 -84l4 -928h-250z"/>
<glyph glyph-name="O" horiz-adv-x="1280" unicode="O" d="M653 1223q-125 0 -189 -99q-96 -148 -96 -428q0 -268 101 -410q71 -100 199 -100q125 0 191 109q90 149 90 407q0 274 -97 418q-68 103 -199 103zM676 1436q231 0 369 -158q180 -206 180 -572q0 -360 -184 -565q-148 -164 -388 -164q-236 0 -381 164q-180 205 -180 561 q0 365 187 568q152 166 397 166z"/>
<glyph glyph-name="P" horiz-adv-x="1139" unicode="P" d="M444 721h14q208 0 271 29q127 58 127 224q0 183 -163 221q-46 11 -249 11v-485zM180 0v1409q239 6 410 6q211 0 303 -41q106 -48 165 -143q68 -111 68 -256q0 -268 -203 -389q-120 -72 -342 -72h-137v-514h-264z"/>
<glyph glyph-name="Q" horiz-adv-x="1266" unicode="Q" d="M653 1223q-125 0 -189 -99q-96 -148 -96 -428q0 -268 101 -410q71 -100 199 -100q125 0 191 109q90 149 90 407q0 274 -97 418q-68 103 -199 103zM530 -10q-102 19 -195 93q-243 191 -243 622q0 358 187 565q149 166 390 166q239 0 376 -158q180 -207 180 -571 q0 -368 -185 -566q-65 -71 -157 -116.5t-168 -45.5q-3 0 -15 1v-13v-14q0 -67 25 -115q24 -47 103 -47q71 0 192 27l26 -158q-180 -70 -304 -70q-115 0 -171 51q-25 23 -43 58q-22 42 -22 62q0 108 24 229z"/>
<glyph glyph-name="R" horiz-adv-x="1161" unicode="R" d="M422 793q37 -1 55 -1q148 0 212 25q122 48 122 198q0 146 -136 180q-41 11 -253 11v-413zM164 0v1409q199 5 317 5q306 0 404 -41q86 -37 135 -115q61 -98 61 -228q0 -204 -139 -303q-104 -74 -186 -74h-8l-52 2l-4 -10l35 -20l37 -35l385 -590h-305l-383 618h-39v-618 h-258z"/>
<glyph glyph-name="S" horiz-adv-x="1075" unicode="S" d="M88 139l72 213q89 -78 156 -106q98 -42 203 -42q229 0 229 175q0 59 -31 106q-35 52 -176 104q-222 83 -320 173q-102 94 -102 257q0 207 152 323q118 90 297 90q140 0 255 -52q59 -27 144 -96l-64 -209q-88 75 -154 100q-85 32 -169 32q-195 0 -195 -156q0 -56 30 -94 q42 -51 173 -103q242 -94 326 -178q102 -102 102 -264q0 -217 -172 -343q-121 -88 -302 -88q-187 0 -321 66q-57 29 -133 92z"/>
<glyph glyph-name="T" horiz-adv-x="963" unicode="T" d="M374 0v1194l-360 10v207h981v-207l-357 -10v-1194h-264z"/>
<glyph glyph-name="U" horiz-adv-x="1286" unicode="U" d="M158 1411h264v-889q0 -192 39 -254q51 -82 198 -82q150 0 208 84q41 60 41 226v915h256v-901q0 -194 -34 -278q-102 -255 -481 -255q-265 0 -383 126q-66 72 -90 165q-18 73 -18 244v899z"/>
<glyph glyph-name="V" horiz-adv-x="1137" unicode="V" d="M18 1411h285l272 -1010l12 -84v-63h27v63l10 84l266 1010h269l-416 -1411h-301z"/>
<glyph glyph-name="W" horiz-adv-x="1749" unicode="W" d="M641 0h-289l-317 1411h276l189 -979l8 -70v-71h27v71l10 70l225 979h264l230 -979l10 -70v-71h27v71l6 70l184 979h265l-322 -1411h-289l-233 975l-11 84v55h-26v-55l-8 -84z"/>
<glyph glyph-name="X" horiz-adv-x="1120" unicode="X" d="M312 0h-285l383 729l-356 682h301l213 -455l12 -53v-29l25 3v26l12 55l203 453h280l-346 -668l381 -743h-301l-240 514l-12 53v29h-27v-29l-10 -53z"/>
<glyph glyph-name="Y" horiz-adv-x="1059" unicode="Y" d="M692 0h-260v506l-440 905h299l249 -590l19 -82v-41h27v41l16 82l242 590h284l-436 -903v-508z"/>
<glyph glyph-name="Z" horiz-adv-x="1016" unicode="Z" d="M49 0v172l586 969l41 37l24 10l-10 22l-45 -18h-37l-496 12v207h871v-174l-586 -973l-41 -35l-33 -16l14 -23l41 21l43 8l582 -14v-205h-954z"/>
<glyph glyph-name="bracketleft" horiz-adv-x="649" unicode="[" d="M170 1559h471v-143l-254 -9v-1620l254 -11v-143h-471v1926z"/>
<glyph glyph-name="backslash" horiz-adv-x="829" unicode="\" d="M805 -281h-199l-512 1751h201z"/>
<glyph glyph-name="bracketright" horiz-adv-x="649" unicode="]" d="M506 -367h-471v143l254 11v1620l-254 9v143h471v-1926z"/>
<glyph glyph-name="asciicircum" horiz-adv-x="788" unicode="^" d="M521 1411l233 -608h-199l-123 352l-8 55v56h-24v-56l-8 -55l-132 -352h-190l258 608h193z"/>
<glyph glyph-name="underscore" horiz-adv-x="1245" unicode="_" d="M0 -141h1245v-125h-1245v125z"/>
<glyph glyph-name="grave" horiz-adv-x="598" unicode="`" d="M514 1161l-149 -16l-261 278h-20v21h289z"/>
<glyph glyph-name="a" d="M678 461q-76 10 -141 10q-106 0 -156 -27q-65 -35 -65 -124q0 -135 135 -135q81 0 138 31q37 20 89 75v170zM928 0h-217l-29 125h-12q-114 -139 -299 -139q-136 0 -211 74q-88 87 -88 242q0 343 401 343q93 0 205 -14v26q0 105 -37 139q-41 39 -132 39q-178 0 -323 -73 l-55 178q216 104 416 104q219 0 305 -105q42 -52 56 -120q10 -47 10 -162v-530q0 -71 10 -127z" unicode="a"/>
<glyph glyph-name="b" horiz-adv-x="1120" unicode="b" d="M373 322q46 -61 81 -85q52 -38 142 -38q203 0 203 322q0 152 -57 237q-49 72 -140 72q-133 0 -229 -146v-362zM119 0q10 52 10 127v1309l244 39v-527l-8 -53l-13 -29l19 -6l16 37q117 148 293 148q150 0 248 -117q123 -146 123 -401q0 -264 -137 -420 q-107 -121 -267 -121q-125 0 -201 61q-33 27 -71 86h-10l-29 -133h-217z"/>
<glyph glyph-name="c" horiz-adv-x="850" unicode="c" d="M788 264l43 -176q-81 -57 -136 -77q-79 -29 -180 -29q-190 0 -300 104q-152 144 -152 412q0 256 139 409q123 135 325 135q176 0 304 -102l-49 -190q-111 81 -220 81q-245 0 -245 -331q0 -309 237 -309q113 0 234 73z"/>
<glyph glyph-name="d" horiz-adv-x="1118" unicode="d" d="M750 688q-86 141 -214 141q-83 0 -132 -55q-80 -90 -80 -267q0 -156 66 -244q48 -66 142 -66q116 0 218 125v366zM1004 0h-217l-29 154h-12q-86 -168 -284 -168q-162 0 -265 123q-125 149 -125 392q0 255 135 410q114 131 286 131q102 0 168 -45q27 -18 64 -61l17 -37 l18 6l-8 37l-2 57v437l244 39v-1348q1 -83 10 -127z"/>
<glyph glyph-name="e" horiz-adv-x="1036" unicode="e" d="M730 622q-3 238 -190 238q-203 0 -220 -238h410zM873 262l63 -170q-181 -112 -389 -112q-187 0 -309 98q-172 139 -172 424q0 272 154 419q130 125 329 125q307 0 400 -282q30 -91 30 -304v-14h-632l-19 2l-22 12l-7 -8l15 -16l8 -19q5 -85 53 -142q76 -90 222 -90 q133 0 276 77z"/>
<glyph glyph-name="f" horiz-adv-x="682" unicode="f" d="M201 0v838h-174v168h178v61q0 204 74 294q86 104 247 104q69 0 178 -35l-32 -176q-52 12 -88 12q-96 0 -125 -66q-18 -40 -18 -179v-15h245v-168h-239v-838h-246z"/>
<glyph glyph-name="g" horiz-adv-x="1083" unicode="g" d="M532 868q-92 0 -142 -60q-44 -53 -44 -133q0 -93 55 -144q48 -45 127 -45q93 0 147 59q43 47 43 135q0 93 -55 145q-45 43 -131 43zM1081 1022v-199l-20 6q-36 11 -84 11q-20 0 -54 -17q37 -84 37 -158q0 -179 -145 -271q-113 -72 -291 -72q-60 0 -131 12l-29 -25 q-37 -32 -37 -61q0 -54 92 -54l260 7q351 0 351 -265q0 -348 -517 -348q-208 0 -325 70q-125 74 -125 211q0 47 25 108h229v-6q-33 -19 -33 -68q0 -67 59 -104q67 -41 181 -41q266 0 266 142q0 60 -41 83q-44 25 -152 25h-143l-127 -2q-105 0 -131 18q-31 22 -66 91 q-37 74 -37 101q0 49 89 116l74 55q-80 55 -112 109q-46 78 -46 175q0 176 141 281q114 84 296 84q128 0 212 -36q43 -19 98 -68q78 94 173 94q26 0 63 -4z"/>
<glyph glyph-name="h" horiz-adv-x="1120" unicode="h" d="M129 0v1436l244 39v-549l-8 -49l-10 -29l18 -8l23 49q130 155 333 155q148 0 219 -102q53 -77 53 -250v-692h-248v641q0 116 -33 151q-30 33 -99 33q-137 0 -248 -137v-688h-244z"/>
<glyph glyph-name="i" horiz-adv-x="518" unicode="i" d="M262 1440q77 0 118 -47q33 -37 33 -86q0 -58 -43 -95q-44 -38 -112 -38q-76 0 -121 48q-33 34 -33 86q0 56 43 95q40 37 115 37zM135 0v999l248 39v-1038h-248z"/>
<glyph glyph-name="j" horiz-adv-x="518" unicode="j" d="M268 1440q78 0 119 -47q33 -37 33 -86q0 -58 -43 -95q-44 -38 -112 -38q-76 0 -121 48q-33 34 -33 86q0 56 42 95q40 37 115 37zM-16 -301q70 27 106 68q55 61 58 231v1001l244 39v-1024q-1 -160 -24 -223q-29 -89 -150 -166q-46 -29 -113 -51z"/>
<glyph glyph-name="k" horiz-adv-x="1040" unicode="k" d="M131 0v1436l244 39v-875h31l329 424h316v-18h-17l-374 -431l-13 -6h-14v-18h14l11 -6l391 -529h14v-16h-317l-338 477h-33v-477h-244z"/>
<glyph glyph-name="l" horiz-adv-x="518" unicode="l" d="M139 0v1436l246 39v-1475h-246z"/>
<glyph glyph-name="m" horiz-adv-x="1708" unicode="m" d="M125 0v995l240 37v-127l-8 -53l-8 -27l18 -6l18 43q37 63 117 113q113 69 228 69q106 0 169 -59q50 -46 53 -129l-4 -31l19 -4l12 35q39 67 115 117q109 72 231 72q149 0 217 -107q34 -54 41 -113q6 -52 6 -131v-694h-246v651q0 106 -27 140q-27 35 -98 35 q-123 0 -241 -134v-692h-242v647q0 107 -22 141q-25 37 -92 37q-85 0 -156 -55q-43 -34 -96 -92v-678h-244z"/>
<glyph glyph-name="n" horiz-adv-x="1120" unicode="n" d="M123 0v995l240 37v-110l-8 -56l-10 -32l16 -5l20 45q144 168 346 168q153 0 220 -96q55 -79 55 -248v-698h-250v631q0 128 -27 159q-30 35 -101 35q-139 0 -255 -137v-688h-246z"/>
<glyph glyph-name="o" horiz-adv-x="1077" unicode="o" d="M535 857q-110 0 -164 -101q-49 -92 -49 -240q0 -351 221 -351q111 0 164 101q51 97 51 241q0 350 -223 350zM554 1047q192 0 309 -115q151 -149 151 -419t-158 -421q-119 -115 -321 -115q-199 0 -315 115q-154 151 -154 415q0 278 160 425q124 115 328 115z"/>
<glyph glyph-name="p" horiz-adv-x="1116" unicode="p" d="M373 682v-367q48 -56 82 -78q54 -36 127 -36q217 0 217 311q0 313 -197 313q-126 0 -229 -143zM125 -406v1401l242 37v-96l-8 -55l-8 -31l16 -8l18 47q97 155 293 155q167 0 267 -139q102 -143 102 -376q0 -252 -117 -402q-110 -141 -292 -141q-177 0 -245 114l-22 50 l-18 -7l8 -26l8 -54v-469h-244z"/>
<glyph glyph-name="q" horiz-adv-x="1116" unicode="q" d="M746 684q-78 143 -205 143q-93 0 -147 -70q-68 -86 -68 -254q0 -150 57 -232q52 -74 145 -74q116 0 218 125v362zM992 -403h-246v475l8 55l8 31l-18 4l-14 -39q-48 -77 -102 -105q-73 -38 -170 -38q-170 0 -275 139q-111 146 -111 372q0 250 121 406q114 147 303 147 q110 0 180 -57q36 -29 72 -96h12l29 133h215q-12 -52 -12 -102v-1325z"/>
<glyph glyph-name="r" horiz-adv-x="721" unicode="r" d="M135 0v999l244 39v-110l-8 -56l-8 -26l18 -6l18 47q102 154 247 154q37 0 93 -17l-30 -258h-23v14q-38 17 -87 17q-120 0 -175 -55q-31 -32 -43 -42v-700h-246z"/>
<glyph glyph-name="s" horiz-adv-x="891" unicode="s" d="M70 88l43 186q135 -97 301 -97q168 0 168 107q0 43 -25 69q-29 33 -168 72q-166 48 -231 105q-80 69 -80 193q0 172 139 260q95 59 253 59q185 0 337 -94l-51 -180q-122 78 -269 78q-165 0 -165 -92q0 -39 29 -64q25 -21 170 -61q161 -45 233 -113q78 -73 78 -197 q0 -189 -147 -278q-105 -64 -252 -64q-188 0 -363 111z"/>
<glyph glyph-name="t" horiz-adv-x="727" unicode="t" d="M676 217v-174q-93 -57 -207 -57q-161 0 -225 92q-51 74 -51 232v6l2 522h-162v168h166l4 233l244 52l-6 -285h256v-168h-258v-500q0 -92 29 -123q24 -24 75 -24t133 26z"/>
<glyph glyph-name="u" horiz-adv-x="1100" unicode="u" d="M987 0h-215l-31 150h-10q-112 -168 -312 -168q-157 0 -226 86q-74 91 -74 282v649l246 39v-659q0 -105 31 -149q25 -37 98 -37q157 0 237 145v661l244 39v-911q1 -67 12 -127z"/>
<glyph glyph-name="v" horiz-adv-x="930" unicode="v" d="M330 0l-326 1024h262l189 -692l8 -56v-57h26v57l7 56l190 692h250l-330 -1024h-276z"/>
<glyph glyph-name="w" horiz-adv-x="1513" unicode="w" d="M540 0h-260l-272 1024h260l150 -674l6 -55v-47h24v47l9 53l192 676h240l194 -676l8 -53v-47h25v47l4 55l148 674h245l-272 -1024h-260l-205 674l-8 55v43h-25v-43l-8 -55z"/>
<glyph glyph-name="x" horiz-adv-x="969" unicode="x" d="M37 1024h288l148 -291l10 -41v-35h25v35l10 41l149 291h265l-283 -485l313 -539h-282l-185 344l-8 41v35h-26v-35l-11 -41l-174 -344h-264l309 537z"/>
<glyph glyph-name="y" horiz-adv-x="934" unicode="y" d="M311 43l-303 981h266l203 -733l6 -55v-43h27v43l6 55l172 733h246l-264 -1020q-61 -232 -144 -324q-84 -92 -243 -92q-78 0 -179 33l45 172q41 -15 94 -15q99 0 134 51q29 43 65 171l12 43h-143z"/>
<glyph glyph-name="z" horiz-adv-x="885" unicode="z" d="M846 -2h-797v143l442 641l35 31l37 16l-8 21l-39 -16l-37 -7l-387 9v186h741v-143l-440 -646l-35 -30l-37 -19l8 -18l37 14l35 6l445 -8v-180z"/>
<glyph glyph-name="braceleft" horiz-adv-x="717" unicode="{" d="M774 -352h-243q-157 0 -213 65q-48 54 -48 123v23l15 543v9q0 80 -51 128q-56 51 -140 51h-20v45h20q90 0 142 51q49 49 49 129v8l-15 541v23q0 188 261 188h243v-53l-77 -2q-118 -4 -162 -82q-34 -54 -35 -195v-448q0 -88 -41 -133q-24 -29 -98 -43h-29v-15h29 q71 -14 98 -45q40 -44 41 -131v-448q2 -143 35 -195q42 -72 162 -80l77 -4v-53z"/>
<glyph glyph-name="bar" horiz-adv-x="645" unicode="|" d="M240 -254v1751h215v-1751h-215z"/>
<glyph glyph-name="braceright" horiz-adv-x="674" unicode="}" d="M-35 1575h243q157 0 213 -65q48 -54 48 -123v-23l-15 -541v-8q0 -79 51 -129q53 -51 140 -51h20v-47h-20q-89 0 -142 -51q-49 -48 -49 -127v-8l15 -543v-23q0 -81 -64 -140q-52 -48 -197 -48h-243v53l77 4q121 9 162 82q34 56 35 193v448q1 90 41 133q25 29 98 43h29v15 h-29q-71 14 -98 45q-40 43 -41 131v448q-2 144 -35 195q-45 78 -162 82l-77 2v53z"/>
<glyph glyph-name="asciitilde" d="M208 522l-102 31q15 114 61 182q70 103 184 103q95 0 218 -82q98 -66 157 -66q66 0 105 57q17 26 39 82l98 -36q-46 -285 -236 -285q-107 0 -225 82q-96 68 -153 68q-103 0 -146 -136z" unicode="~"/>
<glyph glyph-name="nonbreakingspace" horiz-adv-x="518" unicode=" "/>
<glyph glyph-name="exclamdown" horiz-adv-x="623" unicode="¡" d="M279 1419q79 0 124 -47q33 -35 33 -89q0 -62 -44 -99q-45 -39 -115 -39q-81 0 -127 49q-33 35 -33 88q0 58 44 99q41 38 118 38zM361 956l65 -956h-299l70 956h164z"/>
<glyph glyph-name="cent" horiz-adv-x="895" unicode="¢" d="M480 -55v321q-150 21 -240 121q-131 145 -131 392q0 296 174 440q78 64 197 93v154h129v-149q159 -14 242 -97l-50 -182q-85 70 -186 70q-238 0 -238 -341q0 -294 230 -294q90 0 186 59l47 -182q-41 -31 -118 -59q-67 -23 -113 -25v-321h-129z"/>
<glyph glyph-name="sterling" horiz-adv-x="1085" unicode="£" d="M68 37v168q129 10 183 77q26 33 37 81q11 50 11 149v57h-204v109h204v106h-204v111h204v63q0 171 44 261q60 124 181 172q100 41 206 41q170 0 323 -115l-65 -201q-113 97 -226 97q-106 0 -154 -58q-29 -34 -38 -82q-7 -33 -7 -131v-47h390v-111h-390v-106h390v-109h-390 v-33q-1 -145 -51 -213q-37 -54 -90 -81l-35 -15l8 -16l47 20q36 4 53 4q67 0 224 -33q69 -14 141 -14q108 0 228 47v-198q-154 -68 -289 -68q-92 0 -289 43q-151 33 -274 33q-62 0 -168 -8z"/>
<glyph glyph-name="currency" horiz-adv-x="1530" unicode="¤" d="M1442 387v-246q-207 -170 -468 -170q-310 0 -534 222q-155 153 -174 344h-219l45 102h156q-4 40 -4 61q0 20 4 60h-201l45 104h170q30 179 147 313q101 115 238 182q155 76 322 76q217 0 412 -120q55 -33 114 -99l-94 -194q-188 204 -439 204q-226 0 -362 -160 q-65 -76 -98 -202h848l-43 -104h-822v-59v-62h770l-43 -102h-708q35 -134 110 -213q138 -144 362 -144q270 0 466 207z"/>
<glyph glyph-name="yen" horiz-adv-x="1141" unicode="¥" d="M1006 369h-283v-369h-260v369h-282v133h278l-47 106h-231v119h173l-331 684h297l270 -623v-57l22 2v55l258 623h289l-330 -684h177v-119h-234l-45 -106h279v-133z"/>
<glyph glyph-name="brokenbar" horiz-adv-x="645" unicode="¦" d="M240 1470h215v-774h-215v774zM240 -281v773h215v-773h-215z"/>
<glyph glyph-name="section" horiz-adv-x="1079" unicode="§" d="M764 340q41 61 41 120q0 71 -43 115q-47 49 -201 93q-90 25 -199 63q-58 -72 -58 -126q0 -70 53 -113q48 -38 208 -86q68 -21 199 -66zM59 -201l80 195q166 -183 374 -183q240 0 240 166q0 63 -45 107q-56 54 -215 100q-237 69 -320 143q-96 87 -96 227q0 143 136 259 q-60 52 -82 95q-33 65 -33 147q0 212 186 309q129 68 286 68q249 0 437 -175l-67 -204q-158 166 -367 166q-215 0 -215 -152q0 -53 39 -86q51 -44 211 -88q222 -62 303 -123q125 -94 125 -256q0 -159 -121 -268q98 -95 98 -239q0 -207 -168 -319q-129 -86 -308 -86 q-290 0 -478 197z"/>
<glyph glyph-name="dieresis" horiz-adv-x="842" unicode="¨" d="M624 1401q69 0 105 -41q29 -33 29 -78q0 -53 -37 -86q-36 -33 -101 -33q-74 0 -110 41q-29 33 -29 79q0 53 38 86q38 32 105 32zM226 1401q69 0 106 -41q28 -33 28 -77q0 -51 -37 -87q-34 -33 -103 -33q-72 0 -108 41q-28 33 -28 79q0 52 38 86q38 32 104 32z"/>
<glyph glyph-name="copyright" horiz-adv-x="1866" unicode="©" d="M1220 442l72 -163q-141 -129 -313 -129q-208 0 -330 144q-128 149 -128 378q0 261 134 416q127 149 330 149q201 0 319 -129l-76 -172q-94 88 -199 88q-252 0 -252 -340q0 -155 68 -245q59 -80 174 -80q110 0 201 83zM956 1370q-283 0 -475 -219q-170 -195 -170 -456 q0 -300 214 -500q187 -175 442 -175q292 0 488 220q171 191 171 460q0 293 -215 497q-183 173 -455 173zM967 1542q229 0 430 -123q177 -109 282 -281q123 -200 123 -442q0 -380 -276 -631q-242 -219 -572 -219q-239 0 -442 123q-177 107 -283 283q-123 204 -123 451 q0 367 277 620q240 219 584 219z"/>
<glyph glyph-name="ordfeminine" horiz-adv-x="616" unicode="ª" d="M411 1117q-41 8 -75 8q-106 0 -106 -75q0 -70 67 -70q64 0 114 54v83zM531 890h-104l-11 62h-12q-80 -69 -152 -69q-143 0 -143 157q0 171 203 171q44 0 99 -9v17q0 52 -21 70.5t-74 18.5q-66 0 -150 -34l-28 87q104 51 203 51q162 0 184 -110q6 -30 6 -82v-330zM110 706 v99h430v-99h-430z"/>
<glyph glyph-name="guillemotleft" horiz-adv-x="909" unicode="«" d="M471 952l-186 -373l186 -364l-119 -33l-291 385h-14v16h14l295 393zM825 938l-170 -359l170 -348l-121 -29l-268 365h-14v16h12l270 377z"/>
<glyph glyph-name="logicalnot" d="M104 594v166h870l-63 -496h-150l74 330h-731z" unicode="¬"/>
<glyph glyph-name="sfthyphen" horiz-adv-x="588" unicode="­" d="M63 536v207h489v-207h-489z"/>
<glyph glyph-name="registered" horiz-adv-x="801" unicode="®" d="M387 1321q14 2 18 2q44 3 56 15q14 15 14 38q0 46 -48 46h-24h-16v-101zM297 1092v401h59h68q143 0 143 -107q0 -93 -80 -110l99 -184h-105l-84 170h-10v-170h-90zM416 1552q-110 0 -188 -87q-66 -74 -66 -179q0 -120 83 -197q75 -69 175 -69q115 0 192 87q66 74 66 181 q0 118 -83 195q-75 69 -179 69zM425 1618q144 0 242 -107q85 -93 85 -225q0 -150 -107 -247q-94 -85 -225 -85q-151 0 -246 107q-86 97 -86 228q0 142 108 244q90 85 229 85z"/>
<glyph glyph-name="macron" horiz-adv-x="752" unicode="¯" d="M668 1194h-584v162h584v-162z"/>
<glyph glyph-name="degree" horiz-adv-x="692" unicode="°" d="M388 1288q-63 0 -105 -51q-35 -42 -35 -103q0 -71 47 -116q40 -40 97 -40q66 0 108 51q36 43 36 107q0 69 -47 113q-42 39 -101 39zM396 1433q128 0 218 -100q78 -85 78 -200q0 -133 -99 -222q-86 -78 -201 -78q-133 0 -223 99q-77 86 -77 203q0 128 98 220q83 78 206 78 z"/>
<glyph glyph-name="plusminus" d="M145 121v158h772v-158h-772zM436 403v326h-291v164h291v303h195v-303h286v-164h-286v-326h-195z" unicode="±"/>
<glyph glyph-name="twosuperior" horiz-adv-x="690" unicode="²" d="M653 586h-573v115q160 116 256 236q110 138 110 230q0 91 -95 91q-82 0 -189 -127l-68 129q115 160 292 160q121 0 184 -73q58 -69 58 -167q0 -135 -125 -285q-79 -95 -157 -147l-35 -10l6 -17l39 10l297 -4v-141z"/>
<glyph glyph-name="threesuperior" horiz-adv-x="688" unicode="³" d="M127 536l-35 137h9q348 0 348 148q0 48 -49 73q-52 27 -126 27q-43 0 -108 -6v148q52 -3 89 -3q88 0 136 33q51 35 51 91q0 79 -90 79q-101 0 -223 -71l-47 129q147 98 295 98q125 0 186 -64q49 -52 49 -136q0 -95 -65 -156q-50 -48 -92 -48h-29v-14h29q51 0 108 -41 q72 -52 72 -145q0 -135 -131 -211q-125 -72 -290 -72q-28 0 -87 4z"/>
<glyph glyph-name="acute" horiz-adv-x="596" unicode="´" d="M221 1145l-137 12l143 287h285v-21h-22z"/>
<glyph glyph-name="mu1" horiz-adv-x="1120" unicode="µ" d="M1009 0h-217l-27 152h-12q-20 -48 -49 -78q-52 -53 -89.5 -70.5t-101.5 -17.5q-102 0 -145 59h-12l-18 -430l-277 -35v21h20q65 199 70 571v823l236 43v-659q0 -106 27 -143q30 -43 109 -43q97 0 161 54q32 28 69 91v661l238 39v-911q1 -49 18 -127z"/>
<glyph glyph-name="paragraph" horiz-adv-x="983" unicode="¶" d="M618 1196q-70 -3 -135 -26l2 -684q63 -23 133 -23v733zM618 -29v355q-522 12 -522 500q0 310 235 440q106 58 287 68v143h156v-143q88 -11 170 -43l-23 -123q-75 19 -147 26v-733q70 10 145 31l25 -123q-90 -32 -170 -43v-355h-156z"/>
<glyph glyph-name="periodcentered" horiz-adv-x="1036" unicode="·" d="M537 850q98 0 154 -63q42 -46 42 -114q0 -79 -53 -126q-55 -49 -146 -49q-105 0 -158 62q-42 49 -42 117q0 74 54 123q55 50 149 50z"/>
<glyph glyph-name="cedilla" horiz-adv-x="590" unicode="¸" d="M84 -389l47 98q68 -41 125 -41q94 0 94 70q0 76 -91 76q-55 0 -128 -43l-47 100q108 72 209 72q94 0 153 -50q60 -51 60 -145q0 -103 -74 -158q-63 -47 -144 -47q-107 0 -204 68z"/>
<glyph glyph-name="onesuperior" horiz-adv-x="690" unicode="¹" d="M536 586h-176v536l4 49l16 35l-12 8l-22 -34l-205 -121l-49 110l323 242h125q-4 -61 -4 -117v-708z"/>
<glyph glyph-name="ordmasculine" horiz-adv-x="616" unicode="º" d="M322 1320q-110 0 -110 -174t110 -174t110 174t-110 174zM327 1414q157 0 212 -143q21 -55 21 -118q0 -142 -82 -215q-66 -59 -157 -59q-161 0 -216 151q-20 53 -20 112q0 142 83 215q65 57 159 57zM104 706v99h437v-99h-437z"/>
<glyph glyph-name="guillemotright" horiz-adv-x="907" unicode="»" d="M465 215l187 372l-187 365l119 33l291 -387h14v-15h-14l-293 -395zM111 229l170 358l-170 349l121 26l270 -364h15v-15h-15l-270 -377z"/>
<glyph glyph-name="onequarter" horiz-adv-x="1772" unicode="¼" d="M1630 0h-170v145h-332v106l240 574h182l-233 -533l-27 -14l8 -14l27 14h137l51 355h117v-355h80v-133h-80v-145zM397 0l897 1411h168l-897 -1411h-168zM536 586h-176v536l4 49l16 35l-12 8l-22 -34l-205 -121l-49 110l323 242h125q-4 -61 -4 -117v-708z"/>
<glyph glyph-name="onehalf" horiz-adv-x="1769" unicode="½" d="M1732 0h-571v115q366 279 366 462q0 43 -30 70q-24 22 -64 22q-90 0 -190 -126l-68 131q51 66 92 96q81 61 194 61q124 0 189 -72q59 -65 59 -161q0 -139 -125 -291q-74 -91 -157 -145l-35 -12l6 -15l39 10l295 -4v-141zM383 0l897 1411h168l-897 -1411h-168zM536 586 h-176v536l4 49l16 35l-12 8l-22 -34l-205 -121l-49 110l323 242h125q-4 -61 -4 -117v-708z"/>
<glyph glyph-name="threequarters" horiz-adv-x="1772" unicode="¾" d="M1630 0h-170v145h-332v106l240 574h182l-233 -533l-27 -14l8 -14l27 14h137l51 355h117v-355h80v-133h-80v-145zM397 0l899 1411h168l-899 -1411h-168zM141 536l-35 137h9q348 0 348 148q0 48 -49 73q-52 27 -126 27q-43 0 -108 -6v148q52 -3 89 -3q88 0 136 33 q51 35 51 91q0 79 -90 79q-101 0 -223 -71l-47 129q147 98 295 98q125 0 186 -64q49 -52 49 -136q0 -95 -65 -156q-50 -48 -92 -48h-29v-14h29q51 0 108 -41q72 -52 72 -145q0 -135 -131 -211q-125 -72 -290 -72q-28 0 -87 4z"/>
<glyph glyph-name="questiondown" horiz-adv-x="846" unicode="¿" d="M483 1419q79 0 122 -48q34 -38 34 -90q0 -60 -44 -97q-45 -39 -115 -39q-81 0 -127 48q-33 36 -33 91q0 61 43 97q44 38 120 38zM553 956q17 -66 17 -112q0 -117 -90 -240q-116 -159 -130 -192q-18 -46 -18 -88q0 -107 113 -107q112 0 225 98l64 -192q-102 -74 -166 -100 q-95 -37 -195 -37q-128 0 -207 63q-94 77 -94 225q0 115 61 220q33 57 115 151q91 105 111 154q31 68 30 132v9v16h164z"/>
<glyph glyph-name="Agrave" horiz-adv-x="1231" unicode="À" d="M471 594l-31 -28l15 -13l30 27h273l35 -27l14 13l-33 30l-129 457l-10 69v62h-25v-62l-12 -69zM43 0l438 1411h307l431 -1411h-279l-109 375h-413l-103 -375h-272zM637 1724l129 -217l-174 -25l-244 222h-20v20h309z"/>
<glyph glyph-name="Aacute" horiz-adv-x="1231" unicode="Á" d="M471 594l-31 -28l15 -13l30 27h273l35 -27l14 13l-33 30l-129 457l-10 69v62h-25v-62l-12 -69zM43 0l438 1411h307l431 -1411h-279l-109 375h-413l-103 -375h-272zM645 1724h303v-20h-20l-258 -222l-160 25z"/>
<glyph glyph-name="Acircumflex" horiz-adv-x="1231" unicode="Â" d="M471 594l-31 -28l15 -13l30 27h273l35 -27l14 13l-33 30l-129 457l-10 69v62h-25v-62l-12 -69zM43 0l438 1411h307l431 -1411h-279l-109 375h-413l-103 -375h-272zM501 1491l-156 16v23h23l249 252v14h21v-14l254 -252h22v-23l-167 -16l-123 106z"/>
<glyph glyph-name="Atilde" horiz-adv-x="1231" unicode="Ã" d="M471 594l-31 -28l15 -13l30 27h273l35 -27l14 13l-33 30l-129 457l-10 69v62h-25v-62l-12 -69zM43 0l438 1411h307l431 -1411h-279l-109 375h-413l-103 -375h-272zM361 1487l-83 84q46 97 94 141q51 47 125 47q79 0 188 -75q65 -45 109 -45q71 0 116 110l86 -84 q-84 -180 -221 -180q-75 0 -180 73q-67 47 -110 47q-76 0 -124 -118z"/>
<glyph glyph-name="Adieresis" horiz-adv-x="1231" unicode="Ä" d="M471 594l-31 -28l15 -13l30 27h273l35 -27l14 13l-33 30l-129 457l-10 69v62h-25v-62l-12 -69zM43 0l438 1411h307l431 -1411h-279l-109 375h-413l-103 -375h-272zM883 1729q75 0 115 -45q30 -34 30 -83q0 -57 -39 -92q-41 -36 -109 -36q-78 0 -118 45q-31 35 -31 83 q0 54 42 92q39 36 110 36zM383 1729q74 0 115 -46q32 -36 32 -82q0 -54 -42 -92q-39 -36 -107 -36q-80 0 -117 45q-31 36 -31 85q0 55 39 90q40 36 111 36z"/>
<glyph glyph-name="Aring" horiz-adv-x="1229" unicode="Å" d="M471 594l-31 -28l15 -13l30 27h273l35 -27l14 13l-33 30l-129 457l-10 69v62h-25v-62l-12 -69zM43 0l438 1411h307l431 -1411h-279l-109 375h-413l-103 -375h-272zM631 1699q-85 0 -85 -64t85 -64t85 64t-85 64zM631 1809q90 0 153 -41q74 -47 74 -133t-73 -134 q-63 -40 -154 -40t-154 40q-73 48 -73 134t73 133q63 41 154 41z"/>
<glyph glyph-name="AE" horiz-adv-x="1702" unicode="Æ" d="M862 1196h-70l-254 -559l-32 -37l-25 -18l10 -16l29 14l41 6h301v610zM862 387h-432l-176 -387h-287l676 1411h1001v-207l-526 -12v-367h459v-213h-459v-393l526 -12v-207h-782v387z"/>
<glyph glyph-name="Ccedilla" horiz-adv-x="1073" unicode="Ç" d="M987 346l92 -176q-169 -188 -419 -188q-245 0 -394 155q-184 193 -184 546q0 378 205 584q158 160 398 160t396 -184l-94 -192q-78 81 -131 107q-71 36 -157 36q-159 0 -243 -121q-94 -137 -94 -384q0 -474 331 -474q105 0 180 43q42 24 114 88zM463 -389l47 98 q68 -41 125 -41q94 0 94 70q0 76 -91 76q-55 0 -128 -43l-47 100q108 72 209 72q94 0 153 -50q60 -51 60 -145q0 -103 -74 -158q-63 -47 -144 -47q-107 0 -204 68z"/>
<glyph glyph-name="Egrave" horiz-adv-x="1079" unicode="È" d="M172 0v1411h846v-207l-584 -12v-361h508v-213h-508v-397l584 -14v-207h-846zM642 1724l129 -217l-174 -25l-244 222h-20v20h309z"/>
<glyph glyph-name="Eacute" horiz-adv-x="1079" unicode="É" d="M172 0v1411h846v-207l-584 -12v-361h508v-213h-508v-397l584 -14v-207h-846zM595 1724h303v-20h-20l-258 -222l-160 25z"/>
<glyph glyph-name="Ecircumflex" horiz-adv-x="1079" unicode="Ê" d="M172 0v1411h846v-207l-584 -12v-361h508v-213h-508v-397l584 -14v-207h-846zM487 1491l-156 16v23h23l249 252v14h21v-14l254 -252h22v-23l-167 -16l-123 106z"/>
<glyph glyph-name="Edieresis" horiz-adv-x="1079" unicode="Ë" d="M172 0v1411h846v-207l-584 -12v-361h508v-213h-508v-397l584 -14v-207h-846zM435 1729q48 0 77 -34q31 -38 31 -92q0 -62 -39 -100q-27 -26 -71 -26q-51 0 -80 34q-31 38 -31 93q0 60 39 99q26 26 74 26zM786 1477h-2q-50 0 -79 34q-31 38 -31 92q0 62 39 100 q27 26 71 26q51 0 80 -34q31 -38 31 -95q0 -63 -39 -97q-31 -26 -70 -26z"/>
<glyph glyph-name="Igrave" horiz-adv-x="606" unicode="Ì" d="M183 0v1411h268v-1411h-268zM325 1724l129 -217l-174 -25l-244 222h-20v20h309z"/>
<glyph glyph-name="Iacute" horiz-adv-x="604" unicode="Í" d="M182 0v1411h268v-1411h-268zM329 1724h303v-20h-20l-258 -222l-160 25z"/>
<glyph glyph-name="Icircumflex" horiz-adv-x="604" unicode="Î" d="M183 0v1411h268v-1411h-268zM190 1491l-156 16v23h23l249 252v14h21v-14l254 -252h22v-23l-167 -16l-123 106z"/>
<glyph glyph-name="Idieresis" horiz-adv-x="604" unicode="Ï" d="M182 0v1411h268v-1411h-268zM157 1729q48 0 77 -34q31 -38 31 -92q0 -62 -39 -100q-27 -26 -72 -26q-50 0 -79 34q-31 38 -31 93q0 60 39 99q26 26 74 26zM482 1477h-2q-50 0 -79 34q-31 38 -31 92q0 62 39 100q27 26 71 26q51 0 80 -34q31 -38 31 -91q0 -64 -41 -101 q-29 -26 -68 -26z"/>
<glyph glyph-name="Eth" horiz-adv-x="1335" unicode="Ð" d="M487 682v-475q215 4 310 50q206 99 206 446q0 434 -281 485q-68 12 -235 12v-346h217v-172h-217zM223 854v555q309 4 355 4q207 0 311 -30q190 -55 297 -256q91 -170 91 -414q0 -427 -283 -613q-106 -70 -244 -89q-78 -11 -273 -11h-254v682h-127v172h127z"/>
<glyph glyph-name="Ntilde" horiz-adv-x="1335" unicode="Ñ" d="M172 0v1411h297l444 -913l25 -66l16 -61l23 4l-12 61l-11 84l-4 891h248v-1411h-274l-469 948l-23 66l-14 63l-23 -6l15 -59l8 -84l4 -928h-250zM423 1487l-83 84q46 97 94 141q51 47 125 47q79 0 188 -75q65 -45 109 -45q71 0 116 110l86 -84q-84 -180 -221 -180 q-75 0 -180 73q-67 47 -110 47q-76 0 -124 -118z"/>
<glyph glyph-name="Ograve" horiz-adv-x="1280" unicode="Ò" d="M653 1223q-125 0 -189 -99q-96 -148 -96 -428q0 -268 101 -410q71 -100 199 -100q125 0 191 109q90 149 90 407q0 274 -97 418q-68 103 -199 103zM676 1436q231 0 369 -158q180 -206 180 -572q0 -360 -184 -565q-148 -164 -388 -164q-236 0 -381 164q-180 205 -180 561 q0 365 187 568q152 166 397 166zM679 1724l129 -217l-174 -25l-244 222h-20v20h309z"/>
<glyph glyph-name="Oacute" horiz-adv-x="1280" unicode="Ó" d="M653 1223q-125 0 -189 -99q-96 -148 -96 -428q0 -268 101 -410q71 -100 199 -100q125 0 191 109q90 149 90 407q0 274 -97 418q-68 103 -199 103zM676 1436q231 0 369 -158q180 -206 180 -572q0 -360 -184 -565q-148 -164 -388 -164q-236 0 -381 164q-180 205 -180 561 q0 365 187 568q152 166 397 166zM657 1724h303v-20h-20l-258 -222l-160 25z"/>
<glyph glyph-name="Ocircumflex" horiz-adv-x="1280" unicode="Ô" d="M653 1223q-125 0 -189 -99q-96 -148 -96 -428q0 -268 101 -410q71 -100 199 -100q125 0 191 109q90 149 90 407q0 274 -97 418q-68 103 -199 103zM676 1436q231 0 369 -158q180 -206 180 -572q0 -360 -184 -565q-148 -164 -388 -164q-236 0 -381 164q-180 205 -180 561 q0 365 187 568q152 166 397 166zM531 1491l-156 16v23h23l249 252v14h21v-14l254 -252h22v-23l-167 -16l-123 106z"/>
<glyph glyph-name="Otilde" horiz-adv-x="1280" unicode="Õ" d="M653 1223q-125 0 -189 -99q-96 -148 -96 -428q0 -268 101 -410q71 -100 199 -100q125 0 191 109q90 149 90 407q0 274 -97 418q-68 103 -199 103zM676 1436q231 0 369 -158q180 -206 180 -572q0 -360 -184 -565q-148 -164 -388 -164q-236 0 -381 164q-180 205 -180 561 q0 365 187 568q152 166 397 166zM390 1487l-83 84q46 97 94 141q51 47 125 47q79 0 188 -75q65 -45 109 -45q71 0 116 110l86 -84q-84 -180 -221 -180q-75 0 -180 73q-67 47 -110 47q-76 0 -124 -118z"/>
<glyph glyph-name="Odieresis" horiz-adv-x="1280" unicode="Ö" d="M653 1223q-125 0 -189 -99q-96 -148 -96 -428q0 -268 101 -410q71 -100 199 -100q125 0 191 109q90 149 90 407q0 274 -97 418q-68 103 -199 103zM676 1436q231 0 369 -158q180 -206 180 -572q0 -360 -184 -565q-148 -164 -388 -164q-236 0 -381 164q-180 205 -180 561 q0 365 187 568q152 166 397 166zM926 1729q73 0 114 -46q32 -36 32 -82q0 -54 -42 -92q-39 -36 -107 -36q-80 0 -117 45q-31 37 -31 83q0 54 42 92q39 36 109 36zM399 1729q75 0 115 -45q30 -34 30 -83q0 -57 -39 -92q-41 -36 -108 -36q-79 0 -119 45q-31 35 -31 83 q0 54 42 92q39 36 110 36z"/>
<glyph glyph-name="multiply" horiz-adv-x="1036" unicode="×" d="M127 999l166 86l246 -305l252 305l147 -86l-286 -333l301 -359l-164 -84l-260 318l-267 -318l-147 82l301 346z"/>
<glyph glyph-name="Oslash" horiz-adv-x="1294" unicode="Ø" d="M873 1094q-68 131 -212 131q-197 0 -261 -264q-29 -118 -29 -256q0 -95 22 -194l-3 -48l-10 -45l23 -6l12 47l18 38zM455 330q71 -146 220 -146q117 0 183 85q46 59 76 176t30 238q0 94 -26 231v41l8 47l-23 5l-6 -34l-18 -45zM181 -29l-110 65l150 187q-33 54 -51 96 q-69 162 -69 387q0 394 215 595q143 134 359 134q211 0 352 -136l110 142l110 -67l-139 -175q32 -49 53 -97q73 -169 73 -396q0 -394 -215 -595q-143 -134 -358 -134q-219 0 -362 145z"/>
<glyph glyph-name="Ugrave" horiz-adv-x="1286" unicode="Ù" d="M158 1411h264v-889q0 -192 39 -254q51 -82 198 -82q150 0 208 84q41 60 41 226v915h256v-901q0 -194 -34 -278q-102 -255 -481 -255q-265 0 -383 126q-66 72 -90 165q-18 73 -18 244v899zM696 1724l129 -217l-174 -25l-244 222h-20v20h309z"/>
<glyph glyph-name="Uacute" horiz-adv-x="1286" unicode="Ú" d="M158 1411h264v-889q0 -192 39 -254q51 -82 198 -82q150 0 208 84q41 60 41 226v915h256v-901q0 -194 -34 -278q-102 -255 -481 -255q-265 0 -383 126q-66 72 -90 165q-18 73 -18 244v899zM660 1724h303v-20h-20l-258 -222l-160 25z"/>
<glyph glyph-name="Ucircumflex" horiz-adv-x="1286" unicode="Û" d="M158 1411h264v-889q0 -192 39 -254q51 -82 198 -82q150 0 208 84q41 60 41 226v915h256v-901q0 -194 -34 -278q-102 -255 -481 -255q-265 0 -383 126q-66 72 -90 165q-18 73 -18 244v899zM540 1491l-156 16v23h23l249 252v14h21v-14l254 -252h22v-23l-167 -16l-123 106z "/>
<glyph glyph-name="Udieresis" horiz-adv-x="1286" unicode="Ü" d="M158 1411h264v-889q0 -192 39 -254q51 -82 198 -82q150 0 208 84q41 60 41 226v915h256v-901q0 -194 -34 -278q-102 -255 -481 -255q-265 0 -383 126q-66 72 -90 165q-18 73 -18 244v899zM885 1729q75 0 115 -45q30 -34 30 -83q0 -57 -39 -92q-40 -36 -109 -36 q-78 0 -118 45q-31 35 -31 83q0 54 42 92q39 36 110 36zM449 1729q75 0 115 -45q30 -34 30 -83q0 -57 -39 -92q-41 -36 -109 -36q-78 0 -118 45q-31 35 -31 83q0 54 42 92q39 36 110 36z"/>
<glyph glyph-name="Yacute" horiz-adv-x="1059" unicode="Ý" d="M692 0h-260v506l-440 905h299l249 -590l19 -82v-41h27v41l16 82l242 590h284l-436 -903v-508zM587 1724h303v-20h-20l-258 -222l-160 25z"/>
<glyph glyph-name="Thorn" horiz-adv-x="1163" unicode="Þ" d="M444 531h44q173 0 239 28q129 55 129 217q0 147 -96 199q-82 44 -240 44q-32 0 -76 -3v-485zM180 0v1411h264v-190q111 4 176 4q235 0 352 -90q57 -44 93 -109q61 -113 61 -244q0 -265 -203 -386q-120 -72 -342 -72h-137v-324h-264z"/>
<glyph glyph-name="germandbls" horiz-adv-x="1171" unicode="ß" d="M181 0v838h-158v168h156l2 51q7 171 68 252q111 146 382 146q380 0 380 -277q0 -86 -43 -151q-35 -55 -129 -107q-57 -31 -57 -55q0 -16 25 -43q21 -23 153 -139q155 -137 155 -333q0 -193 -137 -299q-83 -63 -223 -63q-106 0 -224 49l39 174q80 -26 135 -26 q156 0 156 149q0 122 -168 277q-100 93 -135 160q-12 23 -12 63q0 46 33 81q19 19 75 57q75 50 101 96q14 26 14 78q0 57 -43 94q-45 39 -111 39q-109 0 -157 -78q-33 -53 -33 -175v-1026h-244z"/>
<glyph glyph-name="agrave" d="M678 461q-76 10 -141 10q-106 0 -156 -27q-65 -35 -65 -124q0 -135 135 -135q81 0 138 31q37 20 89 75v170zM928 0h-217l-29 125h-12q-114 -139 -299 -139q-136 0 -211 74q-88 87 -88 242q0 343 401 343q93 0 205 -14v26q0 105 -37 139q-41 39 -132 39q-178 0 -323 -73 l-55 178q216 104 416 104q219 0 305 -105q42 -52 56 -120q10 -47 10 -162v-530q0 -71 10 -127zM644 1161l-149 -16l-261 278h-20v21h289z" unicode="à"/>
<glyph glyph-name="aacute" d="M678 461q-76 10 -141 10q-106 0 -156 -27q-65 -35 -65 -124q0 -135 135 -135q81 0 138 31q37 20 89 75v170zM928 0h-217l-29 125h-12q-114 -139 -299 -139q-136 0 -211 74q-88 87 -88 242q0 343 401 343q93 0 205 -14v26q0 105 -37 139q-41 39 -132 39q-178 0 -323 -73 l-55 178q216 104 416 104q219 0 305 -105q42 -52 56 -120q10 -47 10 -162v-530q0 -71 10 -127zM535 1145l-137 12l143 287h285v-21h-22z" unicode="á"/>
<glyph glyph-name="acircumflex" d="M678 461q-76 10 -141 10q-106 0 -156 -27q-65 -35 -65 -124q0 -135 135 -135q81 0 138 31q37 20 89 75v170zM928 0h-217l-29 125h-12q-114 -139 -299 -139q-136 0 -211 74q-88 87 -88 242q0 343 401 343q93 0 205 -14v26q0 105 -37 139q-41 39 -132 39q-178 0 -323 -73 l-55 178q216 104 416 104q219 0 305 -105q42 -52 56 -120q10 -47 10 -162v-530q0 -71 10 -127zM382 1139l-143 18v21h20l273 323v17h20v-17l273 -323h20v-21l-149 -18l-156 127z" unicode="â"/>
<glyph glyph-name="atilde" d="M678 461q-76 10 -141 10q-106 0 -156 -27q-65 -35 -65 -124q0 -135 135 -135q81 0 138 31q37 20 89 75v170zM928 0h-217l-29 125h-12q-114 -139 -299 -139q-136 0 -211 74q-88 87 -88 242q0 343 401 343q93 0 205 -14v26q0 105 -37 139q-41 39 -132 39q-178 0 -323 -73 l-55 178q216 104 416 104q219 0 305 -105q42 -52 56 -120q10 -47 10 -162v-530q0 -71 10 -127zM249 1165l-84 88q50 105 98 148q53 47 127 47q79 0 185 -78q64 -47 111 -47q73 0 116 115l86 -86q-76 -189 -222 -189q-68 0 -182 78q-71 49 -107 49q-72 0 -128 -125z" unicode="ã"/>
<glyph glyph-name="adieresis" d="M678 461q-76 10 -141 10q-106 0 -156 -27q-65 -35 -65 -124q0 -135 135 -135q81 0 138 31q37 20 89 75v170zM928 0h-217l-29 125h-12q-114 -139 -299 -139q-136 0 -211 74q-88 87 -88 242q0 343 401 343q93 0 205 -14v26q0 105 -37 139q-41 39 -132 39q-178 0 -323 -73 l-55 178q216 104 416 104q219 0 305 -105q42 -52 56 -120q10 -47 10 -162v-530q0 -71 10 -127zM734 1401q70 0 109 -41q29 -32 29 -78q0 -54 -38 -87q-39 -32 -101 -32q-73 0 -109 42q-31 35 -31 78q0 48 40 85q34 33 101 33zM332 1401q69 0 105 -42q29 -32 29 -76 q0 -51 -37 -87q-34 -33 -103 -33q-71 0 -108 41q-28 33 -28 79q0 53 38 86q38 32 104 32z" unicode="ä"/>
<glyph glyph-name="aring" horiz-adv-x="1037" unicode="å" d="M678 461q-76 10 -141 10q-106 0 -156 -27q-65 -35 -65 -124q0 -135 135 -135q81 0 138 31q37 20 89 75v170zM928 0h-217l-29 125h-12q-114 -139 -299 -139q-136 0 -211 74q-88 87 -88 242q0 343 401 343q93 0 205 -14v26q0 105 -37 139q-41 39 -132 39q-178 0 -323 -73 l-55 178q216 104 416 104q219 0 305 -105q42 -52 56 -120q10 -47 10 -162v-530q0 -71 10 -127zM527 1368q-81 0 -81 -71q0 -66 80 -66q84 0 84 70q0 67 -83 67zM533 1485q109 0 166 -66q46 -54 46 -121q0 -78 -58 -131t-161 -53q-111 0 -170 66q-45 51 -45 122q0 78 58 131 q57 52 164 52z"/>
<glyph glyph-name="ae" horiz-adv-x="1597" unicode="æ" d="M1296 627v28q-1 82 -41 138q-48 66 -135 66q-188 0 -205 -232h381zM688 449h-152q-123 0 -171 -25q-55 -28 -55 -115q0 -132 147 -132q118 0 231 94v178zM1442 260l65 -170q-108 -63 -180.5 -84.5t-174.5 -21.5q-167 0 -266 62q-44 27 -100 93q-93 -72 -133 -94 q-117 -63 -270 -63q-313 0 -313 316q0 187 122 266q96 63 332 63h164v29q0 102 -27 131q-43 48 -149 48q-172 0 -328 -79l-55 182q208 103 397 103q135 0 219 -46q39 -21 84 -71q130 119 298 119q417 0 417 -519q0 -25 -2 -75h-592l-35 6l-16 8l-8 -10l18 -12l6 -21 q24 -233 271 -233q122 0 256 73z"/>
<glyph glyph-name="ccedilla" horiz-adv-x="850" unicode="ç" d="M788 264l43 -176q-81 -57 -136 -77q-79 -29 -180 -29q-190 0 -300 104q-152 144 -152 412q0 256 139 409q123 135 325 135q176 0 304 -102l-49 -190q-111 81 -220 81q-245 0 -245 -331q0 -309 237 -309q113 0 234 73zM292 -389l47 98q68 -41 125 -41q94 0 94 70 q0 76 -91 76q-55 0 -128 -43l-47 100q108 72 209 72q94 0 153 -50q60 -51 60 -145q0 -103 -74 -158q-63 -47 -144 -47q-107 0 -204 68z"/>
<glyph glyph-name="egrave" horiz-adv-x="1036" unicode="è" d="M730 622q-3 238 -190 238q-203 0 -220 -238h410zM873 262l63 -170q-181 -112 -389 -112q-187 0 -309 98q-172 139 -172 424q0 272 154 419q130 125 329 125q307 0 400 -282q30 -91 30 -304v-14h-632l-19 2l-22 12l-7 -8l15 -16l8 -19q5 -85 53 -142q76 -90 222 -90 q133 0 276 77zM654 1161l-149 -16l-261 278h-20v21h289z"/>
<glyph glyph-name="eacute" horiz-adv-x="1036" unicode="é" d="M730 622q-3 238 -190 238q-203 0 -220 -238h410zM873 262l63 -170q-181 -112 -389 -112q-187 0 -309 98q-172 139 -172 424q0 272 154 419q130 125 329 125q307 0 400 -282q30 -91 30 -304v-14h-632l-19 2l-22 12l-7 -8l15 -16l8 -19q5 -85 53 -142q76 -90 222 -90 q133 0 276 77zM545 1145l-137 12l143 287h285v-21h-22z"/>
<glyph glyph-name="ecircumflex" horiz-adv-x="1036" unicode="ê" d="M730 622q-3 238 -190 238q-203 0 -220 -238h410zM873 262l63 -170q-181 -112 -389 -112q-187 0 -309 98q-172 139 -172 424q0 272 154 419q130 125 329 125q307 0 400 -282q30 -91 30 -304v-14h-632l-19 2l-22 12l-7 -8l15 -16l8 -19q5 -85 53 -142q76 -90 222 -90 q133 0 276 77zM384 1139l-143 18v21h20l273 323v17h20v-17l273 -323h20v-21l-149 -18l-156 127z"/>
<glyph glyph-name="edieresis" horiz-adv-x="1036" unicode="ë" d="M730 622q-3 238 -190 238q-203 0 -220 -238h410zM873 262l63 -170q-181 -112 -389 -112q-187 0 -309 98q-172 139 -172 424q0 272 154 419q130 125 329 125q307 0 400 -282q30 -91 30 -304v-14h-632l-19 2l-22 12l-7 -8l15 -16l8 -19q5 -85 53 -142q76 -90 222 -90 q133 0 276 77zM390 1425q48 0 77 -34q31 -38 31 -91q0 -62 -39 -100q-27 -26 -71 -26q-49 0 -76 35q-33 42 -33 92q0 52 40 98q24 26 71 26zM715 1425q47 0 76 -34q31 -38 31 -91q0 -60 -38 -100q-25 -26 -69 -26q-50 0 -79 34q-31 38 -31 93q0 60 39 98q27 26 71 26z"/>
<glyph glyph-name="igrave" horiz-adv-x="518" unicode="ì" d="M137 0v999l246 39v-1038h-246zM448 1161l-149 -16l-261 278h-20v21h289z"/>
<glyph glyph-name="iacute" horiz-adv-x="520" unicode="í" d="M137 0v999l246 39v-1038h-246zM213 1145l-137 12l143 287h285v-21h-22z"/>
<glyph glyph-name="icircumflex" horiz-adv-x="520" unicode="î" d="M137 0v999l246 39v-1038h-246zM102 1139l-143 18v21h20l273 323v17h20v-17l273 -323h20v-21l-149 -18l-156 127z"/>
<glyph glyph-name="idieresis" horiz-adv-x="518" unicode="ï" d="M137 0v999l246 39v-1038h-246zM114 1425q46 0 75 -35q34 -40 34 -90q0 -55 -40 -100q-24 -26 -71 -26q-48 0 -77 34q-31 37 -31 93q0 60 39 98q27 26 71 26zM411 1425q47 0 76 -34q31 -38 31 -91q0 -60 -38 -100q-25 -26 -69 -26q-50 0 -79 34q-31 38 -31 93q0 60 39 98 q27 26 71 26z"/>
<glyph glyph-name="eth" horiz-adv-x="1077" unicode="ð" d="M538 858q-85 0 -137 -59q-82 -95 -82 -293q0 -186 72 -279q50 -66 138 -66q119 0 176 103q54 94 54 248q0 346 -221 346zM508 1044l-127 130l-254 -13v109l146 6l34 -14l9 16l-41 18l-134 134l252 45l163 -177l262 9v-109l-154 -4l-35 10l-6 -16l41 -14l140 -144 q211 -217 211 -507q0 -264 -148 -413q-132 -133 -341 -133q-186 0 -301 107q-160 149 -160 416q0 223 111 366q116 150 332 170v8z"/>
<glyph glyph-name="ntilde" horiz-adv-x="1120" unicode="ñ" d="M123 0v995l240 37v-110l-8 -56l-10 -32l16 -5l20 45q144 168 346 168q153 0 220 -96q55 -79 55 -248v-698h-250v631q0 128 -27 159q-30 35 -101 35q-139 0 -255 -137v-688h-246zM291 1165l-84 88q50 105 98 148q53 47 127 47q79 0 185 -78q64 -47 111 -47q73 0 116 115 l86 -86q-76 -189 -222 -189q-68 0 -182 78q-71 49 -107 49q-72 0 -128 -125z"/>
<glyph glyph-name="ograve" horiz-adv-x="1077" unicode="ò" d="M535 857q-110 0 -164 -101q-49 -92 -49 -240q0 -351 221 -351q111 0 164 101q51 97 51 241q0 350 -223 350zM554 1047q192 0 309 -115q151 -149 151 -419t-158 -421q-119 -115 -321 -115q-199 0 -315 115q-154 151 -154 415q0 278 160 425q124 115 328 115zM658 1161 l-149 -16l-261 278h-20v21h289z"/>
<glyph glyph-name="oacute" horiz-adv-x="1077" unicode="ó" d="M535 857q-110 0 -164 -101q-49 -92 -49 -240q0 -351 221 -351q111 0 164 101q51 97 51 241q0 350 -223 350zM554 1047q192 0 309 -115q151 -149 151 -419t-158 -421q-119 -115 -321 -115q-199 0 -315 115q-154 151 -154 415q0 278 160 425q124 115 328 115zM548 1145 l-137 12l143 287h285v-21h-22z"/>
<glyph glyph-name="ocircumflex" horiz-adv-x="1077" unicode="ô" d="M535 857q-110 0 -164 -101q-49 -92 -49 -240q0 -351 221 -351q111 0 164 101q51 97 51 241q0 350 -223 350zM554 1047q192 0 309 -115q151 -149 151 -419t-158 -421q-119 -115 -321 -115q-199 0 -315 115q-154 151 -154 415q0 278 160 425q124 115 328 115zM379 1139 l-143 18v21h20l273 323v17h20v-17l273 -323h20v-21l-149 -18l-156 127z"/>
<glyph glyph-name="otilde" horiz-adv-x="1077" unicode="õ" d="M535 857q-110 0 -164 -101q-49 -92 -49 -240q0 -351 221 -351q111 0 164 101q51 97 51 241q0 350 -223 350zM554 1047q192 0 309 -115q151 -149 151 -419t-158 -421q-119 -115 -321 -115q-199 0 -315 115q-154 151 -154 415q0 278 160 425q124 115 328 115zM262 1165 l-84 88q50 105 98 148q53 47 127 47q79 0 185 -78q64 -47 111 -47q73 0 116 115l86 -86q-76 -189 -222 -189q-68 0 -182 78q-71 49 -107 49q-72 0 -128 -125z"/>
<glyph glyph-name="odieresis" horiz-adv-x="1077" unicode="ö" d="M535 857q-110 0 -164 -101q-49 -92 -49 -240q0 -351 221 -351q111 0 164 101q51 97 51 241q0 350 -223 350zM554 1047q192 0 309 -115q151 -149 151 -419t-158 -421q-119 -115 -321 -115q-199 0 -315 115q-154 151 -154 415q0 278 160 425q124 115 328 115zM756 1401 q69 0 106 -41q28 -33 28 -78q0 -53 -37 -87q-36 -32 -101 -32q-74 0 -110 41q-28 33 -28 79q0 52 38 86q38 32 104 32zM330 1401q68 0 105 -42q31 -35 31 -76q0 -48 -39 -86q-34 -34 -100 -34q-72 0 -110 41q-29 32 -29 79q0 53 38 86q38 32 104 32z"/>
<glyph glyph-name="divide" d="M540 1183q71 0 111 -45q31 -35 31 -82q0 -54 -39 -90q-38 -35 -106 -35q-76 0 -114 44q-31 34 -31 82q0 53 40 90q39 36 108 36zM540 403q71 0 110 -45q32 -35 32 -80q0 -52 -39 -91q-36 -35 -109 -35q-74 0 -111 45q-31 36 -31 84q0 53 39 87q42 35 109 35zM111 592v160 h852v-160h-852z" unicode="÷"/>
<glyph glyph-name="oslash" horiz-adv-x="1099" unicode="ø" d="M397 241q59 -80 155 -80q101 0 156 83q62 94 62 266q0 63 -12 130v30l7 25l-16 6l-7 -24l-15 -31zM696 784q-57 78 -153 78q-98 0 -153 -81q-64 -94 -64 -271q0 -64 10 -124l-2 -31l-8 -25l19 -4l6 27l13 24zM167 -32l-104 71l109 117q-98 148 -98 356q0 295 189 444 q115 91 292 91q171 0 286 -90l89 103l103 -73l-111 -118q23 -34 36 -60q65 -130 65 -297q0 -295 -186 -443q-116 -92 -296 -92q-170 0 -287 92z"/>
<glyph glyph-name="ugrave" horiz-adv-x="1100" unicode="ù" d="M987 0h-215l-31 150h-10q-112 -168 -312 -168q-157 0 -226 86q-74 91 -74 282v649l246 39v-659q0 -105 31 -149q25 -37 98 -37q157 0 237 145v661l244 39v-911q1 -67 12 -127zM684 1161l-149 -16l-261 278h-20v21h289z"/>
<glyph glyph-name="uacute" horiz-adv-x="1100" unicode="ú" d="M987 0h-215l-31 150h-10q-112 -168 -312 -168q-157 0 -226 86q-74 91 -74 282v649l246 39v-659q0 -105 31 -149q25 -37 98 -37q157 0 237 145v661l244 39v-911q1 -67 12 -127zM576 1145l-137 12l143 287h285v-21h-22z"/>
<glyph glyph-name="ucircumflex" horiz-adv-x="1100" unicode="û" d="M987 0h-215l-31 150h-10q-112 -168 -312 -168q-157 0 -226 86q-74 91 -74 282v649l246 39v-659q0 -105 31 -149q25 -37 98 -37q157 0 237 145v661l244 39v-911q1 -67 12 -127zM400 1139l-143 18v21h20l273 323v17h20v-17l273 -323h20v-21l-149 -18l-156 127z"/>
<glyph glyph-name="udieresis" horiz-adv-x="1100" unicode="ü" d="M987 0h-215l-31 150h-10q-112 -168 -312 -168q-157 0 -226 86q-74 91 -74 282v649l246 39v-659q0 -105 31 -149q25 -37 98 -37q157 0 237 145v661l244 39v-911q1 -67 12 -127zM769 1401q69 0 105 -42q31 -35 31 -77q0 -50 -39 -86q-36 -33 -100 -33q-72 0 -110 41 q-29 32 -29 79q0 53 38 86q38 32 104 32zM386 1401q68 0 105 -42q31 -35 31 -76q0 -48 -39 -86q-34 -34 -100 -34q-72 0 -110 41q-29 31 -29 79q0 53 38 86q38 32 104 32z"/>
<glyph glyph-name="yacute" horiz-adv-x="934" unicode="ý" d="M311 43l-303 981h266l203 -733l6 -55v-43h27v43l6 55l172 733h246l-264 -1020q-61 -232 -144 -324q-84 -92 -243 -92q-78 0 -179 33l45 172q41 -15 94 -15q99 0 134 51q29 43 65 171l12 43h-143zM522 1145l-137 12l143 287h285v-21h-22z"/>
<glyph glyph-name="thorn" horiz-adv-x="1116" unicode="þ" d="M373 682v-367q48 -56 82 -78q54 -36 127 -36q217 0 217 311q0 313 -197 313q-126 0 -229 -143zM125 -406v1842l242 39v-539l-8 -55l-8 -31l16 -8l18 47q97 155 293 155q167 0 267 -139q102 -143 102 -376q0 -252 -117 -402q-110 -141 -292 -141q-177 0 -245 114l-22 50 l-18 -7l8 -26l8 -54v-469h-244z"/>
<glyph glyph-name="dotlessi" horiz-adv-x="518" unicode="ı" d="M137 0v999l246 39v-1038h-246z"/>
<glyph glyph-name="OE" horiz-adv-x="1720" unicode="Œ" d="M868 1188q-78 26 -142 26q-173 0 -263 -121q-109 -146 -109 -404q0 -245 111 -382q89 -111 267 -111q64 0 136 21v971zM1667 211v-207h-621q-144 0 -213 -4q-133 -7 -168 -7q-221 0 -366 127q-217 190 -217 581q0 347 180 540q165 176 420 176l168 -6l94 -2l84 -2h639 v-207l-541 -12v-363h459v-213h-459v-387z"/>
<glyph glyph-name="oe" horiz-adv-x="1657" unicode="œ" d="M1361 622q-4 236 -181 236q-179 0 -206 -236h387zM317 509v-8q0 -211 94 -296q48 -43 118 -43q208 0 208 361q0 335 -201 335q-94 0 -145 -74q-74 -107 -74 -275zM1501 258l61 -170q-171 -107 -361 -107q-140 0 -240 62q-45 28 -101 92q-67 -73 -120 -103 q-90 -52 -222 -52q-183 0 -295 104q-160 149 -160 420q0 290 182 440q122 100 293 100q203 0 322 -154q129 152 328 152q300 0 384 -292q29 -100 29 -291v-13h-592l-37 8l-14 6l-8 -10l14 -10l10 -23q21 -229 263 -229q126 0 264 70z"/>
<glyph glyph-name="Scaron" horiz-adv-x="1075" unicode="Š" d="M88 139l72 213q89 -78 156 -106q98 -42 203 -42q229 0 229 175q0 59 -31 106q-35 52 -176 104q-222 83 -320 173q-102 94 -102 257q0 207 152 323q118 90 297 90q140 0 255 -52q59 -27 144 -96l-64 -209q-88 75 -154 100q-85 32 -169 32q-195 0 -195 -156q0 -56 30 -94 q42 -51 173 -103q242 -94 326 -178q102 -102 102 -264q0 -217 -172 -343q-121 -88 -302 -88q-187 0 -321 66q-57 29 -133 92zM681 1767l156 -18v-20h-21l-250 -252v-15h-20v15l-256 252h-21v20l166 18l123 -120z"/>
<glyph glyph-name="scaron" horiz-adv-x="891" unicode="š" d="M70 88l43 186q135 -97 301 -97q168 0 168 107q0 43 -25 69q-29 33 -168 72q-166 48 -231 105q-80 69 -80 193q0 172 139 260q95 59 253 59q185 0 337 -94l-51 -180q-122 78 -269 78q-165 0 -165 -92q0 -39 29 -64q25 -21 170 -61q161 -45 233 -113q78 -73 78 -197 q0 -189 -147 -278q-105 -64 -252 -64q-188 0 -363 111zM611 1489l143 -16v-21h-20l-273 -324v-18h-20v18l-273 324h-20v21l150 16l155 -148z"/>
<glyph glyph-name="Ydieresis" horiz-adv-x="1059" unicode="Ÿ" d="M692 0h-260v506l-440 905h299l249 -590l19 -82v-41h27v41l16 82l242 590h284l-436 -903v-508zM797 1729q74 0 115 -46q32 -36 32 -82q0 -54 -41 -92q-40 -36 -108 -36q-80 0 -117 45q-31 37 -31 83q0 52 40 92q37 36 110 36zM341 1729q74 0 115 -46q32 -36 32 -82 q0 -54 -41 -92q-40 -36 -108 -36q-80 0 -117 45q-31 36 -31 85q0 55 39 90q40 36 111 36z"/>
<glyph glyph-name="circumflex" horiz-adv-x="774" unicode="ˆ" d="M227 1139l-143 18v21h20l273 323v17h20v-17l273 -323h20v-21l-149 -18l-156 127z"/>
<glyph glyph-name="caron" horiz-adv-x="774" unicode="ˇ" d="M547 1489l143 -16v-21h-20l-273 -324v-18h-20v18l-273 324h-20v21l150 16l155 -148z"/>
<glyph glyph-name="ring" horiz-adv-x="602" unicode="˚" d="M300 1368q-81 0 -81 -71q0 -66 80 -66q84 0 84 70q0 67 -83 67zM306 1485q109 0 166 -66q46 -54 46 -121q0 -78 -58 -131t-161 -53q-111 0 -170 66q-45 51 -45 122q0 78 58 131q57 52 164 52z"/>
<glyph glyph-name="tilde" horiz-adv-x="891" unicode="˜" d="M168 1165l-84 88q50 105 98 148q53 47 127 47q79 0 185 -78q64 -47 111 -47q73 0 116 115l86 -86q-76 -189 -222 -189q-68 0 -182 78q-71 49 -107 49q-72 0 -128 -125z"/>
<glyph glyph-name="pi" horiz-adv-x="1206" unicode="π" d="M285 0v903q-72 -20 -107 -49q-29 -23 -88 -96v-23h-12l-45 187q41 73 111 108q98 50 206 50q40 0 113 -9l339 -41q68 -8 123 -8q121 0 205 113v22h15l75 -131q-80 -145 -186 -156v-870h-238v858l-273 31v-889h-238z"/>
<glyph glyph-name="endash" d="M106 573v199h860v-199h-860z" unicode="–"/>
<glyph glyph-name="emdash" horiz-adv-x="1706" unicode="—" d="M90 598v193h1554v-193h-1554z"/>
<glyph glyph-name="quoteleft" horiz-adv-x="438" unicode="‘" d="M287 963h-215v82l219 419h131z"/>
<glyph glyph-name="quotesinglbase" horiz-adv-x="428" unicode="‚" d="M172 258h225v-82l-246 -469h-133z"/>
<glyph glyph-name="quotedblleft" horiz-adv-x="768" unicode="“" d="M281 969h-213v82l219 413h131zM619 969h-213v82l219 413h131z"/>
<glyph glyph-name="quotedblright" horiz-adv-x="756" unicode="”" d="M538 1456h213v-82l-219 -411h-131zM200 1456h213v-82l-219 -411h-131z"/>
<glyph glyph-name="dagger" horiz-adv-x="850" unicode="†" d="M315 0v843h-319v193h319v375h234l-2 -375h319v-193h-319l2 -843h-234z"/>
<glyph glyph-name="daggerdbl" horiz-adv-x="975" unicode="‡" d="M383 878h-324v193h319v340h234l-2 -340h319v-193h-321v-288h321v-193h-319l2 -397h-234v397h-319v193h324v288z"/>
<glyph glyph-name="ellipsis" horiz-adv-x="2742" unicode="…" d="M2345 281q85 0 132 -52q34 -39 34 -94q0 -66 -46 -107q-46 -42 -124 -42q-86 0 -133 52q-35 40 -35 98q0 63 46 104q45 41 126 41zM1430 281q87 0 131 -52q36 -43 36 -97q0 -63 -46 -104q-46 -42 -126 -42q-86 0 -133 52q-35 40 -35 95q0 62 47 107q42 41 126 41z M517 281q87 0 131 -52q36 -43 36 -97q0 -63 -46 -104q-46 -42 -126 -42q-86 0 -133 52q-35 40 -35 95q0 62 47 107q42 41 126 41z"/>
<glyph glyph-name="perthousand" horiz-adv-x="2322" unicode="‰" d="M264 0l899 1411h168l-899 -1411h-168zM386 1287q-45 0 -75 -51q-39 -66 -39 -187t39 -187q31 -53 76 -53q49 0 77 53q39 74 39 185q0 116 -39 189q-27 51 -78 51zM406 1434q136 0 219 -96q91 -106 91 -285q0 -207 -120 -312q-87 -75 -212 -75q-143 0 -232 95 q-93 100 -93 285q0 208 123 311q92 77 224 77zM1950 618q-52 0 -79 -53q-39 -76 -39 -193q0 -115 39 -192q27 -53 80 -53q49 0 80 53q39 68 39 191q0 128 -39 194q-31 53 -81 53zM1966 770q143 0 230 -99q93 -104 93 -290q0 -219 -122 -325q-88 -76 -218 -76q-153 0 -241 97 q-95 106 -95 295q0 211 126 320q91 78 227 78zM1205 618q-48 0 -77 -53q-41 -75 -41 -193q0 -117 41 -192q29 -53 79 -53q49 0 79 53q39 70 39 191q0 127 -39 194q-31 53 -81 53zM1221 770q142 0 230 -99q93 -104 93 -290q0 -219 -122 -325q-88 -76 -218 -76q-149 0 -240 97 q-96 104 -96 293q0 213 126 322q91 78 227 78z"/>
<glyph glyph-name="guilsinglleft" horiz-adv-x="586" unicode="‹" d="M500 952l-186 -373l186 -364l-125 -33l-293 385h-16v18h16l295 391z"/>
<glyph glyph-name="guilsinglright" horiz-adv-x="586" unicode="›" d="M121 215l186 372l-186 365l127 33l291 -385h16v-19h-16l-295 -393z"/>
<glyph glyph-name="fraction" horiz-adv-x="393" unicode="⁄" d="M-307 0l899 1411h168l-899 -1411h-168z"/>
<glyph glyph-name="Euro" horiz-adv-x="1530" unicode="€" d="M1442 387v-246q-207 -170 -468 -170q-310 0 -534 222q-155 153 -174 344h-219l45 102h156q-4 40 -4 61q0 20 4 60h-201l45 104h170q30 179 147 313q101 115 238 182q155 76 322 76q217 0 412 -120q55 -33 114 -99l-94 -194q-188 204 -439 204q-226 0 -362 -160 q-65 -76 -98 -202h848l-43 -104h-822v-59v-62h770l-43 -102h-708q35 -134 110 -213q138 -144 362 -144q270 0 466 207z"/>
<glyph glyph-name="trademark" horiz-adv-x="1098" unicode="™" d="M467 1069l49 492h147l84 -289l8 -29l2 -37h15l2 37l6 29l86 289h145l43 -492h-122l-15 295v25l4 35h-14l-6 -35l-6 -25l-90 -295h-97l-84 297l-6 23l-6 35h-14l2 -35v-23l-19 -297h-114zM186 1069v400l-131 4v88h387v-88l-129 -4v-400h-127z"/>
<glyph glyph-name="partialdiff" horiz-adv-x="1104" unicode="∂" d="M455 1476v-69q1 -72 51 -109l258 -186q285 -206 285 -588q0 -299 -166 -445q-116 -102 -313 -102q-185 0 -295 92q-154 128 -154 396q0 232 127 368q122 130 324 131v-155h-19q-63 0 -115 -56q-74 -79 -74 -248q0 -194 56 -282q49 -78 161 -78q222 0 222 360 q0 344 -202 488l-265 188q-77 55 -102 113q-15 33 -15 97q0 15 5 42z"/>
<glyph glyph-name="product" horiz-adv-x="1389" unicode="∏" d="M543 0h-260v1225l-213 14v172h1284v-172l-213 -14v-1225h-260v1239h-338v-1239z"/>
<glyph glyph-name="summation" horiz-adv-x="1186" unicode="∑" d="M135 0v205l405 475l23 10h14v23h-14l-23 10l-405 471v217h954v-340h-143l-21 168h-462l-29 6l-35 17l-10 -19l26 -12l35 -25l399 -460h21v-27h-21l-434 -512l-32 -27l-25 -14l10 -15l35 17l27 6h510l20 193h144v-367h-969z"/>
<glyph glyph-name="radical" horiz-adv-x="946" unicode="√" d="M836 1698h1026v-143h-864l-344 -1913h-260l-172 966h-156v121l367 55l100 -708l4 -55v-99h25l4 113z"/>
<glyph glyph-name="infinity" d="M606 752q43 -189 168 -189q135 0 135 151q0 169 -133 169q-63 0 -117 -51q-27 -26 -39 -47q-15 -28 -14 -33zM477 674q-51 191 -167 191q-138 0 -138 -156q0 -83 44 -129q35 -37 93 -37q64 0 115 53q16 18 35 45.5t18 32.5zM538 872v-32h25v32q77 183 225 183 q116 0 177 -94q57 -90 57 -249q0 -178 -82 -265q-69 -74 -168 -74q-149 0 -230 213v30h-22v-30q-83 -213 -224 -213q-123 0 -190 121q-47 85 -47 213q0 169 78 260q74 86 178 86q136 0 223 -181z" unicode="∞"/>
<glyph glyph-name="approxequal" d="M180 709l-76 129q81 166 235 166q87 0 226 -72q111 -58 170 -58q100 0 166 115l61 -135q-83 -152 -221 -152q-96 0 -225 68q-118 62 -176 62q-89 0 -160 -123zM180 358l-76 129q80 164 237 164q90 0 224 -70q110 -57 169 -57q106 0 167 115l61 -135q-85 -154 -217 -154 q-95 0 -229 70q-119 61 -176 61q-59 0 -102 -43q-23 -22 -58 -80z" unicode="≈"/>
<glyph glyph-name="notequal" d="M462 598v153h-360v152h360v363h147v-363h361v-152h-361v-153h361v-152h-361v-387h-147v387h-360v152h360z" unicode="≠"/>
<glyph glyph-name="lessequal" horiz-adv-x="1036" unicode="≤" d="M930 573l-811 287v131l811 287l12 -172l-585 -168h-43v-27h43l585 -168zM940 139h-821v139h821v-139zM940 385h-821v139h821v-139z"/>
<glyph glyph-name="greaterequal" horiz-adv-x="1036" unicode="≥" d="M131 1278l811 -287v-131l-811 -287l-12 170l585 168h46v27h-46l-585 168zM942 139h-821v139h821v-139zM942 385h-821v139h821v-139z"/>
<glyph glyph-name="lozenge" horiz-adv-x="1024" unicode="◊" d="M292 717l232 -398l4 -26v-43h22v43l5 26l215 375l-232 381l-4 27v43h-22v-43l-7 -27zM1003 715l-457 -813v-21h-28v21l-457 796l457 807v21h28v-21z"/>
<glyph glyph-name="grave.uc" d="M389 1724l129 -217l-174 -25l-244 222h-20v20h309z" horiz-adv-x="598"/>
<glyph glyph-name="acute.uc" d="M215 1724h303v-20h-20l-258 -222l-160 25z" horiz-adv-x="598"/>
<glyph glyph-name="circumflex.uc" d="M258 1491l-156 16v23h23l249 252v14h21v-14l254 -252h22v-23l-167 -16l-123 106z" horiz-adv-x="774"/>
<glyph glyph-name="tilde.uc" d="M169 1487l-83 84q46 97 94 141q51 47 125 47q79 0 188 -75q65 -45 109 -45q71 0 116 110l86 -84q-84 -180 -221 -180q-75 0 -180 73q-67 47 -110 47q-76 0 -124 -118z" horiz-adv-x="891"/>
<glyph glyph-name="dieresis.uc" d="M673 1729q75 0 115 -45q30 -34 30 -83q0 -57 -39 -92q-41 -36 -109 -36q-78 0 -118 45q-31 35 -31 83q0 54 42 92q39 36 110 36zM173 1729q74 0 115 -46q32 -36 32 -82q0 -54 -42 -92q-39 -36 -107 -36q-80 0 -117 45q-31 36 -31 85q0 55 39 90q40 36 111 36z" horiz-adv-x="842"/>
<glyph glyph-name="ring.uc" d="M301 1699q-85 0 -85 -64t85 -64t85 64t-85 64zM301 1809q90 0 153 -41q74 -47 74 -133t-73 -134q-63 -40 -154 -40t-154 40q-73 48 -73 134t73 133q63 41 154 41z" horiz-adv-x="602"/>
<glyph glyph-name="caron.uc" d="M515 1767l156 -18v-20h-21l-250 -252v-15h-20v15l-256 252h-21v20l166 18l123 -120z" horiz-adv-x="774"/>
<glyph glyph-name="dieresis.ucY" d="M650 1729q74 0 115 -46q32 -36 32 -82q0 -54 -41 -92q-40 -36 -108 -36q-80 0 -117 45q-31 37 -31 83q0 52 40 92q37 36 110 36zM194 1729q74 0 115 -46q32 -36 32 -82q0 -54 -41 -92q-40 -36 -108 -36q-80 0 -117 45q-31 36 -31 85q0 55 39 90q40 36 111 36z" horiz-adv-x="842"/>
<glyph glyph-name="dieresis.ucE" d="M247 1729q48 0 77 -34q31 -38 31 -92q0 -62 -39 -100q-27 -26 -71 -26q-51 0 -80 34q-31 38 -31 93q0 60 39 99q26 26 74 26zM598 1477h-2q-50 0 -79 34q-31 38 -31 92q0 62 39 100q27 26 71 26q51 0 80 -34q31 -38 31 -95q0 -63 -39 -97q-31 -26 -70 -26z" horiz-adv-x="842"/>
<glyph glyph-name="dieresis.ucI" d="M260 1729q48 0 77 -34q31 -38 31 -92q0 -62 -39 -100q-27 -26 -72 -26q-50 0 -79 34q-31 38 -31 93q0 60 39 99q26 26 74 26zM585 1477h-2q-50 0 -79 34q-31 38 -31 92q0 62 39 100q27 26 71 26q51 0 80 -34q31 -38 31 -91q0 -64 -41 -101q-29 -26 -68 -26z" horiz-adv-x="842"/>
<glyph glyph-name="dieresis.ucO" d="M687 1729q73 0 114 -46q32 -36 32 -82q0 -54 -42 -92q-39 -36 -107 -36q-80 0 -117 45q-31 37 -31 83q0 54 42 92q39 36 109 36zM160 1729q75 0 115 -45q30 -34 30 -83q0 -57 -39 -92q-41 -36 -108 -36q-79 0 -119 45q-31 35 -31 83q0 54 42 92q39 36 110 36z" horiz-adv-x="842"/>
<glyph glyph-name="dieresis.alta" d="M624 1401q70 0 109 -41q29 -32 29 -78q0 -54 -38 -87q-39 -32 -101 -32q-73 0 -109 42q-31 35 -31 78q0 48 40 85q34 33 101 33zM222 1401q69 0 105 -42q29 -32 29 -76q0 -51 -37 -87q-34 -33 -103 -33q-71 0 -108 41q-28 33 -28 79q0 53 38 86q38 32 104 32z" horiz-adv-x="842"/>
<glyph glyph-name="dieresis.alte" d="M260 1425q48 0 77 -34q31 -38 31 -91q0 -62 -39 -100q-27 -26 -71 -26q-49 0 -76 35q-33 42 -33 92q0 52 40 98q24 26 71 26zM585 1425q47 0 76 -34q31 -38 31 -91q0 -60 -38 -100q-25 -26 -69 -26q-50 0 -79 34q-31 38 -31 93q0 60 39 98q27 26 71 26z" horiz-adv-x="842"/>
<glyph glyph-name="dieresis.alti" d="M274 1425q46 0 75 -35q34 -40 34 -90q0 -55 -40 -100q-24 -26 -71 -26q-48 0 -77 34q-31 37 -31 93q0 60 39 98q27 26 71 26zM571 1425q47 0 76 -34q31 -38 31 -91q0 -60 -38 -100q-25 -26 -69 -26q-50 0 -79 34q-31 38 -31 93q0 60 39 98q27 26 71 26z" horiz-adv-x="842"/>
<glyph glyph-name="dieresis.alto" d="M638 1401q69 0 106 -41q28 -33 28 -78q0 -53 -37 -87q-36 -32 -101 -32q-74 0 -110 41q-28 33 -28 79q0 52 38 86q38 32 104 32zM212 1401q68 0 105 -42q31 -35 31 -76q0 -48 -39 -86q-34 -34 -100 -34q-72 0 -110 41q-29 32 -29 79q0 53 38 86q38 32 104 32z" horiz-adv-x="842"/>
<glyph glyph-name="dieresis.altu" d="M615 1401q69 0 105 -42q31 -35 31 -77q0 -50 -39 -86q-36 -33 -100 -33q-72 0 -110 41q-29 32 -29 79q0 53 38 86q38 32 104 32zM232 1401q68 0 105 -42q31 -35 31 -76q0 -48 -39 -86q-34 -34 -100 -34q-72 0 -110 41q-29 31 -29 79q0 53 38 86q38 32 104 32z" horiz-adv-x="842"/>
<glyph glyph-name="dieresis.ucU" d="M642 1729q75 0 115 -45q30 -34 30 -83q0 -57 -39 -92q-40 -36 -109 -36q-78 0 -118 45q-31 35 -31 83q0 54 42 92q39 36 110 36zM206 1729q75 0 115 -45q30 -34 30 -83q0 -57 -39 -92q-41 -36 -109 -36q-78 0 -118 45q-31 35 -31 83q0 54 42 92q39 36 110 36z" horiz-adv-x="842"/>
</font>
</defs>
</svg>
